<svg width="61" height="61" viewBox="0 0 61 61" fill="none" xmlns="http://www.w3.org/2000/svg">
<circle cx="30.5" cy="30.5" r="28.5" fill="url(#paint0_linear_547_14301)" stroke="url(#paint1_linear_547_14301)" stroke-width="4"/>
<mask id="path-2-inside-1_547_14301" fill="white">
<path fill-rule="evenodd" clip-rule="evenodd" d="M16.2763 39.9645C16.2763 42.2054 19.3257 44.0221 23.0874 44.0221C26.849 44.0221 29.8984 42.2054 29.8984 39.9644C29.8984 39.9468 29.8982 39.9293 29.8979 39.9118L29.8979 37.9356L28.9873 37.9356C27.8096 36.7228 25.6085 35.9067 23.0874 35.9067C20.5663 35.9067 18.3651 36.7228 17.1874 37.9356L16.2757 37.9356L16.2757 39.9645L16.2763 39.9645Z"/>
</mask>
<path fill-rule="evenodd" clip-rule="evenodd" d="M16.2763 39.9645C16.2763 42.2054 19.3257 44.0221 23.0874 44.0221C26.849 44.0221 29.8984 42.2054 29.8984 39.9644C29.8984 39.9468 29.8982 39.9293 29.8979 39.9118L29.8979 37.9356L28.9873 37.9356C27.8096 36.7228 25.6085 35.9067 23.0874 35.9067C20.5663 35.9067 18.3651 36.7228 17.1874 37.9356L16.2757 37.9356L16.2757 39.9645L16.2763 39.9645Z" fill="#FFAB90"/>
<path d="M16.2763 39.9645L17.2763 39.9644L17.2762 38.9645L16.2763 38.9645L16.2763 39.9645ZM29.8979 39.9118L28.8979 39.9118L28.8979 39.9224L28.8981 39.9331L29.8979 39.9118ZM29.8979 37.9356L30.8979 37.9356L30.8979 36.9356L29.8979 36.9356L29.8979 37.9356ZM28.9873 37.9356L28.2698 38.6322L28.5644 38.9356L28.9873 38.9356L28.9873 37.9356ZM17.1874 37.9356L17.1874 38.9356L17.6103 38.9356L17.9049 38.6322L17.1874 37.9356ZM16.2757 37.9356L16.2757 36.9356L15.2757 36.9356L15.2757 37.9356L16.2757 37.9356ZM16.2757 39.9645L15.2757 39.9645L15.2757 40.9645L16.2757 40.9645L16.2757 39.9645ZM23.0874 43.0221C21.3554 43.0221 19.8359 42.6018 18.783 41.9745C17.7091 41.3347 17.2763 40.5921 17.2763 39.9644L15.2763 39.9645C15.2763 41.5777 16.3682 42.8639 17.7594 43.6927C19.1716 44.534 21.0577 45.0221 23.0874 45.0221L23.0874 43.0221ZM28.8984 39.9644C28.8984 40.5921 28.4656 41.3347 27.3917 41.9745C26.3388 42.6018 24.8193 43.0221 23.0874 43.0221L23.0874 45.0221C25.117 45.0221 27.0031 44.534 28.4153 43.6927C29.8065 42.8639 30.8984 41.5777 30.8984 39.9644L28.8984 39.9644ZM28.8981 39.9331C28.8983 39.9435 28.8984 39.9539 28.8984 39.9644L30.8984 39.9644C30.8984 39.9397 30.8982 39.9151 30.8976 39.8904L28.8981 39.9331ZM28.8979 37.9356L28.8979 39.9118L30.8979 39.9118L30.8979 37.9356L28.8979 37.9356ZM28.9873 38.9356L29.8979 38.9356L29.8979 36.9356L28.9873 36.9356L28.9873 38.9356ZM23.0874 36.9067C25.435 36.9067 27.3387 37.6733 28.2698 38.6322L29.7047 37.239C28.2806 35.7723 25.7819 34.9067 23.0874 34.9067L23.0874 36.9067ZM17.9049 38.6322C18.836 37.6733 20.7397 36.9067 23.0874 36.9067L23.0874 34.9067C20.3928 34.9067 17.8941 35.7723 16.47 37.239L17.9049 38.6322ZM16.2757 38.9356L17.1874 38.9356L17.1874 36.9356L16.2757 36.9356L16.2757 38.9356ZM17.2757 39.9645L17.2757 37.9356L15.2757 37.9356L15.2757 39.9645L17.2757 39.9645ZM16.2763 38.9645L16.2757 38.9645L16.2757 40.9645L16.2763 40.9645L16.2763 38.9645Z" fill="black" mask="url(#path-2-inside-1_547_14301)"/>
<path d="M23.0874 41.4933C21.2809 41.4933 19.6698 41.056 18.5271 40.3752C17.3739 39.6882 16.7763 38.8097 16.7763 37.9356C16.7763 37.0615 17.3739 36.183 18.5271 35.4959C19.6698 34.8152 21.2809 34.3779 23.0874 34.3779C24.8938 34.3779 26.5049 34.8152 27.6476 35.4959C28.8009 36.183 29.3984 37.0615 29.3984 37.9356C29.3984 38.8097 28.8009 39.6882 27.6476 40.3752C26.5049 41.056 24.8938 41.4933 23.0874 41.4933Z" fill="#FFAB90" stroke="black"/>
<mask id="path-5-inside-2_547_14301" fill="white">
<path fill-rule="evenodd" clip-rule="evenodd" d="M29.3164 37.9359L29.3164 18.8069L16.8536 18.8069L16.8536 37.7463C16.8532 37.7611 16.853 37.776 16.853 37.7909C16.853 37.8059 16.8532 37.8207 16.8536 37.8356L16.8536 37.9359L16.8588 37.9359C17.0007 39.7094 19.7337 41.124 23.0844 41.124C26.4352 41.124 29.1682 39.7094 29.3101 37.9359L29.3164 37.9359Z"/>
</mask>
<path fill-rule="evenodd" clip-rule="evenodd" d="M29.3164 37.9359L29.3164 18.8069L16.8536 18.8069L16.8536 37.7463C16.8532 37.7611 16.853 37.776 16.853 37.7909C16.853 37.8059 16.8532 37.8207 16.8536 37.8356L16.8536 37.9359L16.8588 37.9359C17.0007 39.7094 19.7337 41.124 23.0844 41.124C26.4352 41.124 29.1682 39.7094 29.3101 37.9359L29.3164 37.9359Z" fill="#FC774C"/>
<path d="M29.3164 18.8069L29.6164 18.8069L29.6164 18.5069L29.3164 18.5069L29.3164 18.8069ZM29.3164 37.9359L29.3164 38.2359L29.6164 38.2359L29.6164 37.9359L29.3164 37.9359ZM16.8536 18.8069L16.8536 18.5069L16.5536 18.5069L16.5536 18.8069L16.8536 18.8069ZM16.8536 37.7463L17.1536 37.7536L17.1536 37.7463L16.8536 37.7463ZM16.8536 37.8356L17.1537 37.8356L17.1535 37.8283L16.8536 37.8356ZM16.8536 37.9359L16.5536 37.9359L16.5536 38.2359L16.8536 38.2359L16.8536 37.9359ZM16.8588 37.9359L17.1579 37.912L17.1358 37.6359L16.8588 37.6359L16.8588 37.9359ZM29.3101 37.9359L29.3101 37.6359L29.0331 37.6359L29.011 37.912L29.3101 37.9359ZM29.0164 18.8069L29.0164 37.9359L29.6164 37.9359L29.6164 18.8069L29.0164 18.8069ZM16.8536 19.1069L29.3164 19.1069L29.3164 18.5069L16.8536 18.5069L16.8536 19.1069ZM17.1536 37.7463L17.1536 18.8069L16.5536 18.8069L16.5536 37.7463L17.1536 37.7463ZM17.153 37.7909C17.153 37.7785 17.1532 37.766 17.1535 37.7536L16.5537 37.7389C16.5532 37.7562 16.553 37.7736 16.553 37.7909L17.153 37.7909ZM17.1535 37.8283C17.1532 37.8158 17.153 37.8034 17.153 37.7909L16.553 37.7909C16.553 37.8083 16.5532 37.8257 16.5537 37.843L17.1535 37.8283ZM17.1536 37.9359L17.1536 37.8356L16.5536 37.8356L16.5536 37.9359L17.1536 37.9359ZM16.8588 37.6359L16.8536 37.6359L16.8536 38.2359L16.8588 38.2359L16.8588 37.6359ZM23.0844 40.824C21.4477 40.824 19.9755 40.478 18.9054 39.9282C17.8229 39.372 17.2165 38.6457 17.1579 37.912L16.5598 37.9598C16.6429 38.9997 17.4741 39.8674 18.6312 40.4619C19.8008 41.0628 21.3704 41.424 23.0844 41.424L23.0844 40.824ZM29.011 37.912C28.9523 38.6457 28.346 39.372 27.2635 39.9282C26.1934 40.478 24.7211 40.824 23.0844 40.824L23.0844 41.424C24.7985 41.424 26.3681 41.0628 27.5377 40.4619C28.6948 39.8674 29.5259 38.9997 29.6091 37.9598L29.011 37.912ZM29.3164 37.6359L29.3101 37.6359L29.3101 38.2359L29.3164 38.2359L29.3164 37.6359Z" fill="black" mask="url(#path-5-inside-2_547_14301)"/>
<mask id="path-7-inside-3_547_14301" fill="white">
<path fill-rule="evenodd" clip-rule="evenodd" d="M29.3164 37.9359L29.3164 18.8069L16.8536 18.8069L16.8536 37.7463C16.8532 37.7611 16.853 37.776 16.853 37.7909C16.853 37.8059 16.8532 37.8207 16.8536 37.8356L16.8536 37.9359L16.8588 37.9359C17.0007 39.7094 19.7337 41.124 23.0844 41.124C26.4352 41.124 29.1682 39.7094 29.3101 37.9359L29.3164 37.9359Z"/>
</mask>
<path fill-rule="evenodd" clip-rule="evenodd" d="M29.3164 37.9359L29.3164 18.8069L16.8536 18.8069L16.8536 37.7463C16.8532 37.7611 16.853 37.776 16.853 37.7909C16.853 37.8059 16.8532 37.8207 16.8536 37.8356L16.8536 37.9359L16.8588 37.9359C17.0007 39.7094 19.7337 41.124 23.0844 41.124C26.4352 41.124 29.1682 39.7094 29.3101 37.9359L29.3164 37.9359Z" fill="#FC774C"/>
<path d="M29.3164 18.8069L30.3164 18.8069L30.3164 17.8069L29.3164 17.8069L29.3164 18.8069ZM29.3164 37.9359L29.3164 38.9359L30.3164 38.9359L30.3164 37.9359L29.3164 37.9359ZM16.8536 18.8069L16.8536 17.8069L15.8536 17.8069L15.8536 18.8069L16.8536 18.8069ZM16.8536 37.7463L17.8533 37.7708L17.8536 37.7585L17.8536 37.7463L16.8536 37.7463ZM16.8536 37.8356L17.8536 37.8356L17.8536 37.8233L17.8533 37.8111L16.8536 37.8356ZM16.8536 37.9359L15.8536 37.9359L15.8536 38.9359L16.8536 38.9359L16.8536 37.9359ZM16.8588 37.9359L17.8556 37.8561L17.782 36.9359L16.8588 36.9359L16.8588 37.9359ZM29.3101 37.9359L29.3101 36.9359L28.3869 36.9359L28.3133 37.8561L29.3101 37.9359ZM28.3164 18.8069L28.3164 37.9359L30.3164 37.9359L30.3164 18.8069L28.3164 18.8069ZM16.8536 19.8069L29.3164 19.8069L29.3164 17.8069L16.8536 17.8069L16.8536 19.8069ZM17.8536 37.7463L17.8536 18.8069L15.8536 18.8069L15.8536 37.7463L17.8536 37.7463ZM17.853 37.7909C17.853 37.7842 17.8531 37.7775 17.8533 37.7708L15.8539 37.7217C15.8533 37.7448 15.853 37.7678 15.853 37.7909L17.853 37.7909ZM17.8533 37.8111C17.8531 37.8044 17.853 37.7977 17.853 37.7909L15.853 37.7909C15.853 37.814 15.8533 37.8371 15.8539 37.8602L17.8533 37.8111ZM17.8536 37.9359L17.8536 37.8356L15.8536 37.8356L15.8536 37.9359L17.8536 37.9359ZM16.8588 36.9359L16.8536 36.9359L16.8536 38.9359L16.8588 38.9359L16.8588 36.9359ZM23.0844 40.124C21.538 40.124 20.1792 39.7957 19.2253 39.3056C18.2297 38.7941 17.8857 38.2326 17.8556 37.8561L15.862 38.0156C15.9737 39.4127 17.0672 40.4453 18.3113 41.0845C19.597 41.7451 21.2802 42.124 23.0844 42.124L23.0844 40.124ZM28.3133 37.8561C28.2831 38.2326 27.9391 38.7941 26.9436 39.3056C25.9896 39.7957 24.6309 40.124 23.0844 40.124L23.0844 42.124C24.8887 42.124 26.5718 41.7451 27.8576 41.0845C29.1017 40.4453 30.1951 39.4127 30.3069 38.0156L28.3133 37.8561ZM29.3164 36.9359L29.3101 36.9359L29.3101 38.9359L29.3164 38.9359L29.3164 36.9359Z" fill="black" mask="url(#path-7-inside-3_547_14301)"/>
<mask id="path-9-inside-4_547_14301" fill="white">
<path fill-rule="evenodd" clip-rule="evenodd" d="M16.2763 19.3863C16.2763 21.6273 19.3257 23.4439 23.0874 23.4439C26.849 23.4439 29.8984 21.6273 29.8984 19.3863C29.8984 19.3689 29.8983 19.3515 29.8979 19.3342L29.8979 17.3573L28.9871 17.3573C27.8094 16.1445 25.6083 15.3286 23.0874 15.3286C20.5664 15.3286 18.3653 16.1445 17.1876 17.3573L16.2757 17.3573L16.2757 19.3861L16.2763 19.3861C16.2763 19.3862 16.2763 19.3862 16.2763 19.3863Z"/>
</mask>
<path fill-rule="evenodd" clip-rule="evenodd" d="M16.2763 19.3863C16.2763 21.6273 19.3257 23.4439 23.0874 23.4439C26.849 23.4439 29.8984 21.6273 29.8984 19.3863C29.8984 19.3689 29.8983 19.3515 29.8979 19.3342L29.8979 17.3573L28.9871 17.3573C27.8094 16.1445 25.6083 15.3286 23.0874 15.3286C20.5664 15.3286 18.3653 16.1445 17.1876 17.3573L16.2757 17.3573L16.2757 19.3861L16.2763 19.3861C16.2763 19.3862 16.2763 19.3862 16.2763 19.3863Z" fill="#FFAB90"/>
<path d="M29.8979 19.3342L28.8979 19.3342L28.8979 19.3448L28.8981 19.3553L29.8979 19.3342ZM29.8979 17.3573L30.8979 17.3573L30.8979 16.3573L29.8979 16.3573L29.8979 17.3573ZM28.9871 17.3573L28.2697 18.054L28.5643 18.3573L28.9871 18.3573L28.9871 17.3573ZM17.1876 17.3573L17.1876 18.3573L17.6104 18.3573L17.905 18.054L17.1876 17.3573ZM16.2757 17.3573L16.2757 16.3573L15.2757 16.3573L15.2757 17.3573L16.2757 17.3573ZM16.2757 19.3861L15.2757 19.3861L15.2757 20.3861L16.2757 20.3861L16.2757 19.3861ZM16.2763 19.3861L17.2763 19.3861L17.2763 18.3861L16.2763 18.3861L16.2763 19.3861ZM23.0874 22.4439C21.3554 22.4439 19.8359 22.0236 18.783 21.3964C17.7091 20.7566 17.2763 20.014 17.2763 19.3863L15.2763 19.3863C15.2763 20.9996 16.3682 22.2858 17.7594 23.1146C19.1716 23.9559 21.0577 24.4439 23.0874 24.4439L23.0874 22.4439ZM28.8984 19.3863C28.8984 20.014 28.4656 20.7566 27.3917 21.3964C26.3388 22.0236 24.8193 22.4439 23.0874 22.4439L23.0874 24.4439C25.117 24.4439 27.0031 23.9559 28.4153 23.1146C29.8065 22.2858 30.8984 20.9996 30.8984 19.3863L28.8984 19.3863ZM28.8981 19.3553C28.8983 19.3656 28.8984 19.3759 28.8984 19.3863L30.8984 19.3863C30.8984 19.3619 30.8982 19.3375 30.8977 19.3131L28.8981 19.3553ZM28.8979 17.3573L28.8979 19.3342L30.8979 19.3342L30.8979 17.3573L28.8979 17.3573ZM28.9871 18.3573L29.8979 18.3573L29.8979 16.3573L28.9871 16.3573L28.9871 18.3573ZM23.0874 16.3286C25.4348 16.3286 27.3385 17.095 28.2697 18.054L29.7045 16.6606C28.2803 15.194 25.7818 14.3286 23.0874 14.3286L23.0874 16.3286ZM17.905 18.054C18.8362 17.095 20.7399 16.3286 23.0874 16.3286L23.0874 14.3286C20.3929 14.3286 17.8944 15.194 16.4702 16.6606L17.905 18.054ZM16.2757 18.3573L17.1876 18.3573L17.1876 16.3573L16.2757 16.3573L16.2757 18.3573ZM17.2757 19.3861L17.2757 17.3573L15.2757 17.3573L15.2757 19.3861L17.2757 19.3861ZM16.2763 18.3861L16.2757 18.3861L16.2757 20.3861L16.2763 20.3861L16.2763 18.3861ZM17.2763 19.3863C17.2763 19.3863 17.2763 19.3862 17.2763 19.3862C17.2763 19.3862 17.2763 19.3862 17.2763 19.3861L15.2763 19.3861C15.2763 19.3862 15.2763 19.3862 15.2763 19.3862C15.2763 19.3862 15.2763 19.3863 15.2763 19.3863L17.2763 19.3863Z" fill="black" mask="url(#path-9-inside-4_547_14301)"/>
<path d="M23.0874 20.9151C21.2809 20.9151 19.6698 20.4779 18.5271 19.7971C17.3739 19.1101 16.7763 18.2316 16.7763 17.3575C16.7763 16.4834 17.3739 15.6049 18.5271 14.9178C19.6698 14.237 21.2809 13.7998 23.0874 13.7998C24.8938 13.7998 26.5049 14.237 27.6476 14.9178C28.8009 15.6049 29.3984 16.4834 29.3984 17.3575C29.3984 18.2316 28.8009 19.1101 27.6476 19.7971C26.5049 20.4779 24.8938 20.9151 23.0874 20.9151Z" fill="#FFAB90" stroke="black"/>
<path d="M17.8636 37.4774V23.4897C17.9664 23.5735 18.0829 23.6517 18.2048 23.7235C18.4379 23.8607 18.7098 23.9851 18.987 24.0859C19.4436 24.2521 19.9355 24.3617 20.3052 24.3485V38.3686C19.3955 38.4801 18.5049 38.2042 17.8636 37.4774Z" fill="#D9D9D9" stroke="black" stroke-width="0.3"/>
<path d="M17.8636 37.565V26.906C17.9677 26.981 18.0866 27.0525 18.2114 27.1195C18.442 27.2431 18.7115 27.3606 18.987 27.4608C19.4457 27.6277 19.9384 27.7531 20.3052 27.7723V38.4528C19.4015 38.4582 18.509 38.1725 17.8636 37.565Z" fill="url(#paint2_linear_547_14301)" fill-opacity="0.6" stroke="black" stroke-width="0.3"/>
<mask id="path-14-inside-5_547_14301" fill="white">
<path fill-rule="evenodd" clip-rule="evenodd" d="M20.4462 28.8937C18.8201 28.4706 17.7227 27.6684 17.7227 26.7485C17.7227 25.8285 18.8201 25.0264 20.4462 24.6033V28.8937Z"/>
</mask>
<path fill-rule="evenodd" clip-rule="evenodd" d="M20.4462 28.8937C18.8201 28.4706 17.7227 27.6684 17.7227 26.7485C17.7227 25.8285 18.8201 25.0264 20.4462 24.6033V28.8937Z" fill="#3CC17F"/>
<path d="M20.4462 28.8937L20.3707 29.184L20.7462 29.2817V28.8937H20.4462ZM20.4462 24.6033H20.7462V24.2152L20.3707 24.3129L20.4462 24.6033ZM20.5217 28.6033C19.7336 28.3983 19.0936 28.106 18.6579 27.7698C18.2197 27.4318 18.0227 27.0794 18.0227 26.7485H17.4227C17.4227 27.3375 17.7744 27.8461 18.2914 28.2449C18.8109 28.6456 19.5327 28.966 20.3707 29.184L20.5217 28.6033ZM18.0227 26.7485C18.0227 26.4175 18.2197 26.0651 18.6579 25.7271C19.0936 25.391 19.7336 25.0987 20.5217 24.8936L20.3707 24.3129C19.5327 24.531 18.8109 24.8513 18.2914 25.252C17.7744 25.6508 17.4227 26.1595 17.4227 26.7485H18.0227ZM20.1462 24.6033V28.8937H20.7462V24.6033H20.1462Z" fill="black" mask="url(#path-14-inside-5_547_14301)"/>
<path opacity="0.25" d="M24.6758 23.4441H25.5453V40.3993H24.6758V23.4441Z" fill="#FFF2EE"/>
<path opacity="0.23" d="M26.1289 23.1544L27.5781 22.5747V39.53L26.1289 40.1096V23.1544Z" fill="#FFF0EB"/>
<path d="M22.7949 28.1267C24.6393 28.819 26.3064 28.5123 28.0425 27.1403C28.3149 26.9664 28.5642 27.1664 28.5902 27.5896C28.5922 27.5934 28.5931 27.5954 28.5931 27.5954C28.6192 28.0272 28.4076 28.5518 28.1294 28.7373C26.3719 29.9583 24.52 30.2557 22.5907 29.7112C22.2835 29.6068 22.0487 29.1431 22.0719 28.7083C22.098 28.2852 22.5051 28.0426 22.7949 28.1267Z" fill="#CEABFF" stroke="black" stroke-width="0.5"/>
<path d="M22.7949 30.7351C24.6393 31.4274 26.3064 31.1207 28.0425 29.7487C28.3149 29.5748 28.5642 29.7748 28.5902 30.198C28.5922 30.2018 28.5931 30.2038 28.5931 30.2038C28.6192 30.6356 28.4076 31.1602 28.1294 31.3457C26.3719 32.5667 24.52 32.8641 22.5907 32.3196C22.2835 32.2152 22.0487 31.7515 22.0719 31.3167C22.098 30.8936 22.5051 30.651 22.7949 30.7351Z" fill="#CEABFF" stroke="black" stroke-width="0.5"/>
<mask id="path-20-inside-6_547_14301" fill="white">
<path fill-rule="evenodd" clip-rule="evenodd" d="M39.6298 24.0799L37.9848 25.2673L38.5182 26.0063C38.2241 27.671 38.8508 29.9332 40.3262 31.9773C41.8016 34.0214 43.7514 35.3286 45.424 35.5737L45.9574 36.3127L47.5904 35.134C47.5945 35.1311 47.5985 35.1281 47.6026 35.1252C49.4197 33.8136 49.108 30.2778 46.9064 27.2277C44.7048 24.1776 41.4471 22.7682 39.63 24.0798C39.6299 24.0798 39.6299 24.0799 39.6298 24.0799L39.6298 24.0799Z"/>
</mask>
<path fill-rule="evenodd" clip-rule="evenodd" d="M39.6298 24.0799L37.9848 25.2673L38.5182 26.0063C38.2241 27.671 38.8508 29.9332 40.3262 31.9773C41.8016 34.0214 43.7514 35.3286 45.424 35.5737L45.9574 36.3127L47.5904 35.134C47.5945 35.1311 47.5985 35.1281 47.6026 35.1252C49.4197 33.8136 49.108 30.2778 46.9064 27.2277C44.7048 24.1776 41.4471 22.7682 39.63 24.0798C39.6299 24.0798 39.6299 24.0799 39.6298 24.0799L39.6298 24.0799Z" fill="#FFAB90"/>
<path d="M37.9848 25.2673L37.3995 24.4564L36.5886 25.0417L37.1739 25.8526L37.9848 25.2673ZM39.6298 24.0799L40.4407 23.4946L39.8554 22.6838L39.0445 23.269L39.6298 24.0799ZM38.5182 26.0063L39.5029 26.1803L39.5765 25.7639L39.329 25.421L38.5182 26.0063ZM45.424 35.5737L46.2348 34.9885L45.9874 34.6456L45.569 34.5843L45.424 35.5737ZM45.9574 36.3127L45.1465 36.8979L45.7318 37.7088L46.5426 37.1235L45.9574 36.3127ZM47.5904 35.134L47.0101 34.3196L47.0051 34.3231L47.5904 35.134ZM39.6298 24.0799L38.819 24.6652L39.4043 25.4761L40.2152 24.8907L39.6298 24.0799ZM38.57 26.0781L40.2151 24.8907L39.0445 23.269L37.3995 24.4564L38.57 26.0781ZM39.329 25.421L38.7956 24.682L37.1739 25.8526L37.7073 26.5916L39.329 25.421ZM41.137 31.3921C39.7631 29.4886 39.2704 27.4965 39.5029 26.1803L37.5334 25.8324C37.1778 27.8455 37.9384 30.3779 39.5153 32.5626L41.137 31.3921ZM45.569 34.5843C44.2465 34.3905 42.5109 33.2955 41.137 31.3921L39.5153 32.5626C41.0923 34.7473 43.2563 36.2667 45.279 36.5632L45.569 34.5843ZM46.7682 35.7274L46.2348 34.9885L44.6132 36.159L45.1465 36.8979L46.7682 35.7274ZM47.0051 34.3231L45.3721 35.5018L46.5426 37.1235L48.1757 35.9448L47.0051 34.3231ZM47.0173 34.3144C47.0149 34.3161 47.0125 34.3178 47.0101 34.3196L48.1707 35.9484C48.1764 35.9443 48.1822 35.9402 48.1879 35.936L47.0173 34.3144ZM46.0956 27.813C47.1093 29.2173 47.6577 30.6954 47.7654 31.9162C47.8751 33.1614 47.5263 33.947 47.0173 34.3144L48.1879 35.936C49.496 34.9918 49.8998 33.3537 49.7576 31.7406C49.6133 30.1031 48.9052 28.2882 47.7173 26.6424L46.0956 27.813ZM40.2153 24.8906C40.7242 24.5233 41.5797 24.4396 42.727 24.9359C43.8518 25.4225 45.0819 26.4086 46.0956 27.813L47.7173 26.6424C46.5294 24.9967 45.0298 23.753 43.5211 23.1003C42.0348 22.4573 40.3528 22.3248 39.0447 23.269L40.2153 24.8906ZM40.2152 24.8907C40.2152 24.8907 40.2152 24.8907 40.2153 24.8906L39.0447 23.269C39.0447 23.269 39.0446 23.2691 39.0445 23.2691L40.2152 24.8907ZM38.819 24.6651L38.819 24.6652L40.4407 23.4946L40.4407 23.4946L38.819 24.6651Z" fill="black" mask="url(#path-20-inside-6_547_14301)"/>
<path d="M44.8564 28.7078C45.9137 30.1725 46.5021 31.7348 46.6189 33.0598C46.7368 34.397 46.3742 35.3957 45.6654 35.9072C44.9567 36.4188 43.8946 36.4485 42.6625 35.9155C41.4417 35.3873 40.1443 34.3369 39.087 32.8722C38.0298 31.4074 37.4414 29.8452 37.3246 28.5202C37.2067 27.183 37.5693 26.1843 38.2781 25.6727C38.9868 25.1611 40.0489 25.1315 41.2809 25.6645C42.5017 26.1926 43.7992 27.2431 44.8564 28.7078Z" fill="#FFAB90" stroke="black"/>
<mask id="path-23-inside-7_547_14301" fill="white">
<path fill-rule="evenodd" clip-rule="evenodd" d="M38.327 25.737L22.8164 36.9326L30.1105 47.038L45.4693 35.9519C45.481 35.9439 45.4926 35.9358 45.5041 35.9275C45.5156 35.9191 45.527 35.9107 45.5383 35.9022L45.6211 35.8424L45.618 35.8381C46.9733 34.6852 46.5208 31.6411 44.5596 28.924C42.5984 26.207 39.8517 24.8188 38.3306 25.7421L38.327 25.737Z"/>
</mask>
<path fill-rule="evenodd" clip-rule="evenodd" d="M38.327 25.737L22.8164 36.9326L30.1105 47.038L45.4693 35.9519C45.481 35.9439 45.4926 35.9358 45.5041 35.9275C45.5156 35.9191 45.527 35.9107 45.5383 35.9022L45.6211 35.8424L45.618 35.8381C46.9733 34.6852 46.5208 31.6411 44.5596 28.924C42.5984 26.207 39.8517 24.8188 38.3306 25.7421L38.327 25.737Z" fill="#FC774C"/>
<path d="M22.8164 36.9326L22.6408 36.6894L22.3976 36.8649L22.5732 37.1082L22.8164 36.9326ZM38.327 25.737L38.5702 25.5615L38.3946 25.3182L38.1514 25.4938L38.327 25.737ZM30.1105 47.038L29.8672 47.2136L30.0428 47.4568L30.2861 47.2812L30.1105 47.038ZM45.4693 35.9519L45.2994 35.7046L45.2937 35.7087L45.4693 35.9519ZM45.5383 35.9022L45.3626 35.6588L45.357 35.6631L45.5383 35.9022ZM45.6211 35.8424L45.7966 36.0856L46.0399 35.9101L45.8643 35.6668L45.6211 35.8424ZM45.618 35.8381L45.4236 35.6096L45.2126 35.7891L45.3747 36.0137L45.618 35.8381ZM38.3306 25.7421L38.0874 25.9177L38.2495 26.1423L38.4863 25.9986L38.3306 25.7421ZM22.992 37.1759L38.5025 25.9803L38.1514 25.4938L22.6408 36.6894L22.992 37.1759ZM30.3538 46.8624L23.0597 36.757L22.5732 37.1082L29.8672 47.2136L30.3538 46.8624ZM45.2937 35.7087L29.9349 46.7947L30.2861 47.2812L45.6449 36.1952L45.2937 35.7087ZM45.3285 35.6842C45.3189 35.6911 45.3092 35.698 45.2994 35.7047L45.6391 36.1992C45.6527 36.1899 45.6662 36.1804 45.6796 36.1707L45.3285 35.6842ZM45.357 35.6631C45.3476 35.6702 45.3381 35.6773 45.3285 35.6842L45.6796 36.1707C45.6931 36.161 45.7063 36.1512 45.7195 36.1412L45.357 35.6631ZM45.4455 35.5991L45.3627 35.6589L45.7138 36.1454L45.7966 36.0856L45.4455 35.5991ZM45.3747 36.0137L45.3778 36.018L45.8643 35.6668L45.8612 35.6625L45.3747 36.0137ZM44.3164 29.0996C45.2743 30.4268 45.8554 31.8232 46.0359 33.0126C46.2184 34.216 45.9843 35.1327 45.4236 35.6096L45.8124 36.0666C46.607 35.3907 46.8242 34.2089 46.6291 32.9226C46.4318 31.6225 45.8061 30.1383 44.8029 28.7484L44.3164 29.0996ZM38.4863 25.9986C39.1155 25.6166 40.0593 25.683 41.144 26.2353C42.2161 26.7811 43.3584 27.7724 44.3164 29.0996L44.8029 28.7484C43.7996 27.3586 42.588 26.2972 41.4162 25.7006C40.2569 25.1103 39.0668 24.9443 38.175 25.4857L38.4863 25.9986ZM38.0837 25.9126L38.0874 25.9177L38.5739 25.5665L38.5702 25.5615L38.0837 25.9126Z" fill="black" mask="url(#path-23-inside-7_547_14301)"/>
<mask id="path-25-inside-8_547_14301" fill="white">
<path fill-rule="evenodd" clip-rule="evenodd" d="M38.327 25.737L22.8164 36.9326L30.1105 47.038L45.4693 35.9519C45.481 35.9439 45.4926 35.9358 45.5041 35.9275C45.5156 35.9191 45.527 35.9107 45.5383 35.9022L45.6211 35.8424L45.618 35.8381C46.9733 34.6852 46.5208 31.6411 44.5596 28.924C42.5984 26.207 39.8517 24.8188 38.3306 25.7421L38.327 25.737Z"/>
</mask>
<path fill-rule="evenodd" clip-rule="evenodd" d="M38.327 25.737L22.8164 36.9326L30.1105 47.038L45.4693 35.9519C45.481 35.9439 45.4926 35.9358 45.5041 35.9275C45.5156 35.9191 45.527 35.9107 45.5383 35.9022L45.6211 35.8424L45.618 35.8381C46.9733 34.6852 46.5208 31.6411 44.5596 28.924C42.5984 26.207 39.8517 24.8188 38.3306 25.7421L38.327 25.737Z" fill="#FC774C"/>
<path d="M22.8164 36.9326L22.2311 36.1218L21.4203 36.707L22.0056 37.5179L22.8164 36.9326ZM38.327 25.737L39.1378 25.1518L38.5525 24.3409L37.7417 24.9262L38.327 25.737ZM30.1105 47.038L29.2997 47.6232L29.8849 48.4341L30.6958 47.8488L30.1105 47.038ZM45.4693 35.9519L44.9031 35.1276L44.8935 35.1343L44.884 35.1411L45.4693 35.9519ZM45.5383 35.9022L44.953 35.0913L44.9435 35.0982L44.9342 35.1052L45.5383 35.9022ZM45.6211 35.8424L46.2063 36.6532L47.0172 36.068L46.4319 35.2571L45.6211 35.8424ZM45.618 35.8381L44.97 35.0764L44.2667 35.6747L44.8071 36.4234L45.618 35.8381ZM38.3306 25.7421L37.5198 26.3274L38.0602 27.0761L38.8495 26.5969L38.3306 25.7421ZM23.4017 37.7435L38.9122 26.5479L37.7417 24.9262L22.2311 36.1218L23.4017 37.7435ZM30.9213 46.4527L23.6272 36.3473L22.0056 37.5179L29.2997 47.6232L30.9213 46.4527ZM44.884 35.1411L29.5252 46.2271L30.6958 47.8488L46.0546 36.7628L44.884 35.1411ZM44.9188 35.1166C44.9136 35.1204 44.9084 35.124 44.9031 35.1276L46.0354 36.7762C46.0535 36.7638 46.0715 36.7512 46.0893 36.7383L44.9188 35.1166ZM44.9342 35.1052C44.9291 35.1091 44.924 35.1129 44.9188 35.1166L46.0893 36.7383C46.1072 36.7254 46.1248 36.7124 46.1423 36.6991L44.9342 35.1052ZM45.0358 35.0316L44.953 35.0913L46.1235 36.713L46.2063 36.6532L45.0358 35.0316ZM44.8071 36.4234L44.8102 36.4277L46.4319 35.2571L46.4288 35.2529L44.8071 36.4234ZM43.7488 29.5093C44.6539 30.7633 45.1829 32.0573 45.3438 33.1176C45.5117 34.2243 45.2577 34.8317 44.97 35.0764L46.2659 36.5998C47.3336 35.6916 47.531 34.2006 47.3212 32.8176C47.1043 31.3884 46.4265 29.8018 45.3705 28.3388L43.7488 29.5093ZM38.8495 26.5969C39.1724 26.401 39.8289 26.3512 40.8263 26.8591C41.7821 27.3457 42.8436 28.2553 43.7488 29.5093L45.3705 28.3388C44.3144 26.8757 43.022 25.7327 41.7338 25.0768C40.4873 24.4421 39.0099 24.1599 37.8117 24.8873L38.8495 26.5969ZM37.5161 26.3223L37.5198 26.3274L39.1415 25.1568L39.1378 25.1518L37.5161 26.3223Z" fill="black" mask="url(#path-25-inside-8_547_14301)"/>
<mask id="path-27-inside-9_547_14301" fill="white">
<path fill-rule="evenodd" clip-rule="evenodd" d="M22.9499 36.1235L21.3049 37.3109L21.8384 38.0501C21.5445 39.7147 22.1711 41.9768 23.6465 44.0208C25.1218 46.0647 27.0714 47.3718 28.744 47.6171L29.2775 48.3563L30.9154 47.174C30.9179 47.1722 30.9204 47.1704 30.9229 47.1686C32.74 45.8571 32.4283 42.3212 30.2267 39.2711C28.0251 36.221 24.7674 34.8117 22.9503 36.1232C22.9502 36.1233 22.9501 36.1234 22.95 36.1235L22.9499 36.1235Z"/>
</mask>
<path fill-rule="evenodd" clip-rule="evenodd" d="M22.9499 36.1235L21.3049 37.3109L21.8384 38.0501C21.5445 39.7147 22.1711 41.9768 23.6465 44.0208C25.1218 46.0647 27.0714 47.3718 28.744 47.6171L29.2775 48.3563L30.9154 47.174C30.9179 47.1722 30.9204 47.1704 30.9229 47.1686C32.74 45.8571 32.4283 42.3212 30.2267 39.2711C28.0251 36.221 24.7674 34.8117 22.9503 36.1232C22.9502 36.1233 22.9501 36.1234 22.95 36.1235L22.9499 36.1235Z" fill="#FFAB90"/>
<path d="M21.3049 37.3109L21.1293 37.0676L20.886 37.2432L21.0616 37.4865L21.3049 37.3109ZM22.9499 36.1235L23.1932 35.9479L23.0176 35.7046L22.7744 35.8802L22.9499 36.1235ZM21.8384 38.0501L22.1339 38.1022L22.1559 37.9773L22.0817 37.8745L21.8384 38.0501ZM28.744 47.6171L28.9872 47.4415L28.913 47.3387L28.7875 47.3203L28.744 47.6171ZM29.2775 48.3563L29.0342 48.5319L29.2098 48.7751L29.4531 48.5995L29.2775 48.3563ZM30.9154 47.174L30.7407 46.9301L30.7398 46.9308L30.9154 47.174ZM22.95 36.1235L22.7067 36.2991L22.8823 36.5424L23.1256 36.3667L22.95 36.1235ZM21.4805 37.5541L23.1255 36.3667L22.7744 35.8802L21.1293 37.0676L21.4805 37.5541ZM22.0817 37.8745L21.5481 37.1353L21.0616 37.4865L21.5952 38.2256L22.0817 37.8745ZM23.8897 43.8452C22.4449 41.8434 21.8584 39.6624 22.1339 38.1022L21.543 37.9979C21.2306 39.7671 21.8974 42.1102 23.4032 44.1963L23.8897 43.8452ZM28.7875 47.3203C27.22 47.0904 25.3346 45.8469 23.8897 43.8452L23.4032 44.1963C24.909 46.2825 26.9229 47.6533 28.7004 47.9139L28.7875 47.3203ZM29.5207 48.1807L28.9872 47.4415L28.5007 47.7927L29.0342 48.5319L29.5207 48.1807ZM30.7398 46.9308L29.1019 48.113L29.4531 48.5995L31.091 47.4173L30.7398 46.9308ZM30.7473 46.9254C30.7451 46.927 30.7429 46.9285 30.7407 46.9301L31.0901 47.4179C31.0929 47.4159 31.0957 47.4139 31.0985 47.4119L30.7473 46.9254ZM29.9835 39.4467C31.0581 40.9355 31.6625 42.5315 31.783 43.8982C31.9041 45.2722 31.536 46.3561 30.7473 46.9254L31.0985 47.4119C32.1269 46.6696 32.5115 45.3298 32.3806 43.8455C32.2491 42.3538 31.5969 40.6568 30.47 39.0955L29.9835 39.4467ZM23.1259 36.3665C23.9145 35.7972 25.0593 35.7892 26.3252 36.3369C27.5844 36.8816 28.9088 37.9579 29.9835 39.4467L30.47 39.0955C29.343 37.5343 27.9378 36.3808 26.5634 35.7862C25.1958 35.1946 23.8031 35.1377 22.7747 35.88L23.1259 36.3665ZM23.1256 36.3667C23.1257 36.3666 23.1258 36.3666 23.1259 36.3665L22.7747 35.88C22.7746 35.8801 22.7745 35.8802 22.7743 35.8803L23.1256 36.3667ZM22.7067 36.299L22.7067 36.2991L23.1932 35.9479L23.1932 35.9479L22.7067 36.299Z" fill="black" mask="url(#path-27-inside-9_547_14301)"/>
<path d="M28.1728 40.7512C29.2301 42.2159 29.8185 43.7782 29.9353 45.1032C30.0532 46.4404 29.6906 47.4391 28.9818 47.9507C28.2731 48.4623 27.211 48.4919 25.9789 47.9589C24.7581 47.4308 23.4607 46.3803 22.4034 44.9156C21.3462 43.4509 20.7578 41.8886 20.641 40.5636C20.5231 39.2264 20.8857 38.2277 21.5945 37.7161C22.3032 37.2046 23.3653 37.1749 24.5973 37.7079C25.8181 38.2361 27.1156 39.2865 28.1728 40.7512Z" fill="#FFAB90" stroke="black"/>
<path d="M44.6572 35.2914L33.3153 43.478C33.3231 43.3456 33.3184 43.2053 33.3052 43.0645C33.2801 42.7952 33.2218 42.502 33.1414 42.2182C33.0088 41.7506 32.8099 41.2877 32.5827 40.9956L43.9508 32.79C44.5736 33.4625 44.8712 34.3461 44.6572 35.2914Z" fill="#D9D9D9" stroke="black" stroke-width="0.3"/>
<path d="M44.6605 35.2909L33.327 43.4715C33.3348 43.3391 33.33 43.1988 33.3168 43.058C33.2916 42.7887 33.2334 42.4955 33.1529 42.2117C33.0204 41.7442 32.8214 41.2812 32.5944 40.989L43.9541 32.7896C44.5766 33.4622 44.8741 34.3458 44.6605 35.2909Z" fill="url(#paint3_linear_547_14301)" fill-opacity="0.6" stroke="black" stroke-width="0.3"/>
<path opacity="0.25" d="M29.293 37.9788L28.7841 37.2737L42.5321 27.3504L43.041 28.0554L29.293 37.9788Z" fill="#FFF2EE"/>
<path opacity="0.23" d="M28.2083 36.9735L26.8901 36.1377L40.6381 26.2143L41.9563 27.0501L28.2083 36.9735Z" fill="#FFF0EB"/>
<path d="M33.3601 37.3657C32.842 35.4649 31.6176 34.2927 29.4891 33.688C29.1887 33.5689 29.2049 33.2497 29.5328 32.9809C29.5348 32.9771 29.5358 32.9751 29.5358 32.9751C29.8707 32.7012 30.4199 32.5658 30.7331 32.6828C32.7518 33.3933 34.0768 34.7208 34.7644 36.6039C34.8596 36.914 34.621 37.3758 34.2549 37.6115C33.8965 37.838 33.4616 37.6499 33.3601 37.3657Z" fill="#CEABFF" stroke="black" stroke-width="0.5"/>
<path d="M35.7703 35.2585C35.2522 33.3578 34.0278 32.1855 31.8993 31.5808C31.5988 31.4617 31.6151 31.1425 31.943 30.8737C31.945 30.8699 31.946 30.868 31.946 30.868C32.2809 30.5941 32.83 30.4586 33.1433 30.5756C35.1619 31.2861 36.487 32.6136 37.1746 34.4967C37.2698 34.8069 37.0311 35.2686 36.6651 35.5043C36.3067 35.7308 35.8717 35.5427 35.7703 35.2585Z" fill="#CEABFF" stroke="black" stroke-width="0.5"/>
<defs>
<linearGradient id="paint0_linear_547_14301" x1="2" y1="2" x2="59" y2="59" gradientUnits="userSpaceOnUse">
<stop offset="0.143901" stop-color="#FCB096"/>
<stop offset="0.947576" stop-color="#B27AFF"/>
</linearGradient>
<linearGradient id="paint1_linear_547_14301" x1="2" y1="2" x2="59" y2="59" gradientUnits="userSpaceOnUse">
<stop stop-color="white" stop-opacity="0"/>
<stop offset="1" stop-color="white" stop-opacity="0.6"/>
</linearGradient>
<linearGradient id="paint2_linear_547_14301" x1="19.0844" y1="27.1175" x2="15.4505" y2="37.1016" gradientUnits="userSpaceOnUse">
<stop offset="0.285" stop-color="#36FF9B"/>
<stop offset="0.75" stop-color="#74BDCD"/>
<stop offset="1" stop-color="#B27AFF"/>
</linearGradient>
<linearGradient id="paint3_linear_547_14301" x1="32.7611" y1="42.3743" x2="46.088" y2="38.5977" gradientUnits="userSpaceOnUse">
<stop offset="0.285" stop-color="#36FF9B"/>
<stop offset="0.75" stop-color="#74BDCD"/>
<stop offset="1" stop-color="#B27AFF"/>
</linearGradient>
</defs>
</svg>
