<svg width="61" height="61" viewBox="0 0 61 61" fill="none" xmlns="http://www.w3.org/2000/svg">
<circle cx="30.5" cy="30.5" r="28.5" fill="url(#paint0_linear_547_14275)" stroke="url(#paint1_linear_547_14275)" stroke-width="4"/>
<ellipse opacity="0.3" cx="33.9354" cy="43.8269" rx="13.6697" ry="2.78029" fill="#84869B"/>
<path d="M35.255 14.7209C36.3109 12.7189 38.9607 12.2305 40.661 13.7245L46.266 18.6494C47.9663 20.1434 47.8228 22.834 45.9733 24.1386L42.9611 26.2635C41.6386 27.1964 39.8491 27.101 38.6334 26.0328L34.3208 22.2436C33.1051 21.1753 32.7803 19.4129 33.5353 17.9815L35.255 14.7209Z" fill="#FFAB90" stroke="black"/>
<path d="M36.7463 18.1944C37.9531 15.9064 40.9814 15.3483 42.9246 17.0557L44.6556 18.5766C46.5987 20.284 46.4348 23.3589 44.321 24.85L44.16 24.9636C42.6486 26.0298 40.6034 25.9207 39.214 24.6999L37.5522 23.2397C36.1628 22.0189 35.7915 20.0047 36.6544 18.3688L36.7463 18.1944Z" fill="#E08B70"/>
<mask id="path-5-inside-1_547_14275" fill="white">
<path fill-rule="evenodd" clip-rule="evenodd" d="M35.1148 13.9945C33.7678 12.8121 31.7172 12.9455 30.5348 14.2925C29.7289 15.2106 29.5343 16.4555 29.9185 17.5297L29.8815 17.4972L18.3739 30.6067C14.9744 34.4794 15.358 40.3747 19.2307 43.7742C23.1034 47.1737 28.9987 46.79 32.3982 42.9173L43.9058 29.8078L43.8681 29.7747C44.983 30.0166 46.1922 29.6622 46.9981 28.7441C48.1805 27.3971 48.0471 25.3466 46.7001 24.1641L35.1148 13.9945Z"/>
</mask>
<path fill-rule="evenodd" clip-rule="evenodd" d="M35.1148 13.9945C33.7678 12.8121 31.7172 12.9455 30.5348 14.2925C29.7289 15.2106 29.5343 16.4555 29.9185 17.5297L29.8815 17.4972L18.3739 30.6067C14.9744 34.4794 15.358 40.3747 19.2307 43.7742C23.1034 47.1737 28.9987 46.79 32.3982 42.9173L43.9058 29.8078L43.8681 29.7747C44.983 30.0166 46.1922 29.6622 46.9981 28.7441C48.1805 27.3971 48.0471 25.3466 46.7001 24.1641L35.1148 13.9945Z" fill="white" fill-opacity="0.4"/>
<path d="M35.1148 13.9945L33.7954 15.4976L35.1148 13.9945ZM29.9185 17.5297L28.5991 19.0327L34.403 24.1274L31.8016 16.856L29.9185 17.5297ZM29.8815 17.4972L31.2009 15.9941L29.6979 14.6747L28.3785 16.1778L29.8815 17.4972ZM43.9058 29.8078L45.4089 31.1272L46.7283 29.6242L45.2252 28.3048L43.9058 29.8078ZM43.8681 29.7747L44.2921 27.8202L36.7449 26.1831L42.5488 31.2778L43.8681 29.7747ZM46.7001 24.1641L48.0195 22.6611L46.7001 24.1641ZM32.0379 15.6119C32.4916 15.095 33.2785 15.0438 33.7954 15.4976L36.4342 12.4914C34.257 10.5803 30.9429 10.796 29.0317 12.9731L32.0379 15.6119ZM31.8016 16.856C31.6522 16.4382 31.7304 15.9622 32.0379 15.6119L29.0317 12.9731C27.7274 14.459 27.4163 16.4729 28.0354 18.2033L31.8016 16.856ZM31.2379 16.0266L31.2009 15.9941L28.5621 19.0003L28.5991 19.0327L31.2379 16.0266ZM28.3785 16.1778L16.8708 29.2873L19.877 31.9261L31.3846 18.8166L28.3785 16.1778ZM16.8708 29.2873C12.7427 33.9901 13.2085 41.1491 17.9113 45.2772L20.5501 42.2711C17.5076 39.6003 17.2062 34.9687 19.877 31.9261L16.8708 29.2873ZM17.9113 45.2772C22.6142 49.4054 29.7731 48.9396 33.9013 44.2367L30.8951 41.5979C28.2243 44.6405 23.5927 44.9419 20.5501 42.2711L17.9113 45.2772ZM33.9013 44.2367L45.4089 31.1272L42.4028 28.4884L30.8951 41.5979L33.9013 44.2367ZM45.2252 28.3048L45.1875 28.2717L42.5488 31.2778L42.5864 31.3109L45.2252 28.3048ZM45.4951 27.4247C45.1875 27.7751 44.7257 27.9142 44.2921 27.8202L43.4442 31.7293C45.2403 32.1189 47.1969 31.5494 48.5012 30.0635L45.4951 27.4247ZM45.3807 25.6672C45.8976 26.1209 45.9488 26.9078 45.4951 27.4247L48.5012 30.0635C50.4123 27.8864 50.1966 24.5722 48.0195 22.6611L45.3807 25.6672ZM33.7954 15.4976L45.3807 25.6672L48.0195 22.6611L36.4342 12.4914L33.7954 15.4976Z" fill="black" mask="url(#path-5-inside-1_547_14275)"/>
<g opacity="0.45">
<mask id="path-7-inside-2_547_14275" fill="white">
<path fill-rule="evenodd" clip-rule="evenodd" d="M22.4376 30.3889C21.862 30.3889 21.3143 30.6369 20.9345 31.0695L19.8624 32.2909C17.3092 35.1995 17.5973 39.6271 20.5059 42.1803C23.4144 44.7334 27.842 44.4453 30.3952 41.5367L38.7297 32.042C39.0926 31.6286 39.0517 30.9993 38.6383 30.6364C38.4565 30.4769 38.223 30.3889 37.9812 30.3889H22.4376Z"/>
</mask>
<path fill-rule="evenodd" clip-rule="evenodd" d="M22.4376 30.3889C21.862 30.3889 21.3143 30.6369 20.9345 31.0695L19.8624 32.2909C17.3092 35.1995 17.5973 39.6271 20.5059 42.1803C23.4144 44.7334 27.842 44.4453 30.3952 41.5367L38.7297 32.042C39.0926 31.6286 39.0517 30.9993 38.6383 30.6364C38.4565 30.4769 38.223 30.3889 37.9812 30.3889H22.4376Z" fill="url(#paint2_linear_547_14275)"/>
<path d="M19.8624 32.2909L19.1108 31.6313L19.8624 32.2909ZM20.5059 42.1803L21.1656 41.4287L20.5059 42.1803ZM30.3952 41.5367L29.6436 40.877L30.3952 41.5367ZM38.7297 32.042L37.9782 31.3823L38.7297 32.042ZM20.183 30.4098L19.1108 31.6313L20.6139 32.9506L21.6861 31.7292L20.183 30.4098ZM19.1108 31.6313C16.1933 34.9549 16.5226 40.0143 19.8462 42.9318L21.1656 41.4287C18.6721 39.2399 18.4251 35.4441 20.6139 32.9506L19.1108 31.6313ZM19.8462 42.9318C23.1698 45.8493 28.2292 45.5201 31.1467 42.1964L29.6436 40.877C27.4548 43.3705 23.6591 43.6175 21.1656 41.4287L19.8462 42.9318ZM31.1467 42.1964L39.4813 32.7017L37.9782 31.3823L29.6436 40.877L31.1467 42.1964ZM37.9812 29.3889H22.4376V31.3889H37.9812V29.3889ZM39.4813 32.7017C40.2085 31.8732 40.1264 30.6121 39.298 29.8849L37.9786 31.3879C37.9793 31.3886 37.9793 31.3887 37.9788 31.388C37.9784 31.3875 37.978 31.3868 37.9776 31.3861C37.9771 31.385 37.9772 31.3847 37.9772 31.3852C37.9772 31.3857 37.9771 31.3854 37.9775 31.3842C37.9777 31.3835 37.9781 31.3828 37.9784 31.3821C37.9788 31.3815 37.9789 31.3815 37.9782 31.3823L39.4813 32.7017ZM39.298 29.8849C38.9338 29.5652 38.4658 29.3889 37.9812 29.3889V31.3889C37.9802 31.3889 37.9793 31.3886 37.9786 31.3879L39.298 29.8849ZM21.6861 31.7292C21.8759 31.5129 22.1498 31.3889 22.4376 31.3889V29.3889C21.5742 29.3889 20.7526 29.7609 20.183 30.4098L21.6861 31.7292Z" fill="black" mask="url(#path-7-inside-2_547_14275)"/>
</g>
<path opacity="0.53" fill-rule="evenodd" clip-rule="evenodd" d="M23.6239 33.1689C23.0483 33.1689 22.5006 33.417 22.1208 33.8495L21.5177 34.5366C19.6818 36.6281 19.889 39.8118 21.9804 41.6477C24.0719 43.4835 27.2556 43.2764 29.0914 41.1849L35.0838 34.3584C35.3449 34.061 35.3154 33.6081 35.018 33.347C34.8872 33.2322 34.7192 33.1689 34.5452 33.1689H23.6239Z" fill="url(#paint3_linear_547_14275)"/>
<path opacity="0.49" d="M31.692 25.2915L28.2167 22.0479L19.6442 31.3155C18.0995 32.9373 16.2151 36.598 21.0343 38.2662C20.8489 36.7834 22.1927 35.3314 22.8878 34.7908L31.692 25.2915Z" fill="white" stroke="white"/>
<defs>
<linearGradient id="paint0_linear_547_14275" x1="2" y1="2" x2="59" y2="59" gradientUnits="userSpaceOnUse">
<stop offset="0.143901" stop-color="#FCB096"/>
<stop offset="0.947576" stop-color="#B27AFF"/>
</linearGradient>
<linearGradient id="paint1_linear_547_14275" x1="2" y1="2" x2="59" y2="59" gradientUnits="userSpaceOnUse">
<stop stop-color="white" stop-opacity="0"/>
<stop offset="1" stop-color="white" stop-opacity="0.6"/>
</linearGradient>
<linearGradient id="paint2_linear_547_14275" x1="28.7299" y1="31.3157" x2="28.7299" y2="43.9217" gradientUnits="userSpaceOnUse">
<stop offset="0.455" stop-color="#7AFCBB"/>
<stop offset="1" stop-color="#B27AFF"/>
</linearGradient>
<linearGradient id="paint3_linear_547_14275" x1="27.8937" y1="33.8353" x2="27.8937" y2="42.8997" gradientUnits="userSpaceOnUse">
<stop offset="0.455" stop-color="#7AFCBB"/>
<stop offset="1" stop-color="#B27AFF"/>
</linearGradient>
</defs>
</svg>
