<svg width="179" height="91" viewBox="0 0 179 91" fill="none" xmlns="http://www.w3.org/2000/svg">
<g filter="url(#filter0_d_547_10352)">
<path d="M175 16C175 7.16345 167.837 0 159 0H18.419C9.16046 0 2.45174 8.82627 4.92972 17.747L16.7451 60.2823C18.6687 67.2074 24.974 72 32.1614 72H164V81L175 80V64.5V16Z" fill="url(#paint0_linear_547_10352)"/>
</g>
<g filter="url(#filter1_i_547_10352)">
<path fill-rule="evenodd" clip-rule="evenodd" d="M167 71.993L167 71.9925L164 71.9925L164 84.7627L164 87.4115L164 90.5L170.544 87.167C173.185 85.8601 175 83.1386 175 79.993C175 75.5747 171.418 71.993 167 71.993Z" fill="#5B5B5B"/>
</g>
<defs>
<filter id="filter0_d_547_10352" x="0.410156" y="0" width="178.59" height="89" filterUnits="userSpaceOnUse" color-interpolation-filters="sRGB">
<feFlood flood-opacity="0" result="BackgroundImageFix"/>
<feColorMatrix in="SourceAlpha" type="matrix" values="0 0 0 0 0 0 0 0 0 0 0 0 0 0 0 0 0 0 127 0" result="hardAlpha"/>
<feOffset dy="4"/>
<feGaussianBlur stdDeviation="2"/>
<feComposite in2="hardAlpha" operator="out"/>
<feColorMatrix type="matrix" values="0 0 0 0 0 0 0 0 0 0 0 0 0 0 0 0 0 0 0.25 0"/>
<feBlend mode="normal" in2="BackgroundImageFix" result="effect1_dropShadow_547_10352"/>
<feBlend mode="normal" in="SourceGraphic" in2="effect1_dropShadow_547_10352" result="shape"/>
</filter>
<filter id="filter1_i_547_10352" x="164" y="71.9924" width="11" height="22.5076" filterUnits="userSpaceOnUse" color-interpolation-filters="sRGB">
<feFlood flood-opacity="0" result="BackgroundImageFix"/>
<feBlend mode="normal" in="SourceGraphic" in2="BackgroundImageFix" result="shape"/>
<feColorMatrix in="SourceAlpha" type="matrix" values="0 0 0 0 0 0 0 0 0 0 0 0 0 0 0 0 0 0 127 0" result="hardAlpha"/>
<feOffset dy="4"/>
<feGaussianBlur stdDeviation="4"/>
<feComposite in2="hardAlpha" operator="arithmetic" k2="-1" k3="1"/>
<feColorMatrix type="matrix" values="0 0 0 0 0.0798991 0 0 0 0 0.0681443 0 0 0 0 0.0672731 0 0 0 1 0"/>
<feBlend mode="normal" in2="shape" result="effect1_innerShadow_547_10352"/>
</filter>
<linearGradient id="paint0_linear_547_10352" x1="175" y1="89" x2="-1.79031e-05" y2="2.22952e-05" gradientUnits="userSpaceOnUse">
<stop stop-color="#23242B"/>
<stop offset="0.757321" stop-color="#828595"/>
<stop offset="1" stop-color="#D5D5D5"/>
</linearGradient>
</defs>
</svg>
