<svg width="343" height="350" viewBox="0 0 343 350" fill="none" xmlns="http://www.w3.org/2000/svg">
<rect width="343" height="350" rx="13" fill="url(#paint0_linear_547_10336)"/>
<g filter="url(#filter0_dd_547_10336)">
<mask id="path-2-outside-1_547_10336" maskUnits="userSpaceOnUse" x="14" y="14" width="164" height="51" fill="black">
<rect fill="white" x="14" y="14" width="164" height="51"/>
<path d="M20.5682 34H15.4545L24.1136 16.5455H30.5909L33.4545 34H28.3409L26.6364 21.3523H26.5L20.5682 34ZM20.7727 27.1136H30.3864L29.7727 30.6591H20.1591L20.7727 27.1136ZM40.4453 34.2386C39.0249 34.2386 37.8544 33.9574 36.9339 33.3949C36.0135 32.8267 35.3686 32.0369 34.9993 31.0256C34.63 30.0085 34.5589 28.8295 34.7862 27.4886C35.0021 26.1477 35.4624 24.9716 36.1669 23.9602C36.8771 22.9432 37.7862 22.1534 38.8942 21.5909C40.0078 21.0227 41.2749 20.7386 42.6953 20.7386C43.9794 20.7386 45.0504 20.9716 45.9084 21.4375C46.772 21.8977 47.3885 22.5511 47.7578 23.3977C48.1328 24.2386 48.2294 25.2273 48.0476 26.3636H43.6839C43.7351 25.6818 43.6243 25.1591 43.3516 24.7955C43.0845 24.4318 42.6953 24.25 42.1839 24.25C41.7635 24.25 41.3771 24.3693 41.0249 24.608C40.6783 24.8409 40.38 25.196 40.13 25.6733C39.8857 26.1449 39.7067 26.7386 39.593 27.4545C39.4794 28.1705 39.4652 28.767 39.5504 29.2443C39.6413 29.7159 39.8175 30.071 40.0788 30.3097C40.3459 30.5426 40.6839 30.6591 41.093 30.6591C41.4453 30.6591 41.7692 30.5795 42.0646 30.4205C42.3658 30.2557 42.6243 30.017 42.8402 29.7045C43.0618 29.3864 43.2294 29 43.343 28.5455H47.7067C47.4908 29.7045 47.0561 30.7102 46.4027 31.5625C45.7493 32.4148 44.9169 33.0739 43.9055 33.5398C42.8942 34.0057 41.7408 34.2386 40.4453 34.2386ZM54.6932 26.6364L53.4659 34H48.7614L51.6591 16.5455H56.1932L55.0682 23.3977H55.2045C55.6307 22.5625 56.2273 21.9119 56.9943 21.446C57.7614 20.9744 58.6307 20.7386 59.6023 20.7386C60.5227 20.7386 61.2898 20.9489 61.9034 21.3693C62.517 21.7898 62.9517 22.3693 63.2074 23.108C63.4631 23.8466 63.5114 24.6932 63.3523 25.6477L61.9545 34H57.25L58.4773 26.6364C58.5795 25.9886 58.4972 25.4801 58.2301 25.1108C57.9688 24.7415 57.5398 24.5568 56.9432 24.5568C56.5568 24.5568 56.2045 24.642 55.8864 24.8125C55.5739 24.9773 55.3125 25.2159 55.1023 25.5284C54.8977 25.8352 54.7614 26.2045 54.6932 26.6364ZM64.2429 34L66.4247 20.9091H71.1293L68.9474 34H64.2429ZM68.9815 19.5455C68.3452 19.5455 67.831 19.3352 67.4389 18.9148C67.0469 18.4886 66.902 17.983 67.0043 17.3977C67.1065 16.8011 67.419 16.2955 67.9418 15.8807C68.4645 15.4602 69.044 15.25 69.6804 15.25C70.3224 15.25 70.8338 15.4602 71.2145 15.8807C71.5952 16.2955 71.7372 16.8011 71.6406 17.3977C71.5497 17.983 71.2429 18.4886 70.7202 18.9148C70.2031 19.3352 69.6236 19.5455 68.9815 19.5455ZM77.5831 34.2386C76.1854 34.2386 75.0263 33.9716 74.1058 33.4375C73.1854 32.8977 72.5376 32.125 72.1626 31.1193C71.7876 30.108 71.7195 28.8977 71.9581 27.4886C72.1854 26.1364 72.6541 24.9545 73.3643 23.9432C74.0803 22.9318 74.9808 22.1449 76.0661 21.5824C77.157 21.0199 78.3786 20.7386 79.7308 20.7386C80.7195 20.7386 81.5859 20.892 82.3303 21.1989C83.0803 21.5057 83.6911 21.9517 84.1626 22.5369C84.6342 23.1222 84.9524 23.8295 85.1172 24.6591C85.2876 25.483 85.2876 26.4148 85.1172 27.4545L84.9467 28.5455H73.2536L73.6626 25.9545H81.0263C81.0831 25.5795 81.0462 25.25 80.9155 24.9659C80.7905 24.6761 80.5888 24.4517 80.3104 24.2926C80.0376 24.1278 79.7081 24.0455 79.3217 24.0455C78.9354 24.0455 78.5717 24.1278 78.2308 24.2926C77.8956 24.4574 77.6087 24.6875 77.37 24.983C77.1371 25.2784 76.9808 25.625 76.9013 26.0227L76.3899 28.75C76.3217 29.1705 76.3473 29.5455 76.4666 29.875C76.5859 30.2045 76.7933 30.4631 77.0888 30.6506C77.3842 30.8381 77.7649 30.9318 78.2308 30.9318C78.549 30.9318 78.8501 30.8892 79.1342 30.804C79.424 30.7131 79.6797 30.5824 79.9013 30.4119C80.1286 30.2358 80.3104 30.0227 80.4467 29.7727H84.7422C84.4354 30.6818 83.9496 31.4716 83.2848 32.142C82.6257 32.8068 81.8132 33.3239 80.8473 33.6932C79.8871 34.0568 78.799 34.2386 77.5831 34.2386ZM100.993 20.9091L94.4134 34H88.9588L86.7429 20.9091H91.5156L92.1974 29.5682H92.3338L95.8793 20.9091H100.993ZM105.989 34.2386C104.592 34.2386 103.433 33.9716 102.512 33.4375C101.592 32.8977 100.944 32.125 100.569 31.1193C100.194 30.108 100.126 28.8977 100.364 27.4886C100.592 26.1364 101.06 24.9545 101.771 23.9432C102.487 22.9318 103.387 22.1449 104.472 21.5824C105.563 21.0199 106.785 20.7386 108.137 20.7386C109.126 20.7386 109.992 20.892 110.737 21.1989C111.487 21.5057 112.097 21.9517 112.569 22.5369C113.04 23.1222 113.359 23.8295 113.523 24.6591C113.694 25.483 113.694 26.4148 113.523 27.4545L113.353 28.5455H101.66L102.069 25.9545H109.433C109.489 25.5795 109.452 25.25 109.322 24.9659C109.197 24.6761 108.995 24.4517 108.717 24.2926C108.444 24.1278 108.114 24.0455 107.728 24.0455C107.342 24.0455 106.978 24.1278 106.637 24.2926C106.302 24.4574 106.015 24.6875 105.776 24.983C105.543 25.2784 105.387 25.625 105.308 26.0227L104.796 28.75C104.728 29.1705 104.754 29.5455 104.873 29.875C104.992 30.2045 105.2 30.4631 105.495 30.6506C105.79 30.8381 106.171 30.9318 106.637 30.9318C106.955 30.9318 107.256 30.8892 107.54 30.804C107.83 30.7131 108.086 30.5824 108.308 30.4119C108.535 30.2358 108.717 30.0227 108.853 29.7727H113.148C112.842 30.6818 112.356 31.4716 111.691 32.142C111.032 32.8068 110.219 33.3239 109.254 33.6932C108.293 34.0568 107.205 34.2386 105.989 34.2386ZM114.386 34L116.568 20.9091H121.034L120.625 23.3977H120.761C121.165 22.5795 121.736 21.9318 122.474 21.4545C123.213 20.9773 124.04 20.7386 124.955 20.7386C125.869 20.7386 126.619 20.983 127.205 21.4716C127.79 21.9545 128.085 22.5966 128.091 23.3977H128.227C128.58 22.5966 129.156 21.9545 129.957 21.4716C130.759 20.983 131.648 20.7386 132.625 20.7386C133.869 20.7386 134.815 21.142 135.463 21.9489C136.116 22.7557 136.33 23.8295 136.102 25.1705L134.636 34H129.932L131.227 26.3636C131.307 25.7898 131.227 25.3409 130.989 25.017C130.75 24.6875 130.386 24.5227 129.898 24.5227C129.415 24.5227 129.006 24.6875 128.67 25.017C128.341 25.3409 128.136 25.7898 128.057 26.3636L126.761 34H122.261L123.557 26.3636C123.636 25.7898 123.557 25.3409 123.318 25.017C123.08 24.6875 122.716 24.5227 122.227 24.5227C121.909 24.5227 121.619 24.5966 121.358 24.7443C121.102 24.892 120.889 25.1051 120.719 25.3835C120.554 25.6562 120.443 25.983 120.386 26.3636L119.091 34H114.386ZM143.161 34.2386C141.763 34.2386 140.604 33.9716 139.684 33.4375C138.763 32.8977 138.116 32.125 137.741 31.1193C137.366 30.108 137.298 28.8977 137.536 27.4886C137.763 26.1364 138.232 24.9545 138.942 23.9432C139.658 22.9318 140.559 22.1449 141.644 21.5824C142.735 21.0199 143.957 20.7386 145.309 20.7386C146.298 20.7386 147.164 20.892 147.908 21.1989C148.658 21.5057 149.269 21.9517 149.741 22.5369C150.212 23.1222 150.531 23.8295 150.695 24.6591C150.866 25.483 150.866 26.4148 150.695 27.4545L150.525 28.5455H138.832L139.241 25.9545H146.604C146.661 25.5795 146.624 25.25 146.494 24.9659C146.369 24.6761 146.167 24.4517 145.888 24.2926C145.616 24.1278 145.286 24.0455 144.9 24.0455C144.513 24.0455 144.15 24.1278 143.809 24.2926C143.474 24.4574 143.187 24.6875 142.948 24.983C142.715 25.2784 142.559 25.625 142.479 26.0227L141.968 28.75C141.9 29.1705 141.925 29.5455 142.045 29.875C142.164 30.2045 142.371 30.4631 142.667 30.6506C142.962 30.8381 143.343 30.9318 143.809 30.9318C144.127 30.9318 144.428 30.8892 144.712 30.804C145.002 30.7131 145.258 30.5824 145.479 30.4119C145.707 30.2358 145.888 30.0227 146.025 29.7727H150.32C150.013 30.6818 149.528 31.4716 148.863 32.142C148.204 32.8068 147.391 33.3239 146.425 33.6932C145.465 34.0568 144.377 34.2386 143.161 34.2386ZM157.49 26.6364L156.263 34H151.558L153.74 20.9091H158.206L157.797 23.3977H157.933C158.348 22.5625 158.953 21.9119 159.749 21.446C160.55 20.9744 161.433 20.7386 162.399 20.7386C163.325 20.7386 164.095 20.9489 164.709 21.3693C165.322 21.7898 165.757 22.3693 166.013 23.108C166.268 23.8466 166.314 24.6932 166.149 25.6477L164.751 34H160.047L161.274 26.6364C161.382 25.9886 161.303 25.4801 161.036 25.1108C160.774 24.7415 160.342 24.5568 159.74 24.5568C159.359 24.5568 159.01 24.642 158.692 24.8125C158.379 24.9773 158.118 25.2159 157.908 25.5284C157.703 25.8352 157.564 26.2045 157.49 26.6364ZM177.028 20.9091L176.449 24.3182H167.824L168.403 20.9091H177.028ZM170.585 17.7727H175.29L173.295 29.7898C173.267 29.9716 173.273 30.125 173.312 30.25C173.352 30.3693 173.432 30.4602 173.551 30.5227C173.676 30.5795 173.841 30.608 174.045 30.608C174.182 30.608 174.349 30.5909 174.548 30.5568C174.747 30.517 174.898 30.4886 175 30.4716L175.136 33.7784C174.898 33.8466 174.577 33.9233 174.173 34.0085C173.776 34.0994 173.313 34.1591 172.784 34.1875C171.682 34.2386 170.784 34.1222 170.091 33.8381C169.403 33.554 168.926 33.1108 168.659 32.5085C168.398 31.9006 168.352 31.142 168.523 30.233L170.585 17.7727ZM16.0341 63L18.9318 45.5455H26.4659C27.7614 45.5455 28.8551 45.7812 29.7472 46.2528C30.6392 46.7244 31.2812 47.4034 31.6733 48.2898C32.0653 49.1761 32.1591 50.2386 31.9545 51.4773C31.75 52.7273 31.2983 53.7812 30.5994 54.6392C29.9063 55.4915 29.0227 56.1392 27.9489 56.5824C26.8807 57.0199 25.6818 57.2386 24.3523 57.2386H19.8523L20.4659 53.5568H24.0114C24.5682 53.5568 25.0568 53.4886 25.4773 53.3523C25.8977 53.2102 26.2386 52.9886 26.5 52.6875C26.7614 52.3807 26.9318 51.9773 27.0114 51.4773C27.0909 50.9773 27.0511 50.571 26.892 50.2585C26.733 49.9403 26.4688 49.7074 26.0994 49.5597C25.7301 49.4062 25.2727 49.3295 24.7273 49.3295H23.0568L20.7727 63H16.0341ZM27.5909 54.9886L30.625 63H25.4773L22.5455 54.9886H27.5909ZM41.8111 57.2727L43.0384 49.9091H47.7429L45.5611 63H41.0952L41.5043 60.5114H41.3679C40.9645 61.3466 40.3622 62 39.5611 62.4716C38.7656 62.9375 37.8793 63.1705 36.902 63.1705C35.9872 63.1705 35.223 62.9602 34.6094 62.5398C33.9957 62.1193 33.5611 61.5398 33.3054 60.8011C33.0497 60.0625 32.9986 59.2159 33.152 58.2614L34.5497 49.9091H39.2543L38.027 57.2727C37.9304 57.9205 38.0128 58.429 38.2741 58.7983C38.5412 59.1676 38.9702 59.3523 39.5611 59.3523C39.9531 59.3523 40.3054 59.2699 40.6179 59.1051C40.9361 58.9347 41.1974 58.696 41.402 58.3892C41.6122 58.0767 41.7486 57.7045 41.8111 57.2727ZM55.5561 45.5455L52.6584 63H47.9538L50.8516 45.5455H55.5561ZM61.294 63.2386C59.8963 63.2386 58.7372 62.9716 57.8168 62.4375C56.8963 61.8977 56.2486 61.125 55.8736 60.1193C55.4986 59.108 55.4304 57.8977 55.669 56.4886C55.8963 55.1364 56.3651 53.9545 57.0753 52.9432C57.7912 51.9318 58.6918 51.1449 59.777 50.5824C60.8679 50.0199 62.0895 49.7386 63.4418 49.7386C64.4304 49.7386 65.2969 49.892 66.0412 50.1989C66.7912 50.5057 67.402 50.9517 67.8736 51.5369C68.3452 52.1222 68.6634 52.8295 68.8281 53.6591C68.9986 54.483 68.9986 55.4148 68.8281 56.4545L68.6577 57.5455H56.9645L57.3736 54.9545H64.7372C64.794 54.5795 64.7571 54.25 64.6264 53.9659C64.5014 53.6761 64.2997 53.4517 64.0213 53.2926C63.7486 53.1278 63.419 53.0455 63.0327 53.0455C62.6463 53.0455 62.2827 53.1278 61.9418 53.2926C61.6065 53.4574 61.3196 53.6875 61.081 53.983C60.848 54.2784 60.6918 54.625 60.6122 55.0227L60.1009 57.75C60.0327 58.1705 60.0582 58.5455 60.1776 58.875C60.2969 59.2045 60.5043 59.4631 60.7997 59.6506C61.0952 59.8381 61.4759 59.9318 61.9418 59.9318C62.2599 59.9318 62.5611 59.8892 62.8452 59.804C63.1349 59.7131 63.3906 59.5824 63.6122 59.4119C63.8395 59.2358 64.0213 59.0227 64.1577 58.7727H68.4531C68.1463 59.6818 67.6605 60.4716 66.9957 61.142C66.3366 61.8068 65.5241 62.3239 64.5582 62.6932C63.598 63.0568 62.5099 63.2386 61.294 63.2386ZM83.0547 54.1705H78.8274C78.8501 53.8977 78.8018 53.6648 78.6825 53.4716C78.5632 53.2784 78.3956 53.1307 78.1797 53.0284C77.9695 52.9261 77.7308 52.875 77.4638 52.875C76.9979 52.875 76.5746 52.9801 76.1939 53.1903C75.8132 53.3949 75.6001 53.6648 75.5547 54C75.5263 54.1307 75.5689 54.2528 75.6825 54.3665C75.7962 54.4801 76.0945 54.5852 76.5774 54.6818L79.1683 55.1591C80.4638 55.3977 81.407 55.8324 81.9979 56.4631C82.5945 57.0881 82.8104 57.9148 82.6456 58.9432C82.4922 59.8352 82.1001 60.6023 81.4695 61.2443C80.8388 61.8864 80.0376 62.3807 79.0661 62.7273C78.1001 63.0682 77.032 63.2386 75.8615 63.2386C73.799 63.2386 72.2536 62.8267 71.2251 62.0028C70.2024 61.179 69.7365 60.1023 69.8274 58.7727H74.3956C74.407 59.1989 74.549 59.5199 74.8217 59.7358C75.1001 59.946 75.4695 60.0568 75.9297 60.0682C76.4297 60.0852 76.8672 59.9858 77.2422 59.7699C77.6172 59.5483 77.8274 59.2727 77.8729 58.9432C77.8899 58.7557 77.8075 58.6136 77.6257 58.517C77.4496 58.4205 77.1115 58.3239 76.6115 58.2273L74.3615 57.8182C73.0661 57.5852 72.1229 57.1193 71.532 56.4205C70.9411 55.7159 70.7365 54.8182 70.9183 53.7273C71.0661 52.858 71.4183 52.1278 71.9751 51.5369C72.5376 50.946 73.2763 50.5 74.1911 50.1989C75.1058 49.892 76.1626 49.7386 77.3615 49.7386C79.3217 49.7386 80.8047 50.1335 81.8104 50.9233C82.8217 51.7074 83.2365 52.7898 83.0547 54.1705Z"/>
</mask>
<path d="M20.5682 34H15.4545L24.1136 16.5455H30.5909L33.4545 34H28.3409L26.6364 21.3523H26.5L20.5682 34ZM20.7727 27.1136H30.3864L29.7727 30.6591H20.1591L20.7727 27.1136ZM40.4453 34.2386C39.0249 34.2386 37.8544 33.9574 36.9339 33.3949C36.0135 32.8267 35.3686 32.0369 34.9993 31.0256C34.63 30.0085 34.5589 28.8295 34.7862 27.4886C35.0021 26.1477 35.4624 24.9716 36.1669 23.9602C36.8771 22.9432 37.7862 22.1534 38.8942 21.5909C40.0078 21.0227 41.2749 20.7386 42.6953 20.7386C43.9794 20.7386 45.0504 20.9716 45.9084 21.4375C46.772 21.8977 47.3885 22.5511 47.7578 23.3977C48.1328 24.2386 48.2294 25.2273 48.0476 26.3636H43.6839C43.7351 25.6818 43.6243 25.1591 43.3516 24.7955C43.0845 24.4318 42.6953 24.25 42.1839 24.25C41.7635 24.25 41.3771 24.3693 41.0249 24.608C40.6783 24.8409 40.38 25.196 40.13 25.6733C39.8857 26.1449 39.7067 26.7386 39.593 27.4545C39.4794 28.1705 39.4652 28.767 39.5504 29.2443C39.6413 29.7159 39.8175 30.071 40.0788 30.3097C40.3459 30.5426 40.6839 30.6591 41.093 30.6591C41.4453 30.6591 41.7692 30.5795 42.0646 30.4205C42.3658 30.2557 42.6243 30.017 42.8402 29.7045C43.0618 29.3864 43.2294 29 43.343 28.5455H47.7067C47.4908 29.7045 47.0561 30.7102 46.4027 31.5625C45.7493 32.4148 44.9169 33.0739 43.9055 33.5398C42.8942 34.0057 41.7408 34.2386 40.4453 34.2386ZM54.6932 26.6364L53.4659 34H48.7614L51.6591 16.5455H56.1932L55.0682 23.3977H55.2045C55.6307 22.5625 56.2273 21.9119 56.9943 21.446C57.7614 20.9744 58.6307 20.7386 59.6023 20.7386C60.5227 20.7386 61.2898 20.9489 61.9034 21.3693C62.517 21.7898 62.9517 22.3693 63.2074 23.108C63.4631 23.8466 63.5114 24.6932 63.3523 25.6477L61.9545 34H57.25L58.4773 26.6364C58.5795 25.9886 58.4972 25.4801 58.2301 25.1108C57.9688 24.7415 57.5398 24.5568 56.9432 24.5568C56.5568 24.5568 56.2045 24.642 55.8864 24.8125C55.5739 24.9773 55.3125 25.2159 55.1023 25.5284C54.8977 25.8352 54.7614 26.2045 54.6932 26.6364ZM64.2429 34L66.4247 20.9091H71.1293L68.9474 34H64.2429ZM68.9815 19.5455C68.3452 19.5455 67.831 19.3352 67.4389 18.9148C67.0469 18.4886 66.902 17.983 67.0043 17.3977C67.1065 16.8011 67.419 16.2955 67.9418 15.8807C68.4645 15.4602 69.044 15.25 69.6804 15.25C70.3224 15.25 70.8338 15.4602 71.2145 15.8807C71.5952 16.2955 71.7372 16.8011 71.6406 17.3977C71.5497 17.983 71.2429 18.4886 70.7202 18.9148C70.2031 19.3352 69.6236 19.5455 68.9815 19.5455ZM77.5831 34.2386C76.1854 34.2386 75.0263 33.9716 74.1058 33.4375C73.1854 32.8977 72.5376 32.125 72.1626 31.1193C71.7876 30.108 71.7195 28.8977 71.9581 27.4886C72.1854 26.1364 72.6541 24.9545 73.3643 23.9432C74.0803 22.9318 74.9808 22.1449 76.0661 21.5824C77.157 21.0199 78.3786 20.7386 79.7308 20.7386C80.7195 20.7386 81.5859 20.892 82.3303 21.1989C83.0803 21.5057 83.6911 21.9517 84.1626 22.5369C84.6342 23.1222 84.9524 23.8295 85.1172 24.6591C85.2876 25.483 85.2876 26.4148 85.1172 27.4545L84.9467 28.5455H73.2536L73.6626 25.9545H81.0263C81.0831 25.5795 81.0462 25.25 80.9155 24.9659C80.7905 24.6761 80.5888 24.4517 80.3104 24.2926C80.0376 24.1278 79.7081 24.0455 79.3217 24.0455C78.9354 24.0455 78.5717 24.1278 78.2308 24.2926C77.8956 24.4574 77.6087 24.6875 77.37 24.983C77.1371 25.2784 76.9808 25.625 76.9013 26.0227L76.3899 28.75C76.3217 29.1705 76.3473 29.5455 76.4666 29.875C76.5859 30.2045 76.7933 30.4631 77.0888 30.6506C77.3842 30.8381 77.7649 30.9318 78.2308 30.9318C78.549 30.9318 78.8501 30.8892 79.1342 30.804C79.424 30.7131 79.6797 30.5824 79.9013 30.4119C80.1286 30.2358 80.3104 30.0227 80.4467 29.7727H84.7422C84.4354 30.6818 83.9496 31.4716 83.2848 32.142C82.6257 32.8068 81.8132 33.3239 80.8473 33.6932C79.8871 34.0568 78.799 34.2386 77.5831 34.2386ZM100.993 20.9091L94.4134 34H88.9588L86.7429 20.9091H91.5156L92.1974 29.5682H92.3338L95.8793 20.9091H100.993ZM105.989 34.2386C104.592 34.2386 103.433 33.9716 102.512 33.4375C101.592 32.8977 100.944 32.125 100.569 31.1193C100.194 30.108 100.126 28.8977 100.364 27.4886C100.592 26.1364 101.06 24.9545 101.771 23.9432C102.487 22.9318 103.387 22.1449 104.472 21.5824C105.563 21.0199 106.785 20.7386 108.137 20.7386C109.126 20.7386 109.992 20.892 110.737 21.1989C111.487 21.5057 112.097 21.9517 112.569 22.5369C113.04 23.1222 113.359 23.8295 113.523 24.6591C113.694 25.483 113.694 26.4148 113.523 27.4545L113.353 28.5455H101.66L102.069 25.9545H109.433C109.489 25.5795 109.452 25.25 109.322 24.9659C109.197 24.6761 108.995 24.4517 108.717 24.2926C108.444 24.1278 108.114 24.0455 107.728 24.0455C107.342 24.0455 106.978 24.1278 106.637 24.2926C106.302 24.4574 106.015 24.6875 105.776 24.983C105.543 25.2784 105.387 25.625 105.308 26.0227L104.796 28.75C104.728 29.1705 104.754 29.5455 104.873 29.875C104.992 30.2045 105.2 30.4631 105.495 30.6506C105.79 30.8381 106.171 30.9318 106.637 30.9318C106.955 30.9318 107.256 30.8892 107.54 30.804C107.83 30.7131 108.086 30.5824 108.308 30.4119C108.535 30.2358 108.717 30.0227 108.853 29.7727H113.148C112.842 30.6818 112.356 31.4716 111.691 32.142C111.032 32.8068 110.219 33.3239 109.254 33.6932C108.293 34.0568 107.205 34.2386 105.989 34.2386ZM114.386 34L116.568 20.9091H121.034L120.625 23.3977H120.761C121.165 22.5795 121.736 21.9318 122.474 21.4545C123.213 20.9773 124.04 20.7386 124.955 20.7386C125.869 20.7386 126.619 20.983 127.205 21.4716C127.79 21.9545 128.085 22.5966 128.091 23.3977H128.227C128.58 22.5966 129.156 21.9545 129.957 21.4716C130.759 20.983 131.648 20.7386 132.625 20.7386C133.869 20.7386 134.815 21.142 135.463 21.9489C136.116 22.7557 136.33 23.8295 136.102 25.1705L134.636 34H129.932L131.227 26.3636C131.307 25.7898 131.227 25.3409 130.989 25.017C130.75 24.6875 130.386 24.5227 129.898 24.5227C129.415 24.5227 129.006 24.6875 128.67 25.017C128.341 25.3409 128.136 25.7898 128.057 26.3636L126.761 34H122.261L123.557 26.3636C123.636 25.7898 123.557 25.3409 123.318 25.017C123.08 24.6875 122.716 24.5227 122.227 24.5227C121.909 24.5227 121.619 24.5966 121.358 24.7443C121.102 24.892 120.889 25.1051 120.719 25.3835C120.554 25.6562 120.443 25.983 120.386 26.3636L119.091 34H114.386ZM143.161 34.2386C141.763 34.2386 140.604 33.9716 139.684 33.4375C138.763 32.8977 138.116 32.125 137.741 31.1193C137.366 30.108 137.298 28.8977 137.536 27.4886C137.763 26.1364 138.232 24.9545 138.942 23.9432C139.658 22.9318 140.559 22.1449 141.644 21.5824C142.735 21.0199 143.957 20.7386 145.309 20.7386C146.298 20.7386 147.164 20.892 147.908 21.1989C148.658 21.5057 149.269 21.9517 149.741 22.5369C150.212 23.1222 150.531 23.8295 150.695 24.6591C150.866 25.483 150.866 26.4148 150.695 27.4545L150.525 28.5455H138.832L139.241 25.9545H146.604C146.661 25.5795 146.624 25.25 146.494 24.9659C146.369 24.6761 146.167 24.4517 145.888 24.2926C145.616 24.1278 145.286 24.0455 144.9 24.0455C144.513 24.0455 144.15 24.1278 143.809 24.2926C143.474 24.4574 143.187 24.6875 142.948 24.983C142.715 25.2784 142.559 25.625 142.479 26.0227L141.968 28.75C141.9 29.1705 141.925 29.5455 142.045 29.875C142.164 30.2045 142.371 30.4631 142.667 30.6506C142.962 30.8381 143.343 30.9318 143.809 30.9318C144.127 30.9318 144.428 30.8892 144.712 30.804C145.002 30.7131 145.258 30.5824 145.479 30.4119C145.707 30.2358 145.888 30.0227 146.025 29.7727H150.32C150.013 30.6818 149.528 31.4716 148.863 32.142C148.204 32.8068 147.391 33.3239 146.425 33.6932C145.465 34.0568 144.377 34.2386 143.161 34.2386ZM157.49 26.6364L156.263 34H151.558L153.74 20.9091H158.206L157.797 23.3977H157.933C158.348 22.5625 158.953 21.9119 159.749 21.446C160.55 20.9744 161.433 20.7386 162.399 20.7386C163.325 20.7386 164.095 20.9489 164.709 21.3693C165.322 21.7898 165.757 22.3693 166.013 23.108C166.268 23.8466 166.314 24.6932 166.149 25.6477L164.751 34H160.047L161.274 26.6364C161.382 25.9886 161.303 25.4801 161.036 25.1108C160.774 24.7415 160.342 24.5568 159.74 24.5568C159.359 24.5568 159.01 24.642 158.692 24.8125C158.379 24.9773 158.118 25.2159 157.908 25.5284C157.703 25.8352 157.564 26.2045 157.49 26.6364ZM177.028 20.9091L176.449 24.3182H167.824L168.403 20.9091H177.028ZM170.585 17.7727H175.29L173.295 29.7898C173.267 29.9716 173.273 30.125 173.312 30.25C173.352 30.3693 173.432 30.4602 173.551 30.5227C173.676 30.5795 173.841 30.608 174.045 30.608C174.182 30.608 174.349 30.5909 174.548 30.5568C174.747 30.517 174.898 30.4886 175 30.4716L175.136 33.7784C174.898 33.8466 174.577 33.9233 174.173 34.0085C173.776 34.0994 173.313 34.1591 172.784 34.1875C171.682 34.2386 170.784 34.1222 170.091 33.8381C169.403 33.554 168.926 33.1108 168.659 32.5085C168.398 31.9006 168.352 31.142 168.523 30.233L170.585 17.7727ZM16.0341 63L18.9318 45.5455H26.4659C27.7614 45.5455 28.8551 45.7812 29.7472 46.2528C30.6392 46.7244 31.2812 47.4034 31.6733 48.2898C32.0653 49.1761 32.1591 50.2386 31.9545 51.4773C31.75 52.7273 31.2983 53.7812 30.5994 54.6392C29.9063 55.4915 29.0227 56.1392 27.9489 56.5824C26.8807 57.0199 25.6818 57.2386 24.3523 57.2386H19.8523L20.4659 53.5568H24.0114C24.5682 53.5568 25.0568 53.4886 25.4773 53.3523C25.8977 53.2102 26.2386 52.9886 26.5 52.6875C26.7614 52.3807 26.9318 51.9773 27.0114 51.4773C27.0909 50.9773 27.0511 50.571 26.892 50.2585C26.733 49.9403 26.4688 49.7074 26.0994 49.5597C25.7301 49.4062 25.2727 49.3295 24.7273 49.3295H23.0568L20.7727 63H16.0341ZM27.5909 54.9886L30.625 63H25.4773L22.5455 54.9886H27.5909ZM41.8111 57.2727L43.0384 49.9091H47.7429L45.5611 63H41.0952L41.5043 60.5114H41.3679C40.9645 61.3466 40.3622 62 39.5611 62.4716C38.7656 62.9375 37.8793 63.1705 36.902 63.1705C35.9872 63.1705 35.223 62.9602 34.6094 62.5398C33.9957 62.1193 33.5611 61.5398 33.3054 60.8011C33.0497 60.0625 32.9986 59.2159 33.152 58.2614L34.5497 49.9091H39.2543L38.027 57.2727C37.9304 57.9205 38.0128 58.429 38.2741 58.7983C38.5412 59.1676 38.9702 59.3523 39.5611 59.3523C39.9531 59.3523 40.3054 59.2699 40.6179 59.1051C40.9361 58.9347 41.1974 58.696 41.402 58.3892C41.6122 58.0767 41.7486 57.7045 41.8111 57.2727ZM55.5561 45.5455L52.6584 63H47.9538L50.8516 45.5455H55.5561ZM61.294 63.2386C59.8963 63.2386 58.7372 62.9716 57.8168 62.4375C56.8963 61.8977 56.2486 61.125 55.8736 60.1193C55.4986 59.108 55.4304 57.8977 55.669 56.4886C55.8963 55.1364 56.3651 53.9545 57.0753 52.9432C57.7912 51.9318 58.6918 51.1449 59.777 50.5824C60.8679 50.0199 62.0895 49.7386 63.4418 49.7386C64.4304 49.7386 65.2969 49.892 66.0412 50.1989C66.7912 50.5057 67.402 50.9517 67.8736 51.5369C68.3452 52.1222 68.6634 52.8295 68.8281 53.6591C68.9986 54.483 68.9986 55.4148 68.8281 56.4545L68.6577 57.5455H56.9645L57.3736 54.9545H64.7372C64.794 54.5795 64.7571 54.25 64.6264 53.9659C64.5014 53.6761 64.2997 53.4517 64.0213 53.2926C63.7486 53.1278 63.419 53.0455 63.0327 53.0455C62.6463 53.0455 62.2827 53.1278 61.9418 53.2926C61.6065 53.4574 61.3196 53.6875 61.081 53.983C60.848 54.2784 60.6918 54.625 60.6122 55.0227L60.1009 57.75C60.0327 58.1705 60.0582 58.5455 60.1776 58.875C60.2969 59.2045 60.5043 59.4631 60.7997 59.6506C61.0952 59.8381 61.4759 59.9318 61.9418 59.9318C62.2599 59.9318 62.5611 59.8892 62.8452 59.804C63.1349 59.7131 63.3906 59.5824 63.6122 59.4119C63.8395 59.2358 64.0213 59.0227 64.1577 58.7727H68.4531C68.1463 59.6818 67.6605 60.4716 66.9957 61.142C66.3366 61.8068 65.5241 62.3239 64.5582 62.6932C63.598 63.0568 62.5099 63.2386 61.294 63.2386ZM83.0547 54.1705H78.8274C78.8501 53.8977 78.8018 53.6648 78.6825 53.4716C78.5632 53.2784 78.3956 53.1307 78.1797 53.0284C77.9695 52.9261 77.7308 52.875 77.4638 52.875C76.9979 52.875 76.5746 52.9801 76.1939 53.1903C75.8132 53.3949 75.6001 53.6648 75.5547 54C75.5263 54.1307 75.5689 54.2528 75.6825 54.3665C75.7962 54.4801 76.0945 54.5852 76.5774 54.6818L79.1683 55.1591C80.4638 55.3977 81.407 55.8324 81.9979 56.4631C82.5945 57.0881 82.8104 57.9148 82.6456 58.9432C82.4922 59.8352 82.1001 60.6023 81.4695 61.2443C80.8388 61.8864 80.0376 62.3807 79.0661 62.7273C78.1001 63.0682 77.032 63.2386 75.8615 63.2386C73.799 63.2386 72.2536 62.8267 71.2251 62.0028C70.2024 61.179 69.7365 60.1023 69.8274 58.7727H74.3956C74.407 59.1989 74.549 59.5199 74.8217 59.7358C75.1001 59.946 75.4695 60.0568 75.9297 60.0682C76.4297 60.0852 76.8672 59.9858 77.2422 59.7699C77.6172 59.5483 77.8274 59.2727 77.8729 58.9432C77.8899 58.7557 77.8075 58.6136 77.6257 58.517C77.4496 58.4205 77.1115 58.3239 76.6115 58.2273L74.3615 57.8182C73.0661 57.5852 72.1229 57.1193 71.532 56.4205C70.9411 55.7159 70.7365 54.8182 70.9183 53.7273C71.0661 52.858 71.4183 52.1278 71.9751 51.5369C72.5376 50.946 73.2763 50.5 74.1911 50.1989C75.1058 49.892 76.1626 49.7386 77.3615 49.7386C79.3217 49.7386 80.8047 50.1335 81.8104 50.9233C82.8217 51.7074 83.2365 52.7898 83.0547 54.1705Z" fill="#A8F8C2"/>
<path d="M20.5682 34V34.8H21.0766L21.2925 34.3397L20.5682 34ZM15.4545 34L14.7379 33.6445L14.1646 34.8H15.4545V34ZM24.1136 16.5455V15.7455H23.6175L23.397 16.1899L24.1136 16.5455ZM30.5909 16.5455L31.3804 16.4159L31.2704 15.7455H30.5909V16.5455ZM33.4545 34V34.8H34.3965L34.244 33.8705L33.4545 34ZM28.3409 34L27.5481 34.1069L27.6415 34.8H28.3409V34ZM26.6364 21.3523L27.4292 21.2454L27.3358 20.5523H26.6364V21.3523ZM26.5 21.3523V20.5523H25.9916L25.7757 21.0126L26.5 21.3523ZM20.7727 27.1136V26.3136H20.0993L19.9844 26.9772L20.7727 27.1136ZM30.3864 27.1136L31.1746 27.2501L31.3367 26.3136H30.3864V27.1136ZM29.7727 30.6591V31.4591H30.4462L30.561 30.7955L29.7727 30.6591ZM20.1591 30.6591L19.3708 30.5227L19.2087 31.4591H20.1591V30.6591ZM20.5682 33.2H15.4545V34.8H20.5682V33.2ZM16.1712 34.3555L24.8303 16.901L23.397 16.1899L14.7379 33.6445L16.1712 34.3555ZM24.1136 17.3455H30.5909V15.7455H24.1136V17.3455ZM29.8015 16.675L32.6651 34.1295L34.244 33.8705L31.3804 16.4159L29.8015 16.675ZM33.4545 33.2H28.3409V34.8H33.4545V33.2ZM29.1337 33.8931L27.4292 21.2454L25.8435 21.4591L27.5481 34.1069L29.1337 33.8931ZM26.6364 20.5523H26.5V22.1523H26.6364V20.5523ZM25.7757 21.0126L19.8439 33.6603L21.2925 34.3397L27.2243 21.692L25.7757 21.0126ZM20.7727 27.9136H30.3864V26.3136H20.7727V27.9136ZM29.5981 26.9772L28.9844 30.5227L30.561 30.7955L31.1746 27.2501L29.5981 26.9772ZM29.7727 29.8591H20.1591V31.4591H29.7727V29.8591ZM20.9474 30.7955L21.561 27.2501L19.9844 26.9772L19.3708 30.5227L20.9474 30.7955ZM36.9339 33.3949L36.5137 34.0756L36.5168 34.0775L36.9339 33.3949ZM34.9993 31.0256L34.2473 31.2986L34.2478 31.3L34.9993 31.0256ZM34.7862 27.4886L35.575 27.6223L35.576 27.6158L34.7862 27.4886ZM36.1669 23.9602L35.511 23.5022L35.5105 23.5029L36.1669 23.9602ZM38.8942 21.5909L39.2563 22.3042L39.2578 22.3035L38.8942 21.5909ZM45.9084 21.4375L45.5266 22.1405L45.5322 22.1435L45.9084 21.4375ZM47.7578 23.3977L47.0245 23.7176L47.0272 23.7236L47.7578 23.3977ZM48.0476 26.3636V27.1636H48.7298L48.8375 26.49L48.0476 26.3636ZM43.6839 26.3636L42.8862 26.3038L42.8217 27.1636H43.6839V26.3636ZM43.3516 24.7955L42.7067 25.269L42.7116 25.2755L43.3516 24.7955ZM41.0249 24.608L41.4711 25.2719L41.4735 25.2703L41.0249 24.608ZM40.13 25.6733L39.4213 25.3021L39.4196 25.3053L40.13 25.6733ZM39.593 27.4545L38.8029 27.3291V27.3291L39.593 27.4545ZM39.5504 29.2443L38.7628 29.385L38.7649 29.3957L39.5504 29.2443ZM40.0788 30.3097L39.5394 30.9004L39.5461 30.9066L39.5529 30.9125L40.0788 30.3097ZM42.0646 30.4205L42.4439 31.1248L42.4486 31.1223L42.0646 30.4205ZM42.8402 29.7045L42.1837 29.2473L42.182 29.2498L42.8402 29.7045ZM43.343 28.5455V27.7455H42.7184L42.5669 28.3514L43.343 28.5455ZM47.7067 28.5455L48.4931 28.692L48.6695 27.7455H47.7067V28.5455ZM46.4027 31.5625L47.0376 32.0492L46.4027 31.5625ZM43.9055 33.5398L44.2403 34.2664L43.9055 33.5398ZM40.4453 33.4386C39.1266 33.4386 38.1121 33.1773 37.3511 32.7123L36.5168 34.0775C37.5967 34.7375 38.9232 35.0386 40.4453 35.0386V33.4386ZM37.3542 32.7141C36.5859 32.2399 36.0581 31.5929 35.7508 30.7512L34.2478 31.3C34.6791 32.481 35.4411 33.4135 36.5137 34.0756L37.3542 32.7141ZM35.7512 30.7525C35.4398 29.895 35.365 28.8613 35.575 27.6223L33.9975 27.3549C33.7529 28.7978 33.8201 30.1221 34.2473 31.2986L35.7512 30.7525ZM35.576 27.6158C35.7748 26.3813 36.1942 25.3206 36.8233 24.4175L35.5105 23.5029C34.7305 24.6226 34.2294 25.9141 33.9964 27.3615L35.576 27.6158ZM36.8228 24.4183C37.4575 23.5094 38.2656 22.8072 39.2563 22.3042L38.532 20.8776C37.3068 21.4996 36.2968 22.377 35.511 23.5022L36.8228 24.4183ZM39.2578 22.3035C40.2443 21.8002 41.3839 21.5386 42.6953 21.5386V19.9386C41.1658 19.9386 39.7713 20.2453 38.5306 20.8783L39.2578 22.3035ZM42.6953 21.5386C43.8867 21.5386 44.817 21.7552 45.5266 22.1405L46.2902 20.7345C45.2839 20.188 44.0721 19.9386 42.6953 19.9386V21.5386ZM45.5322 22.1435C46.2468 22.5244 46.7318 23.0465 47.0245 23.7176L48.4911 23.0778C48.0452 22.0557 47.2972 21.2711 46.2846 20.7315L45.5322 22.1435ZM47.0272 23.7236C47.3248 24.391 47.421 25.2159 47.2576 26.2372L48.8375 26.49C49.0378 25.2387 48.9408 24.0863 48.4885 23.0719L47.0272 23.7236ZM48.0476 25.5636H43.6839V27.1636H48.0476V25.5636ZM44.4817 26.4235C44.5403 25.6428 44.4268 24.8958 43.9916 24.3155L42.7116 25.2755C42.8217 25.4224 42.9299 25.7208 42.8862 26.3038L44.4817 26.4235ZM43.9964 24.3219C43.5569 23.7235 42.9109 23.45 42.1839 23.45V25.05C42.4797 25.05 42.6121 25.1401 42.7068 25.269L43.9964 24.3219ZM42.1839 23.45C41.6015 23.45 41.0592 23.6184 40.5762 23.9456L41.4735 25.2703C41.6951 25.1202 41.9255 25.05 42.1839 25.05V23.45ZM40.5786 23.944C40.0941 24.2696 39.7156 24.7402 39.4213 25.3021L40.8386 26.0445C41.0443 25.6518 41.2625 25.4122 41.4711 25.2719L40.5786 23.944ZM39.4196 25.3053C39.1245 25.875 38.9254 26.5573 38.8029 27.3291L40.3831 27.58C40.4879 26.92 40.6468 26.4147 40.8403 26.0413L39.4196 25.3053ZM38.8029 27.3291C38.6815 28.094 38.6562 28.7877 38.7629 29.385L40.338 29.1037C40.2742 28.7464 40.2773 28.2469 40.3831 27.58L38.8029 27.3291ZM38.7649 29.3957C38.8769 29.9769 39.1124 30.5105 39.5394 30.9004L40.6183 29.7189C40.5226 29.6315 40.4057 29.4549 40.336 29.0929L38.7649 29.3957ZM39.5529 30.9125C39.9879 31.292 40.5223 31.4591 41.093 31.4591V29.8591C40.8456 29.8591 40.7038 29.7933 40.6047 29.7068L39.5529 30.9125ZM41.093 31.4591C41.5709 31.4591 42.026 31.3498 42.4439 31.1248L41.6854 29.7161C41.5123 29.8092 41.3197 29.8591 41.093 29.8591V31.4591ZM42.4486 31.1223C42.8704 30.8915 43.2192 30.5633 43.4984 30.1593L42.182 29.2498C42.0293 29.4708 41.8611 29.6199 41.6806 29.7186L42.4486 31.1223ZM43.4967 30.1617C43.784 29.7491 43.9867 29.2692 44.1192 28.7395L42.5669 28.3514C42.4721 28.7308 42.3395 29.0236 42.1837 29.2474L43.4967 30.1617ZM43.343 29.3455H47.7067V27.7455H43.343V29.3455ZM46.9202 28.399C46.7251 29.4466 46.3373 30.3329 45.7678 31.0758L47.0376 32.0492C47.7749 31.0876 48.2565 29.9625 48.4931 28.692L46.9202 28.399ZM45.7678 31.0758C45.1965 31.821 44.4686 32.3996 43.5708 32.8132L44.2403 34.2664C45.3652 33.7482 46.3021 33.0085 47.0376 32.0492L45.7678 31.0758ZM43.5708 32.8132C42.6802 33.2234 41.644 33.4386 40.4453 33.4386V35.0386C41.8376 35.0386 43.1081 34.7879 44.2403 34.2664L43.5708 32.8132ZM54.6932 26.6364L55.4823 26.7679L55.4834 26.7611L54.6932 26.6364ZM53.4659 34V34.8H54.1436L54.255 34.1315L53.4659 34ZM48.7614 34L47.9722 33.869L47.8176 34.8H48.7614V34ZM51.6591 16.5455V15.7455H50.981L50.8699 16.4144L51.6591 16.5455ZM56.1932 16.5455L56.9826 16.6751L57.1352 15.7455H56.1932V16.5455ZM55.0682 23.3977L54.2788 23.2681L54.1261 24.1977H55.0682V23.3977ZM55.2045 23.3977V24.1977H55.6945L55.9172 23.7613L55.2045 23.3977ZM56.9943 21.446L57.4096 22.1298L57.4133 22.1275L56.9943 21.446ZM61.9034 21.3693L62.3556 20.7094L61.9034 21.3693ZM63.2074 23.108L63.9634 22.8463V22.8463L63.2074 23.108ZM63.3523 25.6477L64.1413 25.7798L64.1414 25.7792L63.3523 25.6477ZM61.9545 34V34.8H62.6318L62.7436 34.132L61.9545 34ZM57.25 34L56.4609 33.8685L56.3056 34.8H57.25V34ZM58.4773 26.6364L59.2664 26.7679L59.2675 26.7611L58.4773 26.6364ZM58.2301 25.1108L57.5771 25.573L57.5818 25.5796L58.2301 25.1108ZM55.8864 24.8125L56.2595 25.5202L56.2641 25.5177L55.8864 24.8125ZM55.1023 25.5284L54.4385 25.0819L54.4366 25.0846L55.1023 25.5284ZM53.9041 26.5048L52.6768 33.8685L54.255 34.1315L55.4823 26.7679L53.9041 26.5048ZM53.4659 33.2H48.7614V34.8H53.4659V33.2ZM49.5506 34.131L52.4483 16.6765L50.8699 16.4144L47.9722 33.869L49.5506 34.131ZM51.6591 17.3455H56.1932V15.7455H51.6591V17.3455ZM55.4038 16.4158L54.2788 23.2681L55.8576 23.5273L56.9826 16.6751L55.4038 16.4158ZM55.0682 24.1977H55.2045V22.5977H55.0682V24.1977ZM55.9172 23.7613C56.279 23.0521 56.7753 22.5151 57.4096 22.1298L56.579 20.7623C55.6792 21.3088 54.9824 22.0729 54.4919 23.0342L55.9172 23.7613ZM57.4133 22.1275C58.0444 21.7395 58.7665 21.5386 59.6023 21.5386V19.9386C58.4949 19.9386 57.4784 20.2093 56.5753 20.7645L57.4133 22.1275ZM59.6023 21.5386C60.3999 21.5386 60.9994 21.7197 61.4512 22.0293L62.3556 20.7094C61.5802 20.1781 60.6455 19.9386 59.6023 19.9386V21.5386ZM61.4512 22.0293C61.9161 22.3478 62.2487 22.7841 62.4514 23.3696L63.9634 22.8463C63.6547 21.9545 63.118 21.2318 62.3556 20.7094L61.4512 22.0293ZM62.4514 23.3696C62.6542 23.9554 62.7054 24.6625 62.5632 25.5162L64.1414 25.7792C64.3173 24.7239 64.272 23.7378 63.9634 22.8463L62.4514 23.3696ZM62.5632 25.5157L61.1655 33.868L62.7436 34.132L64.1413 25.7798L62.5632 25.5157ZM61.9545 33.2H57.25V34.8H61.9545V33.2ZM58.0391 34.1315L59.2664 26.7679L57.6882 26.5048L56.4609 33.8685L58.0391 34.1315ZM59.2675 26.7611C59.3882 25.9966 59.3149 25.2457 58.8784 24.642L57.5818 25.5796C57.6794 25.7145 57.7709 25.9807 57.6871 26.5116L59.2675 26.7611ZM58.8831 24.6487C58.426 24.0027 57.7084 23.7568 56.9432 23.7568V25.3568C57.3712 25.3568 57.5115 25.4803 57.5771 25.5729L58.8831 24.6487ZM56.9432 23.7568C56.4345 23.7568 55.9511 23.8703 55.5086 24.1073L56.2641 25.5177C56.458 25.4138 56.6791 25.3568 56.9432 25.3568V23.7568ZM55.5132 24.1048C55.076 24.3354 54.7175 24.6671 54.4385 25.0819L55.7661 25.9749C55.9075 25.7647 56.0717 25.6192 56.2595 25.5202L55.5132 24.1048ZM54.4366 25.0846C54.1572 25.5037 53.9859 25.9866 53.903 26.5116L55.4834 26.7611C55.5369 26.4225 55.6382 26.1667 55.7679 25.9722L54.4366 25.0846ZM64.2429 34L63.4538 33.8685L63.2985 34.8H64.2429V34ZM66.4247 20.9091V20.1091H65.747L65.6356 20.7776L66.4247 20.9091ZM71.1293 20.9091L71.9184 21.0406L72.0736 20.1091H71.1293V20.9091ZM68.9474 34V34.8H69.6251L69.7366 34.1315L68.9474 34ZM67.4389 18.9148L66.8502 19.4564L66.8538 19.4603L67.4389 18.9148ZM67.0043 17.3977L67.7923 17.5354L67.7928 17.5329L67.0043 17.3977ZM67.9418 15.8807L68.439 16.5074L68.4432 16.5041L67.9418 15.8807ZM71.2145 15.8807L70.6214 16.4176L70.6251 16.4216L71.2145 15.8807ZM71.6406 17.3977L70.8509 17.2699L70.8501 17.2749L71.6406 17.3977ZM70.7202 18.9148L71.2249 19.5355L71.2257 19.5348L70.7202 18.9148ZM65.032 34.1315L67.2138 21.0406L65.6356 20.7776L63.4538 33.8685L65.032 34.1315ZM66.4247 21.7091H71.1293V20.1091H66.4247V21.7091ZM70.3401 20.7776L68.1583 33.8685L69.7366 34.1315L71.9184 21.0406L70.3401 20.7776ZM68.9474 33.2H64.2429V34.8H68.9474V33.2ZM68.9815 18.7455C68.5407 18.7455 68.2477 18.6091 68.024 18.3692L66.8538 19.4603C67.4142 20.0614 68.1496 20.3455 68.9815 20.3455V18.7455ZM68.0277 18.3731C67.8092 18.1356 67.7316 17.883 67.7923 17.5354L66.2162 17.26C66.0724 18.0829 66.2846 18.8416 66.8502 19.4564L68.0277 18.3731ZM67.7928 17.5329C67.8583 17.1509 68.0535 16.8133 68.439 16.5074L67.4445 15.254C66.7846 15.7776 66.3548 16.4514 66.2158 17.2626L67.7928 17.5329ZM68.4432 16.5041C68.8321 16.1912 69.2368 16.05 69.6804 16.05V14.45C68.8513 14.45 68.0969 14.7292 67.4404 15.2573L68.4432 16.5041ZM69.6804 16.05C70.1295 16.05 70.4133 16.1877 70.6214 16.4176L71.8075 15.3437C71.2544 14.7328 70.5154 14.45 69.6804 14.45V16.05ZM70.6251 16.4216C70.8266 16.6412 70.9117 16.8947 70.8509 17.2699L72.4303 17.5256C72.5628 16.7076 72.3638 15.9498 71.8039 15.3397L70.6251 16.4216ZM70.8501 17.2749C70.7938 17.6377 70.607 17.9749 70.2147 18.2947L71.2257 19.5348C71.8788 19.0024 72.3057 18.3282 72.4311 17.5205L70.8501 17.2749ZM70.2154 18.2941C69.8352 18.6033 69.4323 18.7455 68.9815 18.7455V20.3455C69.8148 20.3455 70.5711 20.0671 71.2249 19.5355L70.2154 18.2941ZM74.1058 33.4375L73.7011 34.1276L73.7043 34.1294L74.1058 33.4375ZM72.1626 31.1193L71.4125 31.3974L71.4131 31.3988L72.1626 31.1193ZM71.9581 27.4886L72.7469 27.6222L72.747 27.6212L71.9581 27.4886ZM73.3643 23.9432L72.7114 23.481L72.7097 23.4834L73.3643 23.9432ZM76.0661 21.5824L75.6994 20.8713L75.6979 20.8721L76.0661 21.5824ZM82.3303 21.1989L82.0254 21.9385L82.0274 21.9393L82.3303 21.1989ZM84.1626 22.5369L83.5397 23.0389L84.1626 22.5369ZM85.1172 24.6591L84.3325 24.815L84.3338 24.8212L85.1172 24.6591ZM85.1172 27.4545L84.3277 27.3251L84.3268 27.331L85.1172 27.4545ZM84.9467 28.5455V29.3455H85.6314L85.7371 28.669L84.9467 28.5455ZM73.2536 28.5455L72.4633 28.4207L72.3173 29.3455H73.2536V28.5455ZM73.6626 25.9545V25.1545H72.979L72.8724 25.8298L73.6626 25.9545ZM81.0263 25.9545V26.7545H81.7142L81.8173 26.0744L81.0263 25.9545ZM80.9155 24.9659L80.1809 25.2828L80.1847 25.2916L80.1887 25.3002L80.9155 24.9659ZM80.3104 24.2926L79.8967 24.9773L79.905 24.9824L79.9135 24.9872L80.3104 24.2926ZM78.2308 24.2926L77.8827 23.5723L77.8779 23.5747L78.2308 24.2926ZM77.37 24.983L76.7476 24.4802L76.7418 24.4876L77.37 24.983ZM76.9013 26.0227L76.1168 25.8658L76.115 25.8753L76.9013 26.0227ZM76.3899 28.75L75.6036 28.6026L75.6018 28.6122L75.6002 28.6219L76.3899 28.75ZM76.4666 29.875L77.2188 29.6026L76.4666 29.875ZM77.0888 30.6506L77.5174 29.9751L77.0888 30.6506ZM79.1342 30.804L79.3641 31.5703L79.3737 31.5673L79.1342 30.804ZM79.9013 30.4119L80.3891 31.046L80.3913 31.0443L79.9013 30.4119ZM80.4467 29.7727V28.9727H79.9718L79.7444 29.3896L80.4467 29.7727ZM84.7422 29.7727L85.5002 30.0285L85.8565 28.9727H84.7422V29.7727ZM83.2848 32.142L82.7167 31.5788L82.7167 31.5788L83.2848 32.142ZM80.8473 33.6932L81.1306 34.4413L81.133 34.4404L80.8473 33.6932ZM77.5831 33.4386C76.2834 33.4386 75.2734 33.19 74.5073 32.7456L73.7043 34.1294C74.7792 34.7531 76.0873 35.0386 77.5831 35.0386V33.4386ZM74.5105 32.7474C73.7498 32.3013 73.2233 31.6741 72.9122 30.8398L71.4131 31.3988C71.852 32.5759 72.6209 33.4941 73.7011 34.1276L74.5105 32.7474ZM72.9127 30.8412C72.5998 29.9973 72.5243 28.9366 72.7469 27.6222L71.1693 27.3551C70.9146 28.8589 70.9755 30.2186 71.4125 31.3974L72.9127 30.8412ZM72.747 27.6212C72.9567 26.3736 73.3846 25.3064 74.019 24.4029L72.7097 23.4834C71.9236 24.6027 71.414 25.8991 71.1692 27.356L72.747 27.6212ZM74.0173 24.4054C74.6605 23.4968 75.464 22.7955 76.4342 22.2926L75.6979 20.8721C74.4977 21.4942 73.5 22.3669 72.7114 23.481L74.0173 24.4054ZM76.4327 22.2934C77.399 21.7952 78.4929 21.5386 79.7308 21.5386V19.9386C78.2642 19.9386 76.9149 20.2446 75.6994 20.8713L76.4327 22.2934ZM79.7308 21.5386C80.638 21.5386 81.3971 21.6795 82.0254 21.9385L82.6351 20.4592C81.7748 20.1046 80.8009 19.9386 79.7308 19.9386V21.5386ZM82.0274 21.9393C82.6623 22.1991 83.1595 22.5671 83.5397 23.0389L84.7856 22.035C84.2226 21.3363 83.4982 20.8123 82.6332 20.4584L82.0274 21.9393ZM83.5397 23.0389C83.9205 23.5115 84.1897 24.0961 84.3325 24.8149L85.9019 24.5032C85.7151 23.563 85.3479 22.7328 84.7856 22.035L83.5397 23.0389ZM84.3338 24.8212C84.4801 25.5282 84.4862 26.3586 84.3277 27.3251L85.9066 27.584C86.0891 26.4709 86.0952 25.4377 85.9006 24.497L84.3338 24.8212ZM84.3268 27.331L84.1563 28.422L85.7371 28.669L85.9076 27.578L84.3268 27.331ZM84.9467 27.7455H73.2536V29.3455H84.9467V27.7455ZM74.0438 28.6702L74.4529 26.0793L72.8724 25.8298L72.4633 28.4207L74.0438 28.6702ZM73.6626 26.7545H81.0263V25.1545H73.6626V26.7545ZM81.8173 26.0744C81.8924 25.5782 81.851 25.0853 81.6423 24.6316L80.1887 25.3002C80.2414 25.4147 80.2738 25.5809 80.2353 25.8347L81.8173 26.0744ZM81.6501 24.649C81.4552 24.1974 81.1336 23.8416 80.7073 23.598L79.9135 24.9872C80.044 25.0618 80.1258 25.1549 80.1809 25.2828L81.6501 24.649ZM80.7241 23.6079C80.3024 23.3531 79.8229 23.2455 79.3217 23.2455V24.8455C79.5933 24.8455 79.7729 24.9026 79.8967 24.9773L80.7241 23.6079ZM79.3217 23.2455C78.8173 23.2455 78.3344 23.354 77.8827 23.5723L78.579 25.0129C78.809 24.9017 79.0534 24.8455 79.3217 24.8455V23.2455ZM77.8779 23.5747C77.4365 23.7916 77.0581 24.0959 76.7477 24.4803L77.9924 25.4856C78.1592 25.2791 78.3547 25.1231 78.5837 25.0106L77.8779 23.5747ZM76.7418 24.4876C76.4249 24.8896 76.2191 25.3544 76.1168 25.8658L77.6857 26.1796C77.7426 25.8956 77.8493 25.6672 77.9982 25.4783L76.7418 24.4876ZM76.115 25.8753L75.6036 28.6026L77.1762 28.8974L77.6876 26.1702L76.115 25.8753ZM75.6002 28.6219C75.5149 29.1481 75.5397 29.6648 75.7144 30.1474L77.2188 29.6026C77.1549 29.4261 77.1286 29.1928 77.1796 28.8781L75.6002 28.6219ZM75.7144 30.1474C75.8939 30.6431 76.2149 31.0435 76.6601 31.326L77.5174 29.9751C77.3717 29.8826 77.278 29.766 77.2188 29.6026L75.7144 30.1474ZM76.6601 31.326C77.1197 31.6177 77.6622 31.7318 78.2308 31.7318V30.1318C77.8676 30.1318 77.6488 30.0584 77.5174 29.9751L76.6601 31.326ZM78.2308 31.7318C78.6212 31.7318 79.0002 31.6794 79.3641 31.5702L78.9044 30.0377C78.7001 30.099 78.4768 30.1318 78.2308 30.1318V31.7318ZM79.3737 31.5673C79.7454 31.4507 80.0867 31.2786 80.389 31.046L79.4135 29.7778C79.2726 29.8862 79.1026 29.9755 78.8948 30.0407L79.3737 31.5673ZM80.3913 31.0443C80.7049 30.8012 80.9593 30.5036 81.149 30.1558L79.7444 29.3896C79.6614 29.5419 79.5522 29.6704 79.4112 29.7796L80.3913 31.0443ZM80.4467 30.5727H84.7422V28.9727H80.4467V30.5727ZM83.9842 29.5169C83.7157 30.3123 83.2941 30.9964 82.7167 31.5788L83.8529 32.7053C84.605 31.9468 85.155 31.0513 85.5002 30.0285L83.9842 29.5169ZM82.7167 31.5788C82.1456 32.1548 81.4326 32.6129 80.5616 32.9459L81.133 34.4404C82.1939 34.0348 83.1058 33.4589 83.8529 32.7053L82.7167 31.5788ZM80.564 32.945C79.7093 33.2687 78.7196 33.4386 77.5831 33.4386V35.0386C78.8784 35.0386 80.0649 34.8449 81.1306 34.4413L80.564 32.945ZM100.993 20.9091L101.708 21.2683L102.29 20.1091H100.993V20.9091ZM94.4134 34V34.8H94.9066L95.1282 34.3593L94.4134 34ZM88.9588 34L88.17 34.1335L88.2828 34.8H88.9588V34ZM86.7429 20.9091V20.1091H85.7961L85.9541 21.0426L86.7429 20.9091ZM91.5156 20.9091L92.3132 20.8463L92.2551 20.1091H91.5156V20.9091ZM92.1974 29.5682L91.3999 29.631L91.458 30.3682H92.1974V29.5682ZM92.3338 29.5682V30.3682H92.8707L93.0742 29.8713L92.3338 29.5682ZM95.8793 20.9091V20.1091H95.3424L95.1389 20.606L95.8793 20.9091ZM100.278 20.5498L93.6986 33.6407L95.1282 34.3593L101.708 21.2683L100.278 20.5498ZM94.4134 33.2H88.9588V34.8H94.4134V33.2ZM89.7476 33.8665L87.5317 20.7756L85.9541 21.0426L88.17 34.1335L89.7476 33.8665ZM86.7429 21.7091H91.5156V20.1091H86.7429V21.7091ZM90.7181 20.9719L91.3999 29.631L92.995 29.5054L92.3132 20.8463L90.7181 20.9719ZM92.1974 30.3682H92.3338V28.7682H92.1974V30.3682ZM93.0742 29.8713L96.6196 21.2122L95.1389 20.606L91.5935 29.265L93.0742 29.8713ZM95.8793 21.7091H100.993V20.1091H95.8793V21.7091ZM102.512 33.4375L102.107 34.1276L102.111 34.1294L102.512 33.4375ZM100.569 31.1193L99.8188 31.3974L99.8193 31.3988L100.569 31.1193ZM100.364 27.4886L101.153 27.6222L101.153 27.6212L100.364 27.4886ZM101.771 23.9432L101.118 23.481L101.116 23.4834L101.771 23.9432ZM104.472 21.5824L104.106 20.8713L104.104 20.8721L104.472 21.5824ZM110.737 21.1989L110.432 21.9385L110.434 21.9393L110.737 21.1989ZM112.569 22.5369L111.946 23.0389L112.569 22.5369ZM113.523 24.6591L112.739 24.815L112.74 24.8212L113.523 24.6591ZM113.523 27.4545L112.734 27.3251L112.733 27.331L113.523 27.4545ZM113.353 28.5455V29.3455H114.038L114.143 28.669L113.353 28.5455ZM101.66 28.5455L100.87 28.4207L100.724 29.3455H101.66V28.5455ZM102.069 25.9545V25.1545H101.385L101.279 25.8298L102.069 25.9545ZM109.433 25.9545V26.7545H110.12L110.224 26.0744L109.433 25.9545ZM109.322 24.9659L108.587 25.2828L108.591 25.2916L108.595 25.3002L109.322 24.9659ZM108.717 24.2926L108.303 24.9773L108.311 24.9824L108.32 24.9872L108.717 24.2926ZM106.637 24.2926L106.289 23.5723L106.284 23.5747L106.637 24.2926ZM105.776 24.983L105.154 24.4802L105.148 24.4876L105.776 24.983ZM105.308 26.0227L104.523 25.8658L104.521 25.8753L105.308 26.0227ZM104.796 28.75L104.01 28.6026L104.008 28.6122L104.006 28.6219L104.796 28.75ZM104.873 29.875L105.625 29.6026L104.873 29.875ZM105.495 30.6506L105.924 29.9751L105.495 30.6506ZM107.54 30.804L107.77 31.5703L107.78 31.5673L107.54 30.804ZM108.308 30.4119L108.795 31.046L108.798 31.0443L108.308 30.4119ZM108.853 29.7727V28.9727H108.378L108.151 29.3896L108.853 29.7727ZM113.148 29.7727L113.906 30.0285L114.263 28.9727H113.148V29.7727ZM111.691 32.142L111.123 31.5788L111.123 31.5788L111.691 32.142ZM109.254 33.6932L109.537 34.4413L109.539 34.4404L109.254 33.6932ZM105.989 33.4386C104.69 33.4386 103.68 33.19 102.914 32.7456L102.111 34.1294C103.185 34.7531 104.494 35.0386 105.989 35.0386V33.4386ZM102.917 32.7474C102.156 32.3013 101.63 31.6741 101.318 30.8398L99.8193 31.3988C100.258 32.5759 101.027 33.4941 102.107 34.1276L102.917 32.7474ZM101.319 30.8412C101.006 29.9973 100.931 28.9366 101.153 27.6222L99.5756 27.3551C99.3209 28.8589 99.3817 30.2186 99.8188 31.3974L101.319 30.8412ZM101.153 27.6212C101.363 26.3736 101.791 25.3064 102.425 24.4029L101.116 23.4834C100.33 24.6027 99.8203 25.8991 99.5754 27.356L101.153 27.6212ZM102.424 24.4054C103.067 23.4968 103.87 22.7955 104.84 22.2926L104.104 20.8721C102.904 21.4942 101.906 22.3669 101.118 23.481L102.424 24.4054ZM104.839 22.2934C105.805 21.7952 106.899 21.5386 108.137 21.5386V19.9386C106.67 19.9386 105.321 20.2446 104.106 20.8713L104.839 22.2934ZM108.137 21.5386C109.044 21.5386 109.803 21.6795 110.432 21.9385L111.041 20.4592C110.181 20.1046 109.207 19.9386 108.137 19.9386V21.5386ZM110.434 21.9393C111.069 22.1991 111.566 22.5671 111.946 23.0389L113.192 22.035C112.629 21.3363 111.904 20.8123 111.039 20.4584L110.434 21.9393ZM111.946 23.0389C112.327 23.5115 112.596 24.0961 112.739 24.8149L114.308 24.5032C114.121 23.563 113.754 22.7328 113.192 22.035L111.946 23.0389ZM112.74 24.8212C112.886 25.5282 112.892 26.3586 112.734 27.3251L114.313 27.584C114.495 26.4709 114.501 25.4377 114.307 24.497L112.74 24.8212ZM112.733 27.331L112.563 28.422L114.143 28.669L114.314 27.578L112.733 27.331ZM113.353 27.7455H101.66V29.3455H113.353V27.7455ZM102.45 28.6702L102.859 26.0793L101.279 25.8298L100.87 28.4207L102.45 28.6702ZM102.069 26.7545H109.433V25.1545H102.069V26.7545ZM110.224 26.0744C110.299 25.5782 110.257 25.0853 110.049 24.6316L108.595 25.3002C108.648 25.4147 108.68 25.5809 108.642 25.8347L110.224 26.0744ZM110.056 24.649C109.861 24.1974 109.54 23.8416 109.114 23.598L108.32 24.9872C108.45 25.0618 108.532 25.1549 108.587 25.2828L110.056 24.649ZM109.13 23.6079C108.709 23.3531 108.229 23.2455 107.728 23.2455V24.8455C108 24.8455 108.179 24.9026 108.303 24.9773L109.13 23.6079ZM107.728 23.2455C107.224 23.2455 106.741 23.354 106.289 23.5723L106.985 25.0129C107.215 24.9017 107.46 24.8455 107.728 24.8455V23.2455ZM106.284 23.5747C105.843 23.7916 105.464 24.0959 105.154 24.4803L106.399 25.4856C106.565 25.2791 106.761 25.1231 106.99 25.0106L106.284 23.5747ZM105.148 24.4876C104.831 24.8896 104.625 25.3544 104.523 25.8658L106.092 26.1796C106.149 25.8956 106.256 25.6672 106.404 25.4783L105.148 24.4876ZM104.521 25.8753L104.01 28.6026L105.582 28.8974L106.094 26.1702L104.521 25.8753ZM104.006 28.6219C103.921 29.1481 103.946 29.6648 104.121 30.1474L105.625 29.6026C105.561 29.4261 105.535 29.1928 105.586 28.8781L104.006 28.6219ZM104.121 30.1474C104.3 30.6431 104.621 31.0435 105.066 31.326L105.924 29.9751C105.778 29.8826 105.684 29.766 105.625 29.6026L104.121 30.1474ZM105.066 31.326C105.526 31.6177 106.068 31.7318 106.637 31.7318V30.1318C106.274 30.1318 106.055 30.0584 105.924 29.9751L105.066 31.326ZM106.637 31.7318C107.027 31.7318 107.406 31.6794 107.77 31.5702L107.311 30.0377C107.106 30.099 106.883 30.1318 106.637 30.1318V31.7318ZM107.78 31.5673C108.152 31.4507 108.493 31.2786 108.795 31.046L107.82 29.7778C107.679 29.8862 107.509 29.9755 107.301 30.0407L107.78 31.5673ZM108.798 31.0443C109.111 30.8012 109.366 30.5036 109.555 30.1558L108.151 29.3896C108.068 29.5419 107.958 29.6704 107.817 29.7796L108.798 31.0443ZM108.853 30.5727H113.148V28.9727H108.853V30.5727ZM112.39 29.5169C112.122 30.3123 111.7 30.9964 111.123 31.5788L112.259 32.7053C113.011 31.9468 113.561 31.0513 113.906 30.0285L112.39 29.5169ZM111.123 31.5788C110.552 32.1548 109.839 32.6129 108.968 32.9459L109.539 34.4404C110.6 34.0348 111.512 33.4589 112.259 32.7053L111.123 31.5788ZM108.97 32.945C108.116 33.2687 107.126 33.4386 105.989 33.4386V35.0386C107.285 35.0386 108.471 34.8449 109.537 34.4413L108.97 32.945ZM114.386 34L113.597 33.8685L113.442 34.8H114.386V34ZM116.568 20.9091V20.1091H115.89L115.779 20.7776L116.568 20.9091ZM121.034 20.9091L121.823 21.0389L121.976 20.1091H121.034V20.9091ZM120.625 23.3977L119.836 23.268L119.683 24.1977H120.625V23.3977ZM120.761 23.3977V24.1977H121.259L121.479 23.7515L120.761 23.3977ZM122.474 21.4545L122.04 20.7826V20.7826L122.474 21.4545ZM127.205 21.4716L126.692 22.0857L126.695 22.0886L127.205 21.4716ZM128.091 23.3977L127.291 23.4034L127.297 24.1977H128.091V23.3977ZM128.227 23.3977V24.1977H128.749L128.96 23.7197L128.227 23.3977ZM129.957 21.4716L130.37 22.1567L130.374 22.1546L129.957 21.4716ZM135.463 21.9489L134.839 22.4497L134.841 22.4523L135.463 21.9489ZM136.102 25.1705L135.314 25.0368L135.313 25.0394L136.102 25.1705ZM134.636 34V34.8H135.314L135.426 34.131L134.636 34ZM129.932 34L129.143 33.8662L128.985 34.8H129.932V34ZM131.227 26.3636L132.016 26.4974L132.018 26.4855L132.02 26.4735L131.227 26.3636ZM130.989 25.017L130.341 25.4863L130.345 25.4916L130.989 25.017ZM128.67 25.017L129.231 25.5876L129.231 25.5875L128.67 25.017ZM128.057 26.3636L128.846 26.4974L128.848 26.4855L128.849 26.4735L128.057 26.3636ZM126.761 34V34.8H127.437L127.55 34.1338L126.761 34ZM122.261 34L121.473 33.8662L121.314 34.8H122.261V34ZM123.557 26.3636L124.346 26.4974L124.348 26.4855L124.349 26.4735L123.557 26.3636ZM123.318 25.017L122.67 25.4863L122.674 25.4916L123.318 25.017ZM121.358 24.7443L120.964 24.0478L120.958 24.0516L121.358 24.7443ZM120.719 25.3835L120.036 24.9658L120.034 24.9698L120.719 25.3835ZM120.386 26.3636L121.175 26.4974L121.176 26.4896L121.178 26.4817L120.386 26.3636ZM119.091 34V34.8H119.767L119.88 34.1338L119.091 34ZM115.175 34.1315L117.357 21.0406L115.779 20.7776L113.597 33.8685L115.175 34.1315ZM116.568 21.7091H121.034V20.1091H116.568V21.7091ZM120.245 20.7793L119.836 23.268L121.414 23.5275L121.823 21.0389L120.245 20.7793ZM120.625 24.1977H120.761V22.5977H120.625V24.1977ZM121.479 23.7515C121.821 23.058 122.296 22.5223 122.909 22.1265L122.04 20.7826C121.175 21.3414 120.509 22.1011 120.044 23.0439L121.479 23.7515ZM122.909 22.1265C123.512 21.7363 124.187 21.5386 124.955 21.5386V19.9386C123.892 19.9386 122.914 20.2183 122.04 20.7826L122.909 22.1265ZM124.955 21.5386C125.721 21.5386 126.278 21.74 126.692 22.0857L127.717 20.8575C126.961 20.2259 126.018 19.9386 124.955 19.9386V21.5386ZM126.695 22.0886C127.087 22.4115 127.287 22.8239 127.291 23.4034L128.891 23.3921C128.884 22.3693 128.493 21.4976 127.714 20.8546L126.695 22.0886ZM128.091 24.1977H128.227V22.5977H128.091V24.1977ZM128.96 23.7197C129.241 23.0803 129.7 22.5607 130.37 22.1567L129.544 20.7865C128.612 21.3484 127.918 22.1129 127.495 23.0757L128.96 23.7197ZM130.374 22.1546C131.044 21.7457 131.788 21.5386 132.625 21.5386V19.9386C131.507 19.9386 130.473 20.2202 129.541 20.7886L130.374 22.1546ZM132.625 21.5386C133.681 21.5386 134.374 21.8708 134.839 22.4497L136.087 21.448C135.256 20.4133 134.057 19.9386 132.625 19.9386V21.5386ZM134.841 22.4523C135.309 23.0293 135.515 23.8479 135.314 25.0368L136.891 25.3041C137.144 23.8112 136.924 22.4821 136.085 21.4454L134.841 22.4523ZM135.313 25.0394L133.847 33.869L135.426 34.131L136.891 25.3015L135.313 25.0394ZM134.636 33.2H129.932V34.8H134.636V33.2ZM130.721 34.1338L132.016 26.4974L130.439 26.2298L129.143 33.8662L130.721 34.1338ZM132.02 26.4735C132.115 25.7839 132.041 25.0961 131.633 24.5425L130.345 25.4916C130.414 25.5857 130.498 25.7956 130.435 26.2538L132.02 26.4735ZM131.637 24.5478C131.216 23.9674 130.585 23.7227 129.898 23.7227V25.3227C130.188 25.3227 130.284 25.4076 130.341 25.4863L131.637 24.5478ZM129.898 23.7227C129.211 23.7227 128.599 23.9655 128.11 24.4465L129.231 25.5875C129.412 25.4095 129.618 25.3227 129.898 25.3227V23.7227ZM128.11 24.4465C127.625 24.9227 127.362 25.5502 127.264 26.2538L128.849 26.4735C128.911 26.0294 129.057 25.7591 129.231 25.5876L128.11 24.4465ZM127.268 26.2298L125.973 33.8662L127.55 34.1338L128.846 26.4974L127.268 26.2298ZM126.761 33.2H122.261V34.8H126.761V33.2ZM123.05 34.1338L124.346 26.4974L122.768 26.2298L121.473 33.8662L123.05 34.1338ZM124.349 26.4735C124.445 25.7839 124.37 25.0961 123.962 24.5425L122.674 25.4916C122.743 25.5857 122.828 25.7956 122.764 26.2538L124.349 26.4735ZM123.966 24.5478C123.546 23.9674 122.914 23.7227 122.227 23.7227V25.3227C122.518 25.3227 122.613 25.4076 122.67 25.4863L123.966 24.5478ZM122.227 23.7227C121.78 23.7227 121.353 23.8282 120.964 24.0479L121.752 25.4408C121.886 25.365 122.038 25.3227 122.227 25.3227V23.7227ZM120.958 24.0516C120.575 24.2729 120.269 24.5859 120.036 24.9658L121.401 25.8012C121.509 25.6243 121.63 25.5112 121.758 25.437L120.958 24.0516ZM120.034 24.9698C119.804 25.3498 119.664 25.7815 119.595 26.2455L121.178 26.4817C121.222 26.1844 121.304 25.9627 121.403 25.7972L120.034 24.9698ZM119.598 26.2298L118.302 33.8662L119.88 34.1338L121.175 26.4974L119.598 26.2298ZM119.091 33.2H114.386V34.8H119.091V33.2ZM139.684 33.4375L139.279 34.1276L139.282 34.1294L139.684 33.4375ZM137.741 31.1193L136.991 31.3974L136.991 31.3988L137.741 31.1193ZM137.536 27.4886L138.325 27.6222L138.325 27.6212L137.536 27.4886ZM138.942 23.9432L138.29 23.481L138.288 23.4834L138.942 23.9432ZM141.644 21.5824L141.278 20.8713L141.276 20.8721L141.644 21.5824ZM147.908 21.1989L147.604 21.9385L147.605 21.9393L147.908 21.1989ZM149.741 22.5369L149.118 23.0389L149.741 22.5369ZM150.695 24.6591L149.911 24.815L149.912 24.8212L150.695 24.6591ZM150.695 27.4545L149.906 27.3251L149.905 27.331L150.695 27.4545ZM150.525 28.5455V29.3455H151.21L151.315 28.669L150.525 28.5455ZM138.832 28.5455L138.041 28.4207L137.895 29.3455H138.832V28.5455ZM139.241 25.9545V25.1545H138.557L138.451 25.8298L139.241 25.9545ZM146.604 25.9545V26.7545H147.292L147.395 26.0744L146.604 25.9545ZM146.494 24.9659L145.759 25.2828L145.763 25.2916L145.767 25.3002L146.494 24.9659ZM145.888 24.2926L145.475 24.9773L145.483 24.9824L145.492 24.9872L145.888 24.2926ZM143.809 24.2926L143.461 23.5723L143.456 23.5747L143.809 24.2926ZM142.948 24.983L142.326 24.4802L142.32 24.4876L142.948 24.983ZM142.479 26.0227L141.695 25.8658L141.693 25.8753L142.479 26.0227ZM141.968 28.75L141.182 28.6026L141.18 28.6122L141.178 28.6219L141.968 28.75ZM142.045 29.875L142.797 29.6026L142.045 29.875ZM142.667 30.6506L143.096 29.9751L142.667 30.6506ZM144.712 30.804L144.942 31.5703L144.952 31.5673L144.712 30.804ZM145.479 30.4119L145.967 31.046L145.969 31.0443L145.479 30.4119ZM146.025 29.7727V28.9727H145.55L145.323 29.3896L146.025 29.7727ZM150.32 29.7727L151.078 30.0285L151.435 28.9727H150.32V29.7727ZM148.863 32.142L148.295 31.5788L148.295 31.5788L148.863 32.142ZM146.425 33.6932L146.709 34.4413L146.711 34.4404L146.425 33.6932ZM143.161 33.4386C141.862 33.4386 140.851 33.19 140.085 32.7456L139.282 34.1294C140.357 34.7531 141.665 35.0386 143.161 35.0386V33.4386ZM140.089 32.7474C139.328 32.3013 138.801 31.6741 138.49 30.8398L136.991 31.3988C137.43 32.5759 138.199 33.4941 139.279 34.1276L140.089 32.7474ZM138.491 30.8412C138.178 29.9973 138.102 28.9366 138.325 27.6222L136.747 27.3551C136.493 28.8589 136.554 30.2186 136.991 31.3974L138.491 30.8412ZM138.325 27.6212C138.535 26.3736 138.963 25.3064 139.597 24.4029L138.288 23.4834C137.502 24.6027 136.992 25.8991 136.747 27.356L138.325 27.6212ZM139.595 24.4054C140.239 23.4968 141.042 22.7955 142.012 22.2926L141.276 20.8721C140.076 21.4942 139.078 22.3669 138.29 23.481L139.595 24.4054ZM142.011 22.2934C142.977 21.7952 144.071 21.5386 145.309 21.5386V19.9386C143.842 19.9386 142.493 20.2446 141.278 20.8713L142.011 22.2934ZM145.309 21.5386C146.216 21.5386 146.975 21.6795 147.604 21.9385L148.213 20.4592C147.353 20.1046 146.379 19.9386 145.309 19.9386V21.5386ZM147.605 21.9393C148.24 22.1991 148.738 22.5671 149.118 23.0389L150.364 22.035C149.801 21.3363 149.076 20.8123 148.211 20.4584L147.605 21.9393ZM149.118 23.0389C149.499 23.5115 149.768 24.0961 149.911 24.8149L151.48 24.5032C151.293 23.563 150.926 22.7328 150.364 22.035L149.118 23.0389ZM149.912 24.8212C150.058 25.5282 150.064 26.3586 149.906 27.3251L151.485 27.584C151.667 26.4709 151.673 25.4377 151.479 24.497L149.912 24.8212ZM149.905 27.331L149.734 28.422L151.315 28.669L151.486 27.578L149.905 27.331ZM150.525 27.7455H138.832V29.3455H150.525V27.7455ZM139.622 28.6702L140.031 26.0793L138.451 25.8298L138.041 28.4207L139.622 28.6702ZM139.241 26.7545H146.604V25.1545H139.241V26.7545ZM147.395 26.0744C147.471 25.5782 147.429 25.0853 147.22 24.6316L145.767 25.3002C145.819 25.4147 145.852 25.5809 145.813 25.8347L147.395 26.0744ZM147.228 24.649C147.033 24.1974 146.712 23.8416 146.285 23.598L145.492 24.9872C145.622 25.0618 145.704 25.1549 145.759 25.2828L147.228 24.649ZM146.302 23.6079C145.881 23.3531 145.401 23.2455 144.9 23.2455V24.8455C145.171 24.8455 145.351 24.9026 145.475 24.9773L146.302 23.6079ZM144.9 23.2455C144.395 23.2455 143.913 23.354 143.461 23.5723L144.157 25.0129C144.387 24.9017 144.632 24.8455 144.9 24.8455V23.2455ZM143.456 23.5747C143.015 23.7916 142.636 24.0959 142.326 24.4803L143.571 25.4856C143.737 25.2791 143.933 25.1231 144.162 25.0106L143.456 23.5747ZM142.32 24.4876C142.003 24.8896 141.797 25.3544 141.695 25.8658L143.264 26.1796C143.321 25.8956 143.427 25.6672 143.576 25.4783L142.32 24.4876ZM141.693 25.8753L141.182 28.6026L142.754 28.8974L143.266 26.1702L141.693 25.8753ZM141.178 28.6219C141.093 29.1481 141.118 29.6648 141.293 30.1474L142.797 29.6026C142.733 29.4261 142.707 29.1928 142.758 28.8781L141.178 28.6219ZM141.293 30.1474C141.472 30.6431 141.793 31.0435 142.238 31.326L143.096 29.9751C142.95 29.8826 142.856 29.766 142.797 29.6026L141.293 30.1474ZM142.238 31.326C142.698 31.6177 143.24 31.7318 143.809 31.7318V30.1318C143.446 30.1318 143.227 30.0584 143.096 29.9751L142.238 31.326ZM143.809 31.7318C144.199 31.7318 144.578 31.6794 144.942 31.5702L144.482 30.0377C144.278 30.099 144.055 30.1318 143.809 30.1318V31.7318ZM144.952 31.5673C145.324 31.4507 145.665 31.2786 145.967 31.046L144.992 29.7778C144.851 29.8862 144.681 29.9755 144.473 30.0407L144.952 31.5673ZM145.969 31.0443C146.283 30.8012 146.537 30.5036 146.727 30.1558L145.323 29.3896C145.24 29.5419 145.13 29.6704 144.989 29.7796L145.969 31.0443ZM146.025 30.5727H150.32V28.9727H146.025V30.5727ZM149.562 29.5169C149.294 30.3123 148.872 30.9964 148.295 31.5788L149.431 32.7053C150.183 31.9468 150.733 31.0513 151.078 30.0285L149.562 29.5169ZM148.295 31.5788C147.724 32.1548 147.011 32.6129 146.14 32.9459L146.711 34.4404C147.772 34.0348 148.684 33.4589 149.431 32.7053L148.295 31.5788ZM146.142 32.945C145.287 33.2687 144.298 33.4386 143.161 33.4386V35.0386C144.456 35.0386 145.643 34.8449 146.709 34.4413L146.142 32.945ZM157.49 26.6364L156.702 26.5015L156.701 26.5048L157.49 26.6364ZM156.263 34V34.8H156.94L157.052 34.1315L156.263 34ZM151.558 34L150.769 33.8685L150.614 34.8H151.558V34ZM153.74 20.9091V20.1091H153.062L152.951 20.7776L153.74 20.9091ZM158.206 20.9091L158.995 21.0389L159.148 20.1091H158.206V20.9091ZM157.797 23.3977L157.007 23.268L156.855 24.1977H157.797V23.3977ZM157.933 23.3977V24.1977H158.429L158.65 23.7535L157.933 23.3977ZM159.749 21.446L160.153 22.1363L160.154 22.1354L159.749 21.446ZM164.709 21.3693L165.161 20.7094L164.709 21.3693ZM166.013 23.108L166.769 22.8463V22.8463L166.013 23.108ZM166.149 25.6477L165.361 25.5116L165.36 25.5157L166.149 25.6477ZM164.751 34V34.8H165.429L165.54 34.132L164.751 34ZM160.047 34L159.258 33.8685L159.103 34.8H160.047V34ZM161.274 26.6364L162.063 26.7679L161.274 26.6364ZM161.036 25.1108L160.382 25.573L160.387 25.5796L161.036 25.1108ZM158.692 24.8125L159.065 25.5202L159.07 25.5177L158.692 24.8125ZM157.908 25.5284L157.244 25.0819L157.242 25.0846L157.908 25.5284ZM156.701 26.5048L155.474 33.8685L157.052 34.1315L158.279 26.7679L156.701 26.5048ZM156.263 33.2H151.558V34.8H156.263V33.2ZM152.347 34.1315L154.529 21.0406L152.951 20.7776L150.769 33.8685L152.347 34.1315ZM153.74 21.7091H158.206V20.1091H153.74V21.7091ZM157.417 20.7793L157.007 23.268L158.586 23.5275L158.995 21.0389L157.417 20.7793ZM157.797 24.1977H157.933V22.5977H157.797V24.1977ZM158.65 23.7535C158.996 23.0561 159.493 22.5225 160.153 22.1363L159.344 20.7557C158.413 21.3013 157.7 22.0689 157.217 23.0419L158.65 23.7535ZM160.154 22.1354C160.828 21.7391 161.57 21.5386 162.399 21.5386V19.9386C161.296 19.9386 160.272 20.2097 159.343 20.7566L160.154 22.1354ZM162.399 21.5386C163.204 21.5386 163.806 21.7202 164.257 22.0293L165.161 20.7094C164.385 20.1775 163.447 19.9386 162.399 19.9386V21.5386ZM164.257 22.0293C164.721 22.3478 165.054 22.7841 165.257 23.3696L166.769 22.8463C166.46 21.9545 165.923 21.2318 165.161 20.7094L164.257 22.0293ZM165.257 23.3696C165.459 23.9534 165.508 24.6588 165.361 25.5116L166.937 25.7838C167.12 24.7275 167.078 23.7397 166.769 22.8463L165.257 23.3696ZM165.36 25.5157L163.962 33.868L165.54 34.132L166.938 25.7798L165.36 25.5157ZM164.751 33.2H160.047V34.8H164.751V33.2ZM160.836 34.1315L162.063 26.7679L160.485 26.5048L159.258 33.8685L160.836 34.1315ZM162.063 26.7679C162.191 26.0028 162.122 25.2487 161.684 24.642L160.387 25.5796C160.483 25.7115 160.573 25.9745 160.485 26.5048L162.063 26.7679ZM161.689 24.6487C161.23 24.0007 160.508 23.7568 159.74 23.7568V25.3568C160.177 25.3568 160.318 25.4823 160.382 25.5729L161.689 24.6487ZM159.74 23.7568C159.235 23.7568 158.755 23.8712 158.314 24.1073L159.07 25.5177C159.265 25.4129 159.484 25.3568 159.74 25.3568V23.7568ZM158.319 24.1048C157.881 24.3354 157.523 24.6671 157.244 25.0819L158.571 25.9749C158.713 25.7647 158.877 25.6192 159.065 25.5202L158.319 24.1048ZM157.242 25.0846C156.965 25.5005 156.791 25.9797 156.702 26.5015L158.279 26.7712C158.337 26.4294 158.441 26.1699 158.573 25.9722L157.242 25.0846ZM177.028 20.9091L177.817 21.0432L177.976 20.1091H177.028V20.9091ZM176.449 24.3182V25.1182H177.124L177.238 24.4523L176.449 24.3182ZM167.824 24.3182L167.035 24.1841L166.876 25.1182H167.824V24.3182ZM168.403 20.9091V20.1091H167.728L167.615 20.775L168.403 20.9091ZM170.585 17.7727V16.9727H169.907L169.796 17.6421L170.585 17.7727ZM175.29 17.7727L176.079 17.9037L176.233 16.9727H175.29V17.7727ZM173.295 29.7898L172.506 29.6588L172.505 29.6663L173.295 29.7898ZM173.312 30.25L172.55 30.4926L172.554 30.503L173.312 30.25ZM173.551 30.5227L173.18 31.2314L173.2 31.2418L173.22 31.251L173.551 30.5227ZM174.548 30.5568L174.683 31.3453L174.694 31.3434L174.705 31.3413L174.548 30.5568ZM175 30.4716L175.799 30.4386L175.762 29.5336L174.868 29.6825L175 30.4716ZM175.136 33.7784L175.356 34.5476L175.962 34.3746L175.936 33.7454L175.136 33.7784ZM174.173 34.0085L174.008 33.2257L173.995 33.2286L174.173 34.0085ZM172.784 34.1875L172.821 34.9867L172.827 34.9863L172.784 34.1875ZM170.091 33.8381L169.785 34.5774L169.788 34.5783L170.091 33.8381ZM168.659 32.5085L167.924 32.8245L167.928 32.8328L168.659 32.5085ZM168.523 30.233L169.309 30.3804L169.311 30.372L169.312 30.3636L168.523 30.233ZM176.24 20.775L175.66 24.1841L177.238 24.4523L177.817 21.0432L176.24 20.775ZM176.449 23.5182H167.824V25.1182H176.449V23.5182ZM168.613 24.4523L169.192 21.0432L167.615 20.775L167.035 24.1841L168.613 24.4523ZM168.403 21.7091H177.028V20.1091H168.403V21.7091ZM170.585 18.5727H175.29V16.9727H170.585V18.5727ZM174.501 17.6418L172.506 29.6588L174.085 29.9207L176.079 17.9037L174.501 17.6418ZM172.505 29.6663C172.465 29.9243 172.461 30.2116 172.55 30.4926L174.075 30.0074C174.08 30.0245 174.078 30.0279 174.078 30.0116C174.077 29.995 174.078 29.9632 174.086 29.9133L172.505 29.6663ZM172.554 30.503C172.664 30.8334 172.892 31.0804 173.18 31.2314L173.922 29.8141C173.94 29.8234 173.972 29.8439 174.004 29.8809C174.037 29.9187 174.059 29.9601 174.071 29.997L172.554 30.503ZM173.22 31.251C173.487 31.3724 173.778 31.408 174.045 31.408V29.808C173.979 29.808 173.933 29.8033 173.904 29.7983C173.875 29.7933 173.871 29.7892 173.882 29.7944L173.22 31.251ZM174.045 31.408C174.243 31.408 174.459 31.3838 174.683 31.3453L174.413 29.7683C174.24 29.798 174.121 29.808 174.045 29.808V31.408ZM174.705 31.3413C174.902 31.3019 175.042 31.2756 175.132 31.2607L174.868 29.6825C174.753 29.7017 174.592 29.7322 174.391 29.7724L174.705 31.3413ZM174.201 30.5046L174.337 33.8114L175.936 33.7454L175.799 30.4386L174.201 30.5046ZM174.917 33.0092C174.704 33.07 174.403 33.1423 174.008 33.2258L174.339 34.7912C174.75 34.7043 175.092 34.6232 175.356 34.5476L174.917 33.0092ZM173.995 33.2286C173.653 33.3069 173.237 33.362 172.741 33.3887L172.827 34.9863C173.388 34.9562 173.899 34.892 174.352 34.7884L173.995 33.2286ZM172.747 33.3884C171.711 33.4364 170.941 33.3219 170.394 33.0978L169.788 34.5783C170.627 34.9224 171.653 35.0408 172.821 34.9866L172.747 33.3884ZM170.396 33.0987C169.872 32.8822 169.563 32.5739 169.39 32.1843L167.928 32.8328C168.289 33.6477 168.934 34.2258 169.785 34.5774L170.396 33.0987ZM169.394 32.1926C169.216 31.778 169.157 31.1932 169.309 30.3804L167.736 30.0855C167.548 31.0909 167.58 32.0232 167.924 32.8245L169.394 32.1926ZM169.312 30.3636L171.374 17.9034L169.796 17.6421L167.733 30.1023L169.312 30.3636ZM16.0341 63L15.2449 62.869L15.0903 63.8H16.0341V63ZM18.9318 45.5455V44.7455H18.2537L18.1426 45.4144L18.9318 45.5455ZM31.6733 48.2898L32.4049 47.9662L31.6733 48.2898ZM31.9545 51.4773L31.1652 51.3469L31.165 51.3481L31.9545 51.4773ZM30.5994 54.6392L29.9792 54.134L29.9788 54.1344L30.5994 54.6392ZM27.9489 56.5824L28.2521 57.3227L28.2541 57.3219L27.9489 56.5824ZM19.8523 57.2386L19.0632 57.1071L18.9079 58.0386H19.8523V57.2386ZM20.4659 53.5568V52.7568H19.7882L19.6768 53.4253L20.4659 53.5568ZM25.4773 53.3523L25.7241 54.1133L25.7333 54.1102L25.4773 53.3523ZM26.5 52.6875L27.1042 53.2119L27.109 53.2063L26.5 52.6875ZM27.0114 51.4773L26.2213 51.3516L27.0114 51.4773ZM26.892 50.2585L26.1765 50.6163L26.1791 50.6215L26.892 50.2585ZM26.0994 49.5597L25.7925 50.2985L25.8023 50.3024L26.0994 49.5597ZM23.0568 49.3295V48.5295H22.3794L22.2678 49.1977L23.0568 49.3295ZM20.7727 63V63.8H21.4502L21.5618 63.1318L20.7727 63ZM27.5909 54.9886L28.3391 54.7053L28.1434 54.1886H27.5909V54.9886ZM30.625 63V63.8H31.7834L31.3731 62.7167L30.625 63ZM25.4773 63L24.726 63.2749L24.9182 63.8H25.4773V63ZM22.5455 54.9886V54.1886H21.4008L21.7942 55.2636L22.5455 54.9886ZM16.8233 63.131L19.721 45.6765L18.1426 45.4144L15.2449 62.869L16.8233 63.131ZM18.9318 46.3455H26.4659V44.7455H18.9318V46.3455ZM26.4659 46.3455C27.667 46.3455 28.6245 46.5643 29.3733 46.9601L30.1211 45.5456C29.0857 44.9982 27.8557 44.7455 26.4659 44.7455V46.3455ZM29.3733 46.9601C30.1134 47.3514 30.6255 47.8986 30.9417 48.6134L32.4049 47.9662C31.937 46.9082 31.165 46.0975 30.1211 45.5456L29.3733 46.9601ZM30.9417 48.6134C31.2545 49.3207 31.3518 50.2171 31.1652 51.3469L32.7439 51.6076C32.9664 50.2601 32.8762 49.0316 32.4049 47.9662L30.9417 48.6134ZM31.165 51.3481C30.9798 52.4804 30.5776 53.3993 29.9792 54.134L31.2197 55.1445C32.019 54.1632 32.5202 52.9742 32.744 51.6065L31.165 51.3481ZM29.9788 54.1344C29.3744 54.8775 28.6018 55.4475 27.6437 55.8429L28.2541 57.3219C29.4437 56.8309 30.4381 56.1055 31.2201 55.144L29.9788 54.1344ZM27.6457 55.8421C26.6872 56.2346 25.5935 56.4386 24.3523 56.4386V58.0386C25.7702 58.0386 27.0742 57.8051 28.2521 57.3227L27.6457 55.8421ZM24.3523 56.4386H19.8523V58.0386H24.3523V56.4386ZM20.6414 57.3702L21.255 53.6883L19.6768 53.4253L19.0632 57.1071L20.6414 57.3702ZM20.4659 54.3568H24.0114V52.7568H20.4659V54.3568ZM24.0114 54.3568C24.6312 54.3568 25.2063 54.2812 25.7241 54.1133L25.2305 52.5913C24.9073 52.6961 24.5051 52.7568 24.0114 52.7568V54.3568ZM25.7333 54.1102C26.2729 53.9279 26.7394 53.6322 27.1042 53.2119L25.8958 52.1631C25.7379 52.3451 25.5225 52.4926 25.2212 52.5944L25.7333 54.1102ZM27.109 53.2063C27.4873 52.7622 27.7047 52.2113 27.8014 51.603L26.2213 51.3516C26.159 51.7433 26.0354 51.9992 25.891 52.1687L27.109 53.2063ZM27.8014 51.603C27.8962 51.0072 27.868 50.4123 27.605 49.8956L26.1791 50.6215C26.2342 50.7298 26.2856 50.9473 26.2213 51.3516L27.8014 51.603ZM27.6076 49.9008C27.3504 49.3863 26.9247 49.0281 26.3965 48.8169L25.8023 50.3024C26.0128 50.3866 26.1156 50.4944 26.1765 50.6163L27.6076 49.9008ZM26.4063 48.8209C25.9113 48.6152 25.3421 48.5295 24.7273 48.5295V50.1295C25.2033 50.1295 25.549 50.1973 25.7925 50.2985L26.4063 48.8209ZM24.7273 48.5295H23.0568V50.1295H24.7273V48.5295ZM22.2678 49.1977L19.9837 62.8682L21.5618 63.1318L23.8459 49.4614L22.2678 49.1977ZM20.7727 62.2H16.0341V63.8H20.7727V62.2ZM26.8428 55.272L29.8769 63.2833L31.3731 62.7167L28.3391 54.7053L26.8428 55.272ZM30.625 62.2H25.4773V63.8H30.625V62.2ZM26.2285 62.7251L23.2967 54.7137L21.7942 55.2636L24.726 63.2749L26.2285 62.7251ZM22.5455 55.7886H27.5909V54.1886H22.5455V55.7886ZM41.8111 57.2727L41.022 57.1412L41.0206 57.1497L41.0193 57.1581L41.8111 57.2727ZM43.0384 49.9091V49.1091H42.3607L42.2492 49.7776L43.0384 49.9091ZM47.7429 49.9091L48.532 50.0406L48.6873 49.1091H47.7429V49.9091ZM45.5611 63V63.8H46.2388L46.3502 63.1315L45.5611 63ZM41.0952 63L40.3058 62.8702L40.1529 63.8H41.0952V63ZM41.5043 60.5114L42.2937 60.6411L42.4465 59.7114H41.5043V60.5114ZM41.3679 60.5114V59.7114H40.8659L40.6475 60.1634L41.3679 60.5114ZM39.5611 62.4716L39.9654 63.1619L39.9669 63.161L39.5611 62.4716ZM34.6094 62.5398L34.1572 63.1997L34.6094 62.5398ZM33.3054 60.8011L32.5494 61.0628L33.3054 60.8011ZM33.152 58.2614L32.3629 58.1293L32.3621 58.1344L33.152 58.2614ZM34.5497 49.9091V49.1091H33.8725L33.7607 49.7771L34.5497 49.9091ZM39.2543 49.9091L40.0434 50.0406L40.1986 49.1091H39.2543V49.9091ZM38.027 57.2727L37.2378 57.1412L37.2357 57.1547L38.027 57.2727ZM38.2741 58.7983L37.6211 59.2605L37.6259 59.2671L38.2741 58.7983ZM40.6179 59.1051L40.991 59.8128L40.9957 59.8103L40.6179 59.1051ZM41.402 58.3892L40.7382 57.9427L40.7363 57.9454L41.402 58.3892ZM42.6002 57.4042L43.8275 50.0406L42.2492 49.7776L41.022 57.1412L42.6002 57.4042ZM43.0384 50.7091H47.7429V49.1091H43.0384V50.7091ZM46.9538 49.7776L44.772 62.8685L46.3502 63.1315L48.532 50.0406L46.9538 49.7776ZM45.5611 62.2H41.0952V63.8H45.5611V62.2ZM41.8846 63.1298L42.2937 60.6411L40.7149 60.3816L40.3058 62.8702L41.8846 63.1298ZM41.5043 59.7114H41.3679V61.3114H41.5043V59.7114ZM40.6475 60.1634C40.3131 60.8559 39.8204 61.3906 39.1553 61.7822L39.9669 63.161C40.904 62.6094 41.6159 61.8373 42.0883 60.8593L40.6475 60.1634ZM39.1568 61.7813C38.4914 62.171 37.746 62.3705 36.902 62.3705V63.9705C38.0125 63.9705 39.0399 63.704 39.9654 63.1619L39.1568 61.7813ZM36.902 62.3705C36.1112 62.3705 35.5142 62.19 35.0616 61.8798L34.1572 63.1997C34.9318 63.7305 35.8633 63.9705 36.902 63.9705V62.3705ZM35.0616 61.8798C34.5967 61.5613 34.2641 61.125 34.0614 60.5394L32.5494 61.0628C32.8581 61.9545 33.3948 62.6773 34.1572 63.1997L35.0616 61.8798ZM34.0614 60.5394C33.858 59.9518 33.8045 59.2429 33.9419 58.3883L32.3621 58.1344C32.1927 59.1889 32.2415 60.1732 32.5494 61.0628L34.0614 60.5394ZM33.941 58.3934L35.3387 50.0411L33.7607 49.7771L32.363 58.1293L33.941 58.3934ZM34.5497 50.7091H39.2543V49.1091H34.5497V50.7091ZM38.4651 49.7776L37.2379 57.1412L38.8161 57.4042L40.0434 50.0406L38.4651 49.7776ZM37.2357 57.1547C37.1223 57.9156 37.1964 58.6603 37.6211 59.2604L38.9272 58.3362C38.8291 58.1976 38.7385 57.9254 38.8182 57.3907L37.2357 57.1547ZM37.6259 59.2671C38.0866 59.9042 38.7974 60.1523 39.5611 60.1523V58.5523C39.1429 58.5523 38.9958 58.431 38.9224 58.3295L37.6259 59.2671ZM39.5611 60.1523C40.0686 60.1523 40.5513 60.0446 40.991 59.8128L40.2448 58.3975C40.0595 58.4952 39.8376 58.5523 39.5611 58.5523V60.1523ZM40.9957 59.8103C41.4324 59.5763 41.7917 59.2468 42.0676 58.833L40.7363 57.9454C40.6032 58.1452 40.4397 58.293 40.2401 58.3999L40.9957 59.8103ZM42.0658 58.8357C42.3529 58.409 42.5258 57.9192 42.6028 57.3873L41.0193 57.1581C40.9713 57.4899 40.8716 57.7444 40.7382 57.9427L42.0658 58.8357ZM55.5561 45.5455L56.3453 45.6765L56.4999 44.7455H55.5561V45.5455ZM52.6584 63V63.8H53.3365L53.4476 63.131L52.6584 63ZM47.9538 63L47.1646 62.869L47.0101 63.8H47.9538V63ZM50.8516 45.5455V44.7455H50.1734L50.0624 45.4144L50.8516 45.5455ZM54.7669 45.4144L51.8692 62.869L53.4476 63.131L56.3453 45.6765L54.7669 45.4144ZM52.6584 62.2H47.9538V63.8H52.6584V62.2ZM48.743 63.131L51.6408 45.6765L50.0624 45.4144L47.1646 62.869L48.743 63.131ZM50.8516 46.3455H55.5561V44.7455H50.8516V46.3455ZM57.8168 62.4375L57.4121 63.1276L57.4153 63.1295L57.8168 62.4375ZM55.8736 60.1193L55.1235 60.3974L55.124 60.3988L55.8736 60.1193ZM55.669 56.4886L56.4578 56.6222L56.458 56.6212L55.669 56.4886ZM57.0753 52.9432L56.4223 52.481L56.4206 52.4834L57.0753 52.9432ZM59.777 50.5824L59.4104 49.8713L59.4088 49.8721L59.777 50.5824ZM66.0412 50.1989L65.7363 50.9385L65.7383 50.9393L66.0412 50.1989ZM67.8736 51.5369L67.2507 52.0389L67.8736 51.5369ZM68.8281 53.6591L68.0434 53.815L68.0447 53.8212L68.8281 53.6591ZM68.8281 56.4545L68.0386 56.3251L68.0377 56.331L68.8281 56.4545ZM68.6577 57.5455V58.3455H69.3424L69.4481 57.669L68.6577 57.5455ZM56.9645 57.5455L56.1743 57.4207L56.0283 58.3455H56.9645V57.5455ZM57.3736 54.9545V54.1545H56.69L56.5834 54.8298L57.3736 54.9545ZM64.7372 54.9545V55.7545H65.4251L65.5282 55.0744L64.7372 54.9545ZM64.6264 53.9659L63.8919 54.2828L63.8956 54.2916L63.8996 54.3002L64.6264 53.9659ZM64.0213 53.2926L63.6076 53.9773L63.6159 53.9824L63.6244 53.9872L64.0213 53.2926ZM61.9418 53.2926L61.5936 52.5723L61.5889 52.5747L61.9418 53.2926ZM61.081 53.983L60.4586 53.4803L60.4528 53.4876L61.081 53.983ZM60.6122 55.0227L59.8277 54.8658L59.8259 54.8753L60.6122 55.0227ZM60.1009 57.75L59.3146 57.6026L59.3127 57.6122L59.3112 57.6219L60.1009 57.75ZM60.1776 58.875L60.9298 58.6026L60.1776 58.875ZM60.7997 59.6506L61.2284 58.9751L60.7997 59.6506ZM62.8452 59.804L63.0751 60.5703L63.0846 60.5673L62.8452 59.804ZM63.6122 59.4119L64.1 60.046L64.1023 60.0443L63.6122 59.4119ZM64.1577 58.7727V57.9727H63.6828L63.4554 58.3896L64.1577 58.7727ZM68.4531 58.7727L69.2111 59.0285L69.5675 57.9727H68.4531V58.7727ZM66.9957 61.142L66.4277 60.5788L66.4276 60.5788L66.9957 61.142ZM64.5582 62.6932L64.8416 63.4413L64.8439 63.4404L64.5582 62.6932ZM61.294 62.4386C59.9944 62.4386 58.9843 62.19 58.2183 61.7455L57.4153 63.1295C58.4901 63.7531 59.7983 64.0386 61.294 64.0386V62.4386ZM58.2214 61.7474C57.4608 61.3013 56.9343 60.6741 56.6232 59.8398L55.124 60.3988C55.5629 61.5759 56.3318 62.4941 57.4121 63.1276L58.2214 61.7474ZM56.6237 59.8412C56.3108 58.9973 56.2352 57.9366 56.4578 56.6222L54.8803 56.3551C54.6256 57.8589 54.6864 59.2186 55.1235 60.3974L56.6237 59.8412ZM56.458 56.6212C56.6676 55.3736 57.0955 54.3064 57.73 53.4029L56.4206 52.4834C55.6346 53.6027 55.125 54.8991 54.8801 56.356L56.458 56.6212ZM57.7282 53.4054C58.3714 52.4968 59.1749 51.7955 60.1451 51.2926L59.4088 49.8721C58.2086 50.4942 57.211 51.3669 56.4223 52.481L57.7282 53.4054ZM60.1436 51.2934C61.11 50.7952 62.2038 50.5386 63.4418 50.5386V48.9386C61.9751 48.9386 60.6258 49.2446 59.4104 49.8713L60.1436 51.2934ZM63.4418 50.5386C64.349 50.5386 65.108 50.6795 65.7363 50.9385L66.3461 49.4592C65.4857 49.1046 64.5118 48.9386 63.4418 48.9386V50.5386ZM65.7383 50.9393C66.3732 51.1991 66.8704 51.5671 67.2507 52.0389L68.4965 51.035C67.9335 50.3363 67.2091 49.8123 66.3441 49.4584L65.7383 50.9393ZM67.2507 52.0389C67.6315 52.5115 67.9007 53.0961 68.0435 53.8149L69.6128 53.5032C69.426 52.563 69.0589 51.7328 68.4965 51.035L67.2507 52.0389ZM68.0447 53.8212C68.191 54.5282 68.1971 55.3586 68.0387 56.3251L69.6176 56.584C69.8 55.4709 69.8062 54.4377 69.6115 53.497L68.0447 53.8212ZM68.0377 56.331L67.8673 57.422L69.4481 57.669L69.6185 56.578L68.0377 56.331ZM68.6577 56.7455H56.9645V58.3455H68.6577V56.7455ZM57.7547 57.6702L58.1638 55.0793L56.5834 54.8298L56.1743 57.4207L57.7547 57.6702ZM57.3736 55.7545H64.7372V54.1545H57.3736V55.7545ZM65.5282 55.0744C65.6034 54.5782 65.5619 54.0853 65.3532 53.6316L63.8996 54.3002C63.9523 54.4147 63.9847 54.5809 63.9462 54.8347L65.5282 55.0744ZM65.361 53.649C65.1661 53.1974 64.8445 52.8416 64.4182 52.598L63.6244 53.9872C63.7549 54.0618 63.8367 54.1549 63.8919 54.2828L65.361 53.649ZM64.435 52.6079C64.0133 52.3531 63.5338 52.2455 63.0327 52.2455V53.8455C63.3043 53.8455 63.4838 53.9026 63.6076 53.9773L64.435 52.6079ZM63.0327 52.2455C62.5283 52.2455 62.0454 52.354 61.5936 52.5723L62.2899 54.0129C62.52 53.9017 62.7643 53.8455 63.0327 53.8455V52.2455ZM61.5889 52.5747C61.1474 52.7916 60.7691 53.0959 60.4586 53.4803L61.7033 54.4856C61.8701 54.2791 62.0656 54.1231 62.2947 54.0106L61.5889 52.5747ZM60.4528 53.4876C60.1358 53.8896 59.93 54.3544 59.8278 54.8658L61.3967 55.1796C61.4535 54.8956 61.5602 54.6672 61.7092 54.4783L60.4528 53.4876ZM59.8259 54.8753L59.3146 57.6026L60.8871 57.8974L61.3985 55.1702L59.8259 54.8753ZM59.3112 57.6219C59.2258 58.1481 59.2506 58.6648 59.4253 59.1474L60.9298 58.6026C60.8658 58.4261 60.8395 58.1928 60.8905 57.8781L59.3112 57.6219ZM59.4253 59.1474C59.6048 59.6431 59.9259 60.0435 60.3711 60.326L61.2284 58.9751C61.0827 58.8826 60.9889 58.766 60.9298 58.6026L59.4253 59.1474ZM60.3711 60.326C60.8306 60.6177 61.3731 60.7318 61.9418 60.7318V59.1318C61.5786 59.1318 61.3597 59.0584 61.2284 58.9751L60.3711 60.326ZM61.9418 60.7318C62.3321 60.7318 62.7112 60.6794 63.0751 60.5702L62.6153 59.0377C62.411 59.099 62.1877 59.1318 61.9418 59.1318V60.7318ZM63.0846 60.5673C63.4564 60.4507 63.7977 60.2786 64.1 60.046L63.1244 58.7778C62.9836 58.8862 62.8135 58.9755 62.6057 59.0407L63.0846 60.5673ZM64.1023 60.0443C64.4159 59.8012 64.6703 59.5036 64.86 59.1558L63.4554 58.3896C63.3723 58.5419 63.2631 58.6704 63.1222 58.7796L64.1023 60.0443ZM64.1577 59.5727H68.4531V57.9727H64.1577V59.5727ZM67.6951 58.5169C67.4267 59.3123 67.0051 59.9964 66.4277 60.5788L67.5638 61.7053C68.316 60.9468 68.8659 60.0513 69.2111 59.0285L67.6951 58.5169ZM66.4276 60.5788C65.8566 61.1548 65.1435 61.6129 64.2725 61.9459L64.8439 63.4404C65.9048 63.0348 66.8167 62.4589 67.5638 61.7053L66.4276 60.5788ZM64.2749 61.945C63.4202 62.2687 62.4306 62.4386 61.294 62.4386V64.0386C62.5893 64.0386 63.7758 63.8449 64.8416 63.4413L64.2749 61.945ZM83.0547 54.1705V54.9705H83.7562L83.8478 54.2749L83.0547 54.1705ZM78.8274 54.1705L78.0302 54.104L77.958 54.9705H78.8274V54.1705ZM78.1797 53.0284L77.8297 53.7478L77.8372 53.7514L78.1797 53.0284ZM76.1939 53.1903L76.5726 53.8951L76.5806 53.8907L76.1939 53.1903ZM75.5547 54L76.3364 54.1699L76.3432 54.1389L76.3474 54.1075L75.5547 54ZM76.5774 54.6818L76.4205 55.4664L76.4325 55.4686L76.5774 54.6818ZM79.1683 55.1591L79.3133 54.3723L79.1683 55.1591ZM81.9979 56.4631L81.4141 57.0101L81.4192 57.0154L81.9979 56.4631ZM82.6456 58.9432L83.4341 59.0788L83.4355 59.0697L82.6456 58.9432ZM81.4695 61.2443L80.8988 60.6837L81.4695 61.2443ZM79.0661 62.7273L79.3323 63.4817L79.3348 63.4808L79.0661 62.7273ZM71.2251 62.0028L70.7233 62.6258L70.725 62.6272L71.2251 62.0028ZM69.8274 58.7727V57.9727H69.0802L69.0293 58.7182L69.8274 58.7727ZM74.3956 58.7727L75.1953 58.7514L75.1745 57.9727H74.3956V58.7727ZM74.8217 59.7358L74.3252 60.363L74.3323 60.3687L74.3396 60.3742L74.8217 59.7358ZM75.9297 60.0682L75.9569 59.2686L75.9494 59.2684L75.9297 60.0682ZM77.2422 59.7699L77.6414 60.4632L77.6492 60.4586L77.2422 59.7699ZM77.8729 58.9432L78.6654 59.0525L78.6679 59.0341L78.6696 59.0156L77.8729 58.9432ZM77.6257 58.517L77.241 59.2186L77.2504 59.2235L77.6257 58.517ZM76.6115 58.2273L76.7633 57.4417L76.7546 57.4402L76.6115 58.2273ZM74.3615 57.8182L74.5046 57.0311L74.5031 57.0308L74.3615 57.8182ZM71.532 56.4205L70.919 56.9345L70.9211 56.937L71.532 56.4205ZM70.9183 53.7273L70.1296 53.5932L70.1292 53.5958L70.9183 53.7273ZM71.9751 51.5369L71.3957 50.9853L71.3929 50.9883L71.9751 51.5369ZM74.1911 50.1989L74.4412 50.9588L74.4454 50.9573L74.1911 50.1989ZM81.8104 50.9233L81.3163 51.5525L81.3202 51.5555L81.8104 50.9233ZM83.0547 53.3705H78.8274V54.9705H83.0547V53.3705ZM79.6247 54.2369C79.6586 53.8295 79.5897 53.4179 79.3632 53.0512L78.0019 53.892C78.014 53.9116 78.0417 53.966 78.0302 54.104L79.6247 54.2369ZM79.3632 53.0512C79.1584 52.7196 78.87 52.4702 78.5222 52.3054L77.8372 53.7514C77.9212 53.7912 77.9681 53.8372 78.0019 53.892L79.3632 53.0512ZM78.5297 52.309C78.1958 52.1466 77.8348 52.075 77.4638 52.075V53.675C77.6269 53.675 77.7431 53.7057 77.8297 53.7478L78.5297 52.309ZM77.4638 52.075C76.8726 52.075 76.3147 52.2098 75.8072 52.49L76.5806 53.8907C76.8345 53.7505 77.1232 53.675 77.4638 53.675V52.075ZM75.8152 52.4856C75.2782 52.7742 74.8512 53.2343 74.7619 53.8925L76.3474 54.1075C76.3491 54.0952 76.3482 54.0156 76.5725 53.8951L75.8152 52.4856ZM74.7729 53.8301C74.6744 54.2833 74.8556 54.6709 75.1168 54.9322L76.2482 53.8008C76.2564 53.809 76.2939 53.8493 76.3207 53.9261C76.3497 54.0092 76.3525 54.0962 76.3364 54.1699L74.7729 53.8301ZM75.1168 54.9322C75.3061 55.1214 75.5523 55.224 75.7256 55.2851C75.9242 55.355 76.16 55.4142 76.4205 55.4663L76.7343 53.8974C76.5119 53.8529 76.3571 53.8111 76.2574 53.776C76.2081 53.7587 76.184 53.747 76.1776 53.7435C76.1676 53.7382 76.2014 53.754 76.2482 53.8008L75.1168 54.9322ZM76.4325 55.4686L79.0234 55.9459L79.3133 54.3723L76.7223 53.8951L76.4325 55.4686ZM79.0234 55.9459C80.2338 56.1688 80.987 56.5542 81.4141 57.01L82.5817 55.9161C81.8269 55.1106 80.6938 54.6266 79.3133 54.3723L79.0234 55.9459ZM81.4192 57.0154C81.8069 57.4217 81.99 57.9783 81.8557 58.8166L83.4355 59.0697C83.6308 57.8512 83.382 56.7545 82.5766 55.9107L81.4192 57.0154ZM81.8572 58.8076C81.7312 59.5401 81.4146 60.1586 80.8988 60.6837L82.0402 61.8049C82.7857 61.046 83.2532 60.1304 83.434 59.0788L81.8572 58.8076ZM80.8988 60.6837C80.3644 61.2277 79.6716 61.6619 78.7973 61.9738L79.3348 63.4808C80.4037 63.0995 81.3131 62.5451 82.0402 61.8049L80.8988 60.6837ZM78.7998 61.9729C77.9307 62.2796 76.954 62.4386 75.8615 62.4386V64.0386C77.1099 64.0386 78.2696 63.8567 79.3323 63.4817L78.7998 61.9729ZM75.8615 62.4386C73.884 62.4386 72.5512 62.0401 71.7253 61.3785L70.725 62.6272C71.9559 63.6133 73.714 64.0386 75.8615 64.0386V62.4386ZM71.727 61.3798C70.9113 60.7228 70.5522 59.9007 70.6255 58.8273L69.0293 58.7182C68.9209 60.3038 69.4935 61.6352 70.7233 62.6258L71.727 61.3798ZM69.8274 59.5727H74.3956V57.9727H69.8274V59.5727ZM73.5959 58.7941C73.612 59.3986 73.8252 59.9672 74.3252 60.363L75.3183 59.1086C75.2728 59.0726 75.2019 58.9991 75.1953 58.7514L73.5959 58.7941ZM74.3396 60.3742C74.7884 60.7131 75.3355 60.8538 75.9099 60.8679L75.9494 59.2684C75.6034 59.2599 75.4119 59.179 75.3038 59.0974L74.3396 60.3742ZM75.9024 60.8677C76.5279 60.889 77.1178 60.7647 77.6414 60.4632L76.843 59.0766C76.6166 59.2069 76.3314 59.2814 75.9569 59.2686L75.9024 60.8677ZM77.6492 60.4586C78.1641 60.1544 78.5768 59.6946 78.6654 59.0525L77.0804 58.8339C77.078 58.8509 77.0703 58.9422 76.8352 59.0811L77.6492 60.4586ZM78.6696 59.0156C78.6908 58.7819 78.652 58.5293 78.5159 58.2946C78.3828 58.0652 78.1906 57.9113 78.001 57.8106L77.2504 59.2235C77.2426 59.2194 77.1825 59.1848 77.1318 59.0974C77.0781 59.0048 77.072 58.9169 77.0762 58.8708L78.6696 59.0156ZM78.0104 57.8156C77.7111 57.6515 77.2572 57.5372 76.7632 57.4418L76.4598 59.0127C76.696 59.0584 76.8811 59.1016 77.0203 59.1414C77.0894 59.1611 77.1425 59.1787 77.1819 59.1935C77.2013 59.2008 77.2159 59.2068 77.2263 59.2115C77.2368 59.2162 77.2413 59.2186 77.241 59.2185L78.0104 57.8156ZM76.7546 57.4402L74.5046 57.0311L74.2184 58.6053L76.4684 59.0144L76.7546 57.4402ZM74.5031 57.0308C73.3123 56.8167 72.5706 56.4098 72.1429 55.9039L70.9211 56.937C71.6751 57.8288 72.8198 58.3538 74.2199 58.6056L74.5031 57.0308ZM72.1449 55.9064C71.7347 55.4173 71.5555 54.7704 71.7074 53.8588L70.1292 53.5958C69.9175 54.866 70.1474 56.0145 70.919 56.9345L72.1449 55.9064ZM71.707 53.8613C71.8307 53.1335 72.1181 52.5518 72.5574 52.0856L71.3929 50.9883C70.7186 51.7039 70.3014 52.5824 70.1296 53.5932L71.707 53.8613ZM72.5546 52.0885C73.0111 51.609 73.6291 51.2261 74.4412 50.9587L73.9409 49.439C72.9235 49.7739 72.0642 50.2831 71.3957 50.9853L72.5546 52.0885ZM74.4454 50.9573C75.2611 50.6838 76.229 50.5386 77.3615 50.5386V48.9386C76.0963 48.9386 74.9505 49.1003 73.9367 49.4404L74.4454 50.9573ZM77.3615 50.5386C79.233 50.5386 80.5091 50.9186 81.3163 51.5525L82.3045 50.2941C81.1002 49.3484 79.4104 48.9386 77.3615 48.9386V50.5386ZM81.3202 51.5555C82.0837 52.1475 82.4102 52.9371 82.2615 54.066L83.8478 54.2749C84.0628 52.6424 83.5597 51.2673 82.3005 50.291L81.3202 51.5555Z" fill="black" mask="url(#path-2-outside-1_547_10336)"/>
</g>
<defs>
<filter id="filter0_dd_547_10336" x="15.4531" y="15.25" width="162.774" height="49.4885" filterUnits="userSpaceOnUse" color-interpolation-filters="sRGB">
<feFlood flood-opacity="0" result="BackgroundImageFix"/>
<feColorMatrix in="SourceAlpha" type="matrix" values="0 0 0 0 0 0 0 0 0 0 0 0 0 0 0 0 0 0 127 0" result="hardAlpha"/>
<feOffset dx="1.2" dy="1.5"/>
<feComposite in2="hardAlpha" operator="out"/>
<feColorMatrix type="matrix" values="0 0 0 0 0 0 0 0 0 0 0 0 0 0 0 0 0 0 1 0"/>
<feBlend mode="normal" in2="BackgroundImageFix" result="effect1_dropShadow_547_10336"/>
<feColorMatrix in="SourceAlpha" type="matrix" values="0 0 0 0 0 0 0 0 0 0 0 0 0 0 0 0 0 0 127 0" result="hardAlpha"/>
<feOffset dx="1" dy="1"/>
<feComposite in2="hardAlpha" operator="out"/>
<feColorMatrix type="matrix" values="0 0 0 0 0.32436 0 0 0 0 0.75625 0 0 0 0 0.541196 0 0 0 1 0"/>
<feBlend mode="normal" in2="effect1_dropShadow_547_10336" result="effect2_dropShadow_547_10336"/>
<feBlend mode="normal" in="SourceGraphic" in2="effect2_dropShadow_547_10336" result="shape"/>
</filter>
<linearGradient id="paint0_linear_547_10336" x1="0" y1="0" x2="384.648" y2="54.1487" gradientUnits="userSpaceOnUse">
<stop stop-color="#ACBFFF"/>
<stop offset="1" stop-color="#A8FABF"/>
</linearGradient>
</defs>
</svg>
