<svg width="82" height="105" viewBox="0 0 82 105" fill="none" xmlns="http://www.w3.org/2000/svg">
<path d="M17.0024 68.1625L17.871 71.4284C17.894 71.5148 17.9613 71.5823 18.0476 71.6055L21.0274 72.4081L18.0302 73.175C17.9421 73.1976 17.8732 73.2662 17.8502 73.3542L17.0247 76.5222L16.263 73.3587C16.2412 73.2682 16.1709 73.1973 16.0806 73.1747L12.9916 72.4017L15.8618 71.605C15.9449 71.582 16.0102 71.5177 16.0347 71.435L17.0024 68.1625Z" fill="#B27AFF" stroke="black" stroke-width="0.5" stroke-miterlimit="10" stroke-linecap="round" stroke-linejoin="round"/>
<path d="M66.6968 18.982C68.6135 17.0539 71.3402 16.1544 74.0279 16.5637C72.0997 14.6471 71.2003 11.9204 71.6096 9.23269C69.6929 11.1608 66.9662 12.0603 64.2785 11.651C66.2067 13.5676 67.1061 16.2943 66.6968 18.982Z" fill="#FFD1C1" stroke="black" stroke-width="0.5" stroke-linejoin="round"/>
<path d="M32 2.92753C34.2276 11.9322 44.7783 16.3024 52.7207 11.5103C47.9286 19.4527 52.2988 30.0034 61.3034 32.231C52.2988 34.4585 47.9286 45.0092 52.7207 52.9516C44.7783 48.1595 34.2276 52.5298 32 61.5344C29.7724 52.5298 19.2217 48.1595 11.2793 52.9516C16.0714 45.0092 11.7012 34.4585 2.69657 32.231C11.7012 30.0034 16.0714 19.4527 11.2793 11.5103C19.2217 16.3024 29.7724 11.9322 32 2.92753Z" fill="#BEFF6C" stroke="black" stroke-width="0.8"/>
<path d="M54.3433 80.887C54.3433 80.887 54.3433 80.887 54.3433 80.887C52.3232 80.8873 50.3228 80.4897 48.4564 79.7167C46.59 78.9438 44.8941 77.8108 43.4656 76.3823C42.0372 74.9539 40.9041 73.258 40.1312 71.3916C39.3583 69.5252 38.9606 67.5248 38.9609 65.5047C38.9609 65.5047 38.9609 65.5047 38.9609 65.5046V51.9657C38.9609 51.1504 39.2848 50.3684 39.8614 49.7918C40.438 49.2153 41.2199 48.8914 42.0353 48.8914H67.9625C68.3662 48.8914 68.766 48.9709 69.139 49.1254C69.512 49.2799 69.8509 49.5063 70.1364 49.7918C70.4219 50.0773 70.6483 50.4162 70.8028 50.7892C70.9573 51.1622 71.0368 51.562 71.0368 51.9657V65.5046C71.0368 65.5047 71.0368 65.5047 71.0368 65.5047C71.0371 67.525 70.6394 69.5256 69.8663 71.3921C69.0933 73.2587 67.96 74.9547 66.5313 76.3832C65.1026 77.8116 63.4065 78.9446 61.5398 79.7174C59.6731 80.4902 57.6725 80.8876 55.6522 80.887H54.3433ZM54.3433 80.887H55.6521H54.3433Z" fill="#FF9529" stroke="black"/>
<path d="M70.9961 70.8257C72.8554 70.8441 74.6461 70.1237 75.9747 68.8228C77.3041 67.5213 78.0621 65.7451 78.0823 63.8849L78.0823 63.8849V63.8794L78.0824 55.8973L78.0823 55.8916C78.0789 55.588 78.0155 55.2881 77.8958 55.0091C77.7761 54.7301 77.6024 54.4775 77.3847 54.2658C77.1671 54.0542 76.9097 53.8876 76.6275 53.7757C76.3453 53.6638 76.0437 53.6088 75.7401 53.6138L75.606 53.6161H71.3678H70.8678V54.1161V56.8028V57.3028H71.3678L74.0956 57.3028L74.1015 57.3027C74.1641 57.302 74.2262 57.3136 74.2843 57.3369C74.3424 57.3601 74.3953 57.3946 74.4401 57.4384C74.4849 57.4821 74.5206 57.5342 74.5452 57.5918C74.5695 57.6486 74.5826 57.7095 74.5836 57.7713V64.0786C74.5789 64.512 74.4889 64.9402 74.3189 65.3389C74.1486 65.7384 73.9012 66.1004 73.5909 66.4042C73.2806 66.708 72.9135 66.9477 72.5105 67.1096C72.1076 67.2715 71.6766 67.3524 71.2424 67.3476V67.3476H71.2369H70.2948H69.8768L69.8027 67.7589C69.6557 68.5744 69.4385 69.3757 69.1536 70.1538L68.9075 70.8257H69.6231H70.9961ZM35.4046 64.0784V57.7713C35.4056 57.7095 35.4186 57.6486 35.4429 57.5918C35.4676 57.5342 35.5033 57.4821 35.548 57.4384C35.5928 57.3946 35.6458 57.3601 35.7039 57.3369C35.762 57.3136 35.8241 57.302 35.8867 57.3027L35.8867 57.3028H35.8926H39.4642H39.9642V56.8028V54.1161V53.6161H39.4642H34.3982L34.2641 53.6138C33.9605 53.6088 33.659 53.6638 33.3767 53.7757C33.0945 53.8876 32.8371 54.0542 32.6195 54.2658C32.4018 54.4775 32.2282 54.7301 32.1084 55.0091C31.9887 55.2881 31.9253 55.588 31.9219 55.8916L31.9219 55.8916V55.8973V63.8794H31.9218L31.9219 63.8849C31.9421 65.7451 32.7002 67.5213 34.0295 68.8228C35.3581 70.1237 37.1488 70.8441 39.0082 70.8257H40.3811H41.0967L40.8506 70.1538C40.5657 69.3757 40.3485 68.5744 40.2015 67.7589L40.1274 67.3476H39.7094H38.7512V67.3476L38.7461 67.3476C37.8691 67.3567 37.0245 67.0171 36.3979 66.4035C35.7719 65.7906 35.4147 64.9543 35.4046 64.0784Z" fill="#F29727" stroke="black"/>
<path d="M58.2881 60.2627L58.2867 60.2625C58.2001 60.2505 58.1176 60.2178 58.0463 60.1672C57.9753 60.1168 57.9174 60.0501 57.8775 59.9728C57.8774 59.9724 57.8772 59.9721 57.877 59.9717L56.1988 56.645C56.0874 56.4192 55.9151 56.229 55.7014 56.0959C55.487 55.9623 55.2395 55.8915 54.9869 55.8915C54.7343 55.8915 54.4867 55.9623 54.2723 56.0959C54.0586 56.229 53.8863 56.4193 53.7749 56.6451L52.0964 59.9723C52.0562 60.0496 51.9982 60.1162 51.9271 60.1667C51.8555 60.2175 51.7729 60.2503 51.686 60.2626L51.6856 60.2627L47.9365 60.7963C47.6902 60.8272 47.4577 60.9271 47.2657 61.0845C47.0726 61.2428 46.9284 61.4527 46.8501 61.6898C46.7718 61.9269 46.7624 62.1814 46.8232 62.4235C46.8839 62.6656 47.0122 62.8853 47.193 63.0573C47.1931 63.0574 47.1932 63.0575 47.1933 63.0576L49.9091 65.6519L49.9092 65.652C49.9705 65.7105 50.0164 65.7832 50.043 65.8637C50.0696 65.944 50.076 66.0296 50.0618 66.1129C50.0617 66.1131 50.0617 66.1132 50.0617 66.1134L49.4223 69.7802L49.4222 69.7802L49.4214 69.7852C49.3816 70.0324 49.4118 70.2857 49.5088 70.5165C49.6058 70.7473 49.7656 70.9462 49.97 71.0906C50.1744 71.2351 50.4153 71.3193 50.6652 71.3337C50.9133 71.3479 51.1604 71.2928 51.3789 71.1745L54.7307 69.4482C54.8099 69.4075 54.8977 69.3863 54.9869 69.3863C55.076 69.3863 55.1638 69.4075 55.243 69.4482L58.5948 71.1745C58.8133 71.2928 59.0604 71.3479 59.3085 71.3337C59.5584 71.3193 59.7993 71.2351 60.0037 71.0906C60.2081 70.9462 60.3679 70.7473 60.4649 70.5165C60.5619 70.2857 60.5921 70.0324 60.5523 69.7852L60.5523 69.7852L60.5514 69.7802L59.912 66.1134C59.912 66.1132 59.912 66.113 59.9119 66.1127C59.8977 66.0294 59.9042 65.9439 59.9307 65.8637C59.9573 65.7832 60.0032 65.7105 60.0645 65.652L60.0646 65.6519L62.7804 63.0576C62.7805 63.0575 62.7806 63.0574 62.7807 63.0573C62.9615 62.8854 63.0898 62.6656 63.1505 62.4235C63.2113 62.1814 63.202 61.9269 63.1236 61.6898C63.0453 61.4527 62.9012 61.2428 62.708 61.0845C62.5161 60.9271 62.2835 60.8272 62.0372 60.7963L58.2881 60.2627Z" fill="#0CFF4D" stroke="black" stroke-width="0.8"/>
<path d="M66.1451 97.0462H65.6441H44.3477H43.8477V96.5462V89.5933V89.5927C43.8484 88.9486 44.1046 88.331 44.5601 87.8755C45.0156 87.4201 45.6331 87.1638 46.2773 87.1631L46.2779 87.1631L63.7002 87.1631H63.7008C64.3449 87.1638 64.9624 87.4201 65.4179 87.8755C65.8734 88.331 66.1296 88.9486 66.1304 89.5927M66.1451 97.0462L66.1304 89.5927M66.1451 97.0462L66.1441 96.5452M66.1451 97.0462L66.1441 96.5452M66.1304 89.5927L66.1441 96.5452M66.1304 89.5927L66.1441 96.5452" fill="#588EFF" stroke="black"/>
<path d="M58.8282 93.6144H51.1715C51.0009 93.6138 50.8374 93.5457 50.7167 93.4251C50.596 93.3044 50.5279 93.1409 50.5273 92.9702V91.549C50.5279 91.3783 50.596 91.2148 50.7167 91.0941C50.8374 90.9735 51.0009 90.9054 51.1715 90.9048H58.8282C58.9988 90.9054 59.1623 90.9735 59.283 91.0941C59.4037 91.2148 59.4717 91.3783 59.4723 91.549V92.9702C59.4723 93.0548 59.4557 93.1386 59.4233 93.2168C59.3909 93.2949 59.3435 93.3659 59.2837 93.4257C59.2238 93.4856 59.1528 93.533 59.0747 93.5654C58.9965 93.5978 58.9128 93.6144 58.8282 93.6144Z" fill="#00FF22"/>
<path d="M72.6797 103.557H72.68C73.6562 103.556 74.5922 103.168 75.2825 102.478C75.9727 101.787 76.3608 100.851 76.3615 99.8751V99.8748V99.7326V99.7323C76.3608 98.7561 75.9727 97.8201 75.2825 97.1298C74.5922 96.4396 73.6562 96.0515 72.68 96.0508H72.6797L37.3147 96.0508L37.3143 96.0508C36.3381 96.0515 35.4021 96.4396 34.7119 97.1298C34.0216 97.8201 33.6335 98.7561 33.6328 99.7323V99.7326L33.6328 99.8748L33.6328 99.8751C33.6335 100.851 34.0216 101.787 34.7119 102.478C35.4021 103.168 36.3381 103.556 37.3143 103.557H37.3147H72.6797Z" fill="#588EFF" stroke="black"/>
<path d="M54.998 79.887L54.9979 79.887C53.9156 79.8864 52.8365 79.7717 51.7783 79.5451L51.2582 79.4337L51.1791 79.9597L50.0329 87.5865L49.9466 88.1609H50.5273H59.4677H60.0395L59.9633 87.5942L58.934 79.9421L58.8613 79.402L58.3294 79.5208C57.2358 79.7652 56.1185 79.888 54.998 79.887Z" fill="#FF9529" stroke="black"/>
<path d="M41.3407 53.3184C41.3407 50.7463 42.8537 50.8816 42.8537 50.8816H65.6173C67.2596 50.7832 68.9061 50.9828 70.4772 51.4707C70.3415 50.8768 70.0072 50.347 69.5295 49.9689C69.0518 49.5909 68.4593 49.3872 67.8501 49.3915H42.1476C41.7984 49.3879 41.4519 49.4531 41.1279 49.5834C40.8039 49.7136 40.5087 49.9065 40.2592 50.1509C40.0097 50.3952 39.8108 50.6864 39.6738 51.0076C39.5369 51.3289 39.4645 51.674 39.4609 52.0232V65.1724C39.465 67.4106 39.9677 69.6198 40.9324 71.6393C41.8972 73.6589 43.2998 75.4381 45.0384 76.8477C40.841 73.2624 41.3407 66.5869 41.3407 66.5869V53.3184Z" fill="#F7AC5C"/>
<path d="M60.8796 77.336C58.9494 77.9664 51.9759 80.7402 45.0391 76.8477C47.8494 79.145 51.3698 80.396 54.9996 80.3872C59.0778 80.4294 63.0058 78.8499 65.9197 75.9963C68.8335 73.1426 70.4946 69.2484 70.5375 65.1702C69.3463 66.1062 68.7858 70.2596 67.1124 72.3675C65.439 74.4755 63.3075 76.1746 60.8796 77.336Z" fill="#FC774B"/>
<path d="M56.0989 57.3301L55.8421 56.8212C55.7616 56.6664 55.6401 56.5367 55.491 56.4462C55.3418 56.3557 55.1707 56.3079 54.9962 56.3079C54.8218 56.3079 54.6506 56.3557 54.5015 56.4462C54.3524 56.5367 54.2309 56.6664 54.1503 56.8212L52.47 60.152C52.4007 60.287 52.3 60.4033 52.1763 60.4911C52.0526 60.5789 51.9096 60.6356 51.7593 60.6564L48.0067 61.1905C47.8346 61.212 47.6721 61.2818 47.5381 61.3918C47.4041 61.5019 47.304 61.6477 47.2495 61.8124C47.1951 61.977 47.1884 62.1537 47.2303 62.322C47.2722 62.4903 47.361 62.6432 47.4863 62.7631L47.8989 63.1551C47.8989 63.1413 47.9127 63.1253 47.915 63.1138C47.8614 63.0041 47.8309 62.8845 47.8251 62.7625C47.8193 62.6405 47.8384 62.5186 47.8813 62.4043C47.9243 62.2899 47.99 62.1855 48.0746 62.0974C48.1592 62.0094 48.2609 61.9395 48.3735 61.892C48.3735 61.892 50.5948 61.6077 51.9129 61.4197C52.2523 61.4083 52.5805 61.296 52.8557 61.0972C53.1309 60.8983 53.3406 60.6219 53.458 60.3033C53.458 60.3033 54.1664 58.9967 54.6684 57.7817C54.6995 57.6321 54.7699 57.4935 54.8723 57.3801C54.9748 57.2667 55.1056 57.1827 55.2513 57.1367C55.397 57.0907 55.5524 57.0844 55.7013 57.1184C55.8503 57.1524 55.9875 57.2254 56.0989 57.3301Z" fill="#00F6FF"/>
<path d="M59.5131 66.0664C59.5066 65.9362 59.528 65.806 59.5759 65.6846C59.6237 65.5633 59.6969 65.4535 59.7905 65.3627L62.507 62.77C62.6127 62.6679 62.6922 62.542 62.7391 62.4028C62.7859 62.2636 62.7987 62.1152 62.7762 61.9701C62.7537 61.825 62.6967 61.6874 62.61 61.5688C62.5233 61.4503 62.4093 61.3544 62.2778 61.2891C62.2778 61.2891 62.4291 61.9126 61.5901 62.6645C60.751 63.4164 59.5269 64.5947 59.5269 64.5947C59.5269 64.5947 59.1693 64.8033 59.4879 66.0664H59.5131ZM60.1596 69.842L60.0931 69.45C59.9256 69.6537 59.6931 69.7935 59.4346 69.8457C59.1761 69.8979 58.9075 69.8594 58.6741 69.7366C57.485 69.1307 56.2867 68.543 55.0796 67.9737C55.0227 67.9453 54.9599 67.9305 54.8962 67.9305C54.8326 67.9305 54.7698 67.9453 54.7128 67.9737L51.1114 69.9429C51.1114 69.9429 50.0432 70.4541 49.8781 69.5738L49.8323 69.8306C49.8043 70.0038 49.8256 70.1814 49.8935 70.3432C49.9615 70.5049 50.0735 70.6444 50.2168 70.7456C50.3601 70.8469 50.5289 70.9059 50.7041 70.916C50.8793 70.926 51.0538 70.8867 51.2077 70.8026L54.5638 69.0741C54.6996 69.0043 54.8501 68.9679 55.0028 68.9679C55.1555 68.9679 55.306 69.0043 55.4418 69.0741L58.7979 70.8026C58.9506 70.8831 59.1227 70.9198 59.295 70.9086C59.4673 70.8973 59.6331 70.8386 59.7741 70.7389C59.9151 70.6392 60.0258 70.5025 60.0938 70.3437C60.1618 70.185 60.1846 70.0106 60.1596 69.8398V69.842Z" fill="#15D1D8"/>
<path d="M33.255 64.2807V56.4865C33.255 54.7833 34.6487 54.9323 34.6487 54.9323H39.4628V54.1139H34.2522C34.0151 54.1112 33.7799 54.1552 33.56 54.2436C33.34 54.3319 33.1397 54.4627 32.9704 54.6286C32.8011 54.7945 32.6662 54.9922 32.5734 55.2103C32.4806 55.4284 32.4318 55.6627 32.4297 55.8997V63.8818C32.4303 65.5012 33.0494 67.0593 34.1605 68.2374C33.5006 67.0269 33.1873 65.6578 33.255 64.2807ZM34.3622 68.4506C34.3115 68.4034 34.2641 68.3528 34.2201 68.2993C34.2682 68.3543 34.314 68.4025 34.3622 68.4506Z" fill="#F7AC5C"/>
<path d="M35.8857 56.8051H39.4572V56.1036H35.9407C35.9407 56.1036 34.8976 55.9936 34.8976 57.7748C34.9007 57.5154 35.0063 57.2677 35.1915 57.086C35.3766 56.9043 35.6262 56.8033 35.8857 56.8051ZM39.0079 70.3303H40.3834C40.2947 70.0881 40.213 69.8435 40.1381 69.5967C38.0516 69.7793 35.9607 69.2979 34.1641 68.2213C34.7837 68.8862 35.5335 69.4165 36.3668 69.7793C37.2001 70.1422 38.0991 70.3297 39.0079 70.3303Z" fill="#E47300"/>
<path d="M75.7447 54.1161L70.5169 54.1209V55.0379L75.7768 55.033C75.7768 55.033 77.5672 54.8657 77.5672 57.0068V55.8927C77.5599 55.4158 77.3642 54.9612 77.0226 54.6282C76.6811 54.2953 76.2216 54.1112 75.7447 54.1161ZM75.0891 64.1729C75.0527 65.1639 74.6312 66.1016 73.9141 66.7866C73.197 67.4715 72.2409 67.8497 71.2493 67.8407H70.2911C70.2544 68.0379 70.2131 68.2327 70.1719 68.4299H71.7307C72.2479 68.4162 72.7558 68.2889 73.2184 68.0571C73.6809 67.8252 74.0868 67.4945 74.4073 67.0882C74.7278 66.682 74.955 66.2103 75.0728 65.7065C75.1906 65.2026 75.1962 64.6791 75.0891 64.1729Z" fill="#F7AC5C"/>
<path d="M74.053 56.1104L70.522 56.1105V56.7982L74.1103 56.7981C74.347 56.7963 74.5764 56.8802 74.7559 57.0345C74.9355 57.1888 75.0531 57.4029 75.0869 57.6371C75.0846 56.0783 74.053 56.1104 74.053 56.1104ZM73.5945 69.1313C72.4001 69.5669 71.1239 69.7321 69.8579 69.615C69.783 69.8565 69.7028 70.0949 69.6172 70.3302H70.9926C72.6194 70.3448 74.1929 69.7514 75.4049 68.6662C76.6168 67.5811 77.3798 66.0824 77.5443 64.4639C77.2638 65.4821 76.765 66.427 76.0825 67.233C75.4 68.039 74.5502 68.6868 73.5922 69.1313H73.5945Z" fill="#E47300"/>
<path d="M50.5234 87.6587H52.0937L52.9649 80.2497C52.5298 80.1944 52.0969 80.1225 51.6674 80.0342L50.5234 87.6587Z" fill="#F7AC5C"/>
<path d="M57.877 87.6587H59.4702L58.4409 80.0066C57.9549 80.112 57.459 80.1969 56.9531 80.261L57.8701 87.6587H57.877Z" fill="#FC774B"/>
<path d="M63.6302 87.661H46.3615C46.0995 87.6583 45.8397 87.7072 45.5967 87.8049C45.3536 87.9026 45.1323 88.0472 44.9451 88.2305C44.758 88.4138 44.6088 88.6322 44.5061 88.8731C44.4034 89.114 44.3491 89.3728 44.3464 89.6348V96.5441H45.7219V89.9855C45.7219 88.853 46.4944 88.8095 46.4944 88.8095H62.2777C63.4629 88.6967 64.6514 88.9884 65.6498 89.6371C65.6474 89.3749 65.5934 89.1159 65.4908 88.8747C65.3882 88.6335 65.239 88.4149 65.0519 88.2313C64.8648 88.0478 64.6433 87.903 64.4001 87.8051C64.1569 87.7072 63.8969 87.6583 63.6348 87.661H63.6302ZM72.5385 96.5464H37.4646C36.5927 96.5378 35.753 96.8755 35.1299 97.4854C34.5067 98.0952 34.1509 98.9274 34.1406 99.7993C34.1406 99.8887 34.1406 99.9758 34.1544 100.068C34.3836 97.5161 37.5334 97.6307 37.5334 97.6307H72.2657C72.993 97.6872 73.697 97.9127 74.3218 98.2892C74.9466 98.6656 75.4749 99.1827 75.8648 99.7993C75.8603 99.3672 75.7706 98.9402 75.601 98.5428C75.4313 98.1454 75.185 97.7853 74.8761 97.4832C74.5671 97.1811 74.2016 96.9428 73.8005 96.7821C73.3994 96.6213 72.9706 96.5412 72.5385 96.5464Z" fill="#76A4FF"/>
<path d="M75.8602 99.7993C75.4726 100.377 74.9506 100.853 74.3389 101.184C73.7271 101.516 73.0441 101.695 72.3482 101.704H37.091C37.091 101.704 34.622 101.874 34.1406 100.065C34.2198 100.886 34.6039 101.648 35.2171 102.2C35.8304 102.751 36.6283 103.053 37.4532 103.045H72.5385C73.409 103.054 74.2474 102.717 74.87 102.109C75.4926 101.5 75.8487 100.67 75.8602 99.7993Z" fill="#4479E2"/>
<path d="M54.6292 69.23C54.7421 69.1711 54.8675 69.1404 54.9948 69.1404C55.1222 69.1404 55.2476 69.1711 55.3605 69.23L58.7166 70.9585C58.9013 71.0545 59.1094 71.0966 59.3169 71.08C59.5245 71.0634 59.7232 70.9887 59.8903 70.8645C60.0529 70.7468 60.1789 70.5856 60.2539 70.3995C60.329 70.2133 60.3499 70.0098 60.3144 69.8123L59.6748 66.1444C59.6548 66.0222 59.6652 65.897 59.7052 65.7798C59.7452 65.6626 59.8135 65.5572 59.904 65.4727L62.6205 62.8777C62.768 62.7396 62.873 62.5623 62.9234 62.3666C62.9737 62.1709 62.9673 61.9649 62.9048 61.7728C62.8426 61.5759 62.7254 61.4009 62.567 61.2685C62.4086 61.1361 62.2156 61.0517 62.0108 61.0254L58.2558 60.4913C58.131 60.4742 58.0122 60.4271 57.9096 60.354C57.807 60.281 57.7236 60.1841 57.6667 60.0718L55.9863 56.7409C55.8933 56.5589 55.7518 56.4061 55.5775 56.2994C55.4031 56.1927 55.2027 56.1362 54.9983 56.1362C54.7939 56.1362 54.5934 56.1927 54.4191 56.2994C54.2447 56.4061 54.1033 56.5589 54.0103 56.7409L52.3299 60.0718C52.2729 60.1841 52.1896 60.281 52.087 60.354C51.9843 60.4271 51.8656 60.4742 51.7408 60.4913L47.9881 61.0254C47.7837 61.0528 47.5912 61.1375 47.433 61.2698C47.2747 61.402 47.1572 61.5764 47.0941 61.7728C47.0324 61.965 47.0264 62.1708 47.0767 62.3663C47.127 62.5618 47.2316 62.7391 47.3783 62.8777L50.0948 65.4727C50.1852 65.5573 50.2534 65.6628 50.2934 65.7799C50.3334 65.897 50.3439 66.0222 50.3241 66.1444L49.6845 69.8123C49.6503 70.0097 49.6719 70.2128 49.7468 70.3987C49.8217 70.5846 49.947 70.7459 50.1086 70.8645C50.2983 71.0099 50.5298 71.0902 50.7688 71.0937C50.9482 71.0926 51.1249 71.0494 51.2846 70.9676L54.6292 69.23ZM50.2874 70.6054C50.1723 70.5242 50.0829 70.4117 50.0297 70.2814C49.9765 70.151 49.9617 70.0081 49.9871 69.8696L50.6267 66.2017C50.6565 66.0274 50.643 65.8484 50.5874 65.6806C50.5319 65.5127 50.4359 65.361 50.308 65.2389L47.5915 62.6439C47.4873 62.5481 47.413 62.4242 47.3776 62.2871C47.3422 62.15 47.3472 62.0056 47.3921 61.8713C47.4365 61.732 47.5199 61.6083 47.6324 61.5148C47.745 61.4214 47.8819 61.3621 48.0271 61.3441L51.7797 60.81C51.9554 60.7854 52.1226 60.7188 52.2671 60.6159C52.4116 60.5129 52.5291 60.3766 52.6096 60.2185L54.2899 56.8876C54.3567 56.7593 54.4575 56.6518 54.5812 56.5768C54.7048 56.5017 54.8467 56.462 54.9914 56.462C55.1361 56.462 55.278 56.5017 55.4017 56.5768C55.5253 56.6518 55.6261 56.7593 55.6929 56.8876L57.3732 60.2185C57.4541 60.3764 57.5717 60.5125 57.7161 60.6154C57.8605 60.7183 58.0275 60.785 58.2031 60.81L61.958 61.3441C62.1034 61.3616 62.2406 61.4206 62.3532 61.5142C62.4658 61.6077 62.5491 61.7317 62.593 61.8713C62.6379 62.0056 62.6429 62.15 62.6075 62.2871C62.5721 62.4242 62.4978 62.5481 62.3936 62.6439L59.6771 65.2389C59.5487 65.3607 59.4524 65.5123 59.3968 65.6803C59.3412 65.8483 59.328 66.0274 59.3584 66.2017L59.998 69.8696C60.0234 70.0081 60.0086 70.151 59.9554 70.2814C59.9022 70.4117 59.8128 70.5242 59.6977 70.6054C59.5783 70.6934 59.4367 70.7463 59.2888 70.758C59.141 70.7698 58.9928 70.7399 58.861 70.6719L55.5049 68.9434C55.3466 68.8627 55.1714 68.8206 54.9937 68.8206C54.816 68.8206 54.6408 68.8627 54.4825 68.9434L51.1264 70.6719C50.9938 70.7388 50.8453 70.7677 50.6972 70.7556C50.5492 70.7435 50.4074 70.6907 50.2874 70.6031V70.6054ZM58.822 90.7488H51.1654C51.0597 90.7488 50.9551 90.7696 50.8575 90.8101C50.7598 90.8505 50.6711 90.9098 50.5964 90.9845C50.5217 91.0592 50.4624 91.1479 50.422 91.2455C50.3816 91.3432 50.3607 91.4478 50.3607 91.5535V92.977C50.3607 93.1904 50.4455 93.3951 50.5964 93.546C50.7473 93.6969 50.952 93.7817 51.1654 93.7817H58.822C59.0354 93.7817 59.2401 93.6969 59.391 93.546C59.5419 93.3951 59.6267 93.1904 59.6267 92.977V91.5535C59.627 91.4476 59.6064 91.3427 59.5661 91.2448C59.5258 91.1469 59.4665 91.058 59.3918 90.983C59.3171 90.9081 59.2282 90.8486 59.1305 90.808C59.0327 90.7674 58.9279 90.7465 58.822 90.7465V90.7488ZM59.3057 92.9725C59.306 93.0361 59.2937 93.0991 59.2695 93.1579C59.2453 93.2167 59.2097 93.2702 59.1647 93.3152C59.1198 93.3601 59.0663 93.3958 59.0075 93.42C58.9487 93.4442 58.8856 93.4565 58.822 93.4562H51.1654C51.1018 93.4565 51.0387 93.4442 50.9799 93.42C50.9211 93.3958 50.8676 93.3601 50.8227 93.3152C50.7777 93.2702 50.7421 93.2167 50.7179 93.1579C50.6937 93.0991 50.6814 93.0361 50.6817 92.9725V91.5489C50.6814 91.4853 50.6937 91.4222 50.7179 91.3634C50.7421 91.3046 50.7777 91.2511 50.8227 91.2062C50.8676 91.1612 50.9211 91.1256 50.9799 91.1014C51.0387 91.0772 51.1018 91.0649 51.1654 91.0652H58.822C58.8856 91.0649 58.9487 91.0772 59.0075 91.1014C59.0663 91.1256 59.1198 91.1612 59.1647 91.2062C59.2097 91.2511 59.2453 91.3046 59.2695 91.3634C59.2937 91.4222 59.306 91.4853 59.3057 91.5489V92.9725Z" fill="#472F7E"/>
<path d="M70.5232 55.0344H71.4523L71.4486 56.1107H70.5195L70.5232 55.0344Z" fill="#F29727"/>
</svg>
