<svg width="82" height="105" viewBox="0 0 82 105" fill="none" xmlns="http://www.w3.org/2000/svg">
<path d="M17.0024 68.5385L17.871 71.8044C17.894 71.8907 17.9613 71.9583 18.0476 71.9815L21.0274 72.784L18.0302 73.551C17.9421 73.5735 17.8732 73.6422 17.8502 73.7302L17.0247 76.8981L16.263 73.7347C16.2412 73.6442 16.1709 73.5733 16.0806 73.5507L12.9916 72.7777L15.8618 71.981C15.9449 71.958 16.0102 71.8937 16.0347 71.811L17.0024 68.5385Z" fill="#B27AFF" stroke="black" stroke-width="0.5" stroke-miterlimit="10" stroke-linecap="round" stroke-linejoin="round"/>
<path d="M74.0279 16.9397C72.0997 15.0231 71.2003 12.2964 71.6096 9.60866C69.6929 11.5368 66.9662 12.4363 64.2785 12.027C66.2067 13.9436 67.1061 16.6703 66.6968 19.358C68.6135 17.4299 71.3402 16.5304 74.0279 16.9397Z" fill="#FFD1C1" stroke="black" stroke-width="0.5" stroke-linejoin="round"/>
<path d="M11.2793 11.8863C19.2217 16.6784 29.7724 12.3081 32 3.3035C34.2276 12.3081 44.7783 16.6784 52.7207 11.8863C47.9286 19.8287 52.2988 30.3793 61.3034 32.6069C52.2988 34.8345 47.9286 45.3852 52.7206 53.3276C44.7783 48.5355 34.2276 52.9057 32 61.9104C29.7724 52.9057 19.2217 48.5355 11.2793 53.3276C16.0714 45.3852 11.7012 34.8345 2.69657 32.6069C11.7012 30.3793 16.0714 19.8287 11.2793 11.8863Z" fill="#BEFF6C" stroke="black" stroke-width="0.8"/>
<path d="M69.7844 50.5198L70.1364 50.1678C70.4219 50.4533 70.6483 50.7922 70.8028 51.1652C70.9573 51.5382 71.0368 51.938 71.0368 52.3417V65.8806C71.0368 65.8806 71.0368 65.8807 71.0368 65.8807C71.0371 67.901 70.6394 69.9016 69.8663 71.7681C69.0933 73.6347 67.96 75.3307 66.5313 76.7591C65.1026 78.1876 63.4065 79.3206 61.5398 80.0934C59.6731 80.8662 57.6725 81.2636 55.6522 81.263L69.7844 50.5198ZM69.7844 50.5198L70.1364 50.1678C69.8509 49.8823 69.512 49.6559 69.139 49.5014C68.766 49.3469 68.3662 49.2673 67.9625 49.2673H42.0353C41.2199 49.2673 40.438 49.5912 39.8614 50.1678C39.2848 50.7444 38.9609 51.5263 38.9609 52.3417V65.8806C38.9609 65.8806 38.9609 65.8807 38.9609 65.8807C38.9606 67.9008 39.3583 69.9012 40.1312 71.7676L40.5932 71.5763L40.1312 71.7676C40.9041 73.634 42.0372 75.3298 43.4656 76.7583C44.8941 78.1867 46.59 79.3198 48.4564 80.0927C50.3228 80.8656 52.3232 81.2633 54.3433 81.263C54.3433 81.263 54.3433 81.263 54.3433 81.263M69.7844 50.5198L54.3433 81.263M54.3433 81.263H55.6521H54.3433Z" fill="#FF9529" stroke="black"/>
<path d="M70.9961 71.2017C72.8554 71.22 74.6461 70.4997 75.9747 69.1988C77.3041 67.8973 78.0621 66.1211 78.0823 64.2608L78.0823 64.2608V64.2554L78.0824 56.2732L78.0823 56.2676C78.0789 55.964 78.0155 55.6641 77.8958 55.3851C77.7761 55.1061 77.6024 54.8535 77.3847 54.6418C77.1671 54.4301 76.9097 54.2636 76.6275 54.1517C76.3453 54.0398 76.0437 53.9848 75.7401 53.9898L75.606 53.992H71.3678H70.8678V54.492V57.1787V57.6787H71.3678L74.0956 57.6788L74.1015 57.6787C74.1641 57.678 74.2262 57.6896 74.2843 57.7128C74.3424 57.7361 74.3953 57.7706 74.4401 57.8143C74.4849 57.8581 74.5206 57.9102 74.5452 57.9677C74.5696 58.0245 74.5826 58.0855 74.5836 58.1473V64.4546C74.5789 64.888 74.4889 65.3162 74.3189 65.7149C74.1486 66.1144 73.9012 66.4764 73.5909 66.7802C73.2806 67.084 72.9135 67.3237 72.5105 67.4856C72.1076 67.6475 71.6766 67.7283 71.2424 67.7236V67.7236H71.2369H70.2948H69.8768L69.8027 68.1349C69.6557 68.9504 69.4385 69.7516 69.1536 70.5297L68.9075 71.2017H69.6231H70.9961ZM34.3982 53.992L34.2641 53.9898C33.9605 53.9848 33.659 54.0398 33.3767 54.1517C33.0945 54.2636 32.8371 54.4301 32.6195 54.6418C32.4018 54.8535 32.2282 55.1061 32.1084 55.3851C31.9887 55.6641 31.9253 55.964 31.9219 56.2676L31.9219 56.2676V56.2732V64.2554H31.9218L31.9219 64.2608C31.9421 66.1211 32.7002 67.8973 34.0295 69.1988C35.3581 70.4997 37.1488 71.22 39.0082 71.2017H40.3811H41.0967L40.8506 70.5297C40.5657 69.7516 40.3485 68.9504 40.2015 68.1349L40.1274 67.7236H39.7094H38.7512V67.7235L38.7461 67.7236C37.8691 67.7326 37.0245 67.393 36.3979 66.7795C35.7719 66.1666 35.4147 65.3303 35.4046 64.4544V58.1473C35.4056 58.0855 35.4186 58.0245 35.4429 57.9677C35.4676 57.9102 35.5033 57.8581 35.548 57.8143C35.5928 57.7706 35.6458 57.7361 35.7039 57.7128C35.762 57.6896 35.8241 57.678 35.8867 57.6787L35.8867 57.6787H35.8926H39.4642H39.9642V57.1787V54.492V53.992H39.4642H34.3982Z" fill="#F29727" stroke="black"/>
<path d="M47.9893 61.5688L51.7419 61.0346C51.8921 61.0135 52.0349 60.9566 52.1586 60.8689C52.2822 60.7811 52.383 60.665 52.4526 60.5303M47.9893 61.5688L47.9407 61.1717C47.9393 61.1719 47.9379 61.1721 47.9364 61.1723M47.9893 61.5688L47.9329 61.1728L47.9364 61.1723M47.9893 61.5688C47.8167 61.5899 47.6537 61.6596 47.5192 61.7698C47.3848 61.88 47.2844 62.0262 47.2299 62.1913C47.1753 62.3564 47.1689 62.5335 47.2112 62.7022C47.2535 62.8708 47.3429 63.0239 47.4689 63.1437M47.9364 61.1723L51.6856 60.6386L51.686 60.6386C51.7729 60.6263 51.8555 60.5934 51.9271 60.5427C51.9982 60.4922 52.0562 60.4256 52.0964 60.3482M47.9364 61.1723C47.6902 61.2032 47.4576 61.3031 47.2657 61.4605C47.0725 61.6188 46.9284 61.8287 46.8501 62.0658C46.7718 62.3029 46.7624 62.5573 46.8232 62.7995C46.8839 63.0415 47.0122 63.2613 47.193 63.4332L47.1926 63.4329L47.4689 63.1437M52.0964 60.3482L52.0955 60.3502L52.4526 60.5303M52.0964 60.3482C52.0967 60.3478 52.0969 60.3473 52.0972 60.3468L52.4526 60.5303M52.0964 60.3482L53.7749 57.021M52.4526 60.5303L54.1329 57.1994M54.1329 57.1994L53.7739 57.0231C53.7742 57.0224 53.7746 57.0217 53.7749 57.021M54.1329 57.1994L53.7758 57.0193L53.7749 57.021M54.1329 57.1994L55.243 69.8242L58.5948 71.5504C58.8132 71.6688 59.0604 71.7239 59.3085 71.7096C59.5584 71.6953 59.7993 71.6111 60.0037 71.4666C60.2081 71.3222 60.3679 71.1232 60.4649 70.8925C60.5619 70.6617 60.5921 70.4083 60.5523 70.1612L60.5523 70.1612L60.5514 70.1562L59.912 66.4894C59.912 66.4893 59.912 66.4891 59.912 66.489C59.8977 66.4056 59.9041 66.32 59.9307 66.2396L59.5509 66.1141L59.9307 66.2396C59.9573 66.1592 60.0032 66.0865 60.0645 66.028L60.0646 66.0279L62.7804 63.4336C62.7805 63.4335 62.7806 63.4333 62.7808 63.4332C62.9616 63.2613 63.0898 63.0415 63.1505 62.7995C63.2113 62.5573 63.202 62.3029 63.1236 62.0658C63.0453 61.8287 62.9012 61.6188 62.708 61.4605C62.5161 61.3031 62.2835 61.2032 62.0373 61.1723L58.2881 60.6386L58.2867 60.6384C58.2001 60.6264 58.1176 60.5937 58.0463 60.5431C57.9753 60.4928 57.9175 60.4261 57.8776 60.3488C57.8774 60.3484 57.8772 60.3481 57.877 60.3477L56.1988 57.021C56.0874 56.7952 55.9151 56.605 55.7014 56.4718C55.487 56.3383 55.2395 56.2675 54.9869 56.2675C54.7343 56.2675 54.4867 56.3383 54.2723 56.4718C54.0586 56.605 53.8863 56.7952 53.7749 57.021M47.4689 63.1437L47.1933 63.4336L49.9091 66.0279L49.9092 66.028C49.9705 66.0865 50.0164 66.1592 50.043 66.2396C50.0696 66.32 50.076 66.4056 50.0617 66.489L50.0619 66.4883L50.4559 66.5571M47.4689 63.1437L50.1854 65.7387C50.2941 65.8425 50.3756 65.9714 50.4228 66.1141C50.47 66.2568 50.4813 66.4089 50.4559 66.5571M50.4559 66.5571L50.0617 66.4894L49.4223 70.1562L49.4222 70.1562L49.4214 70.1612C49.3816 70.4083 49.4118 70.6617 49.5088 70.8925C49.6058 71.1232 49.7656 71.3222 49.97 71.4666C50.1744 71.6111 50.4153 71.6953 50.6652 71.7096C50.9133 71.7239 51.1605 71.6688 51.3789 71.5504M50.4559 66.5571L49.8163 70.2249C49.7884 70.3981 49.8096 70.5757 49.8776 70.7375C49.9456 70.8993 50.0576 71.0387 50.2009 71.14C50.3441 71.2412 50.513 71.3002 50.6882 71.3103C50.8633 71.3204 51.0378 71.2811 51.1918 71.1969M51.1918 71.1969L51.3749 71.5525L51.3789 71.5504M51.1918 71.1969L51.3837 71.5479C51.3821 71.5487 51.3805 71.5496 51.3789 71.5504M51.1918 71.1969L54.5479 69.4684M51.3789 71.5504L54.7307 69.8242L54.5479 69.4684M54.5479 69.4684L54.731 69.824M54.5479 69.4684C54.6837 69.3986 54.8342 69.3622 54.9869 69.3622L54.731 69.824M54.731 69.824C54.8102 69.7834 54.8979 69.7622 54.9869 69.7622C55.0758 69.7622 55.1635 69.7834 55.2427 69.824H54.731Z" fill="#0CFF4D" stroke="black" stroke-width="0.8"/>
<path d="M66.1451 97.4221H65.6441H44.3477H43.8477V96.9221V89.9693V89.9687C43.8484 89.3245 44.1046 88.707 44.5601 88.2515C45.0156 87.796 45.6331 87.5398 46.2773 87.5391L46.2779 87.5391L63.7002 87.5391H63.7008C64.3449 87.5398 64.9624 87.796 65.4179 88.2515L65.0644 88.6051L65.4179 88.2515C65.8734 88.707 66.1296 89.3245 66.1304 89.9687M66.1451 97.4221L66.1304 89.9687M66.1451 97.4221L66.1441 96.9212M66.1451 97.4221L66.1441 96.9212M66.1304 89.9687L66.1441 96.9212M66.1304 89.9687L66.1441 96.9212" fill="#588EFF" stroke="black"/>
<path d="M58.8282 93.9904H51.1715C51.0009 93.9898 50.8374 93.9217 50.7167 93.8011C50.596 93.6804 50.5279 93.5169 50.5273 93.3462V91.9249C50.5279 91.7543 50.596 91.5908 50.7167 91.4701C50.8374 91.3494 51.0009 91.2814 51.1715 91.2808H58.8282C58.9988 91.2814 59.1623 91.3494 59.283 91.4701C59.4037 91.5908 59.4717 91.7543 59.4723 91.9249V93.3462C59.4723 93.4308 59.4557 93.5146 59.4233 93.5927C59.3909 93.6709 59.3435 93.7419 59.2837 93.8017C59.2238 93.8615 59.1528 93.909 59.0747 93.9414C58.9965 93.9737 58.9128 93.9904 58.8282 93.9904Z" fill="#00FF22"/>
<path d="M72.6797 103.933H72.68C73.6562 103.932 74.5922 103.544 75.2825 102.854C75.9727 102.163 76.3608 101.227 76.3615 100.251V100.251V100.109V100.108C76.3608 99.1321 75.9727 98.1961 75.2825 97.5058C74.5922 96.8156 73.6562 96.4275 72.68 96.4268H72.6797L37.3147 96.4268L37.3143 96.4268C36.3381 96.4275 35.4021 96.8156 34.7119 97.5058C34.0216 98.1961 33.6335 99.1321 33.6328 100.108V100.109L33.6328 100.251L33.6328 100.251C33.6335 101.227 34.0216 102.163 34.7119 102.854C35.4021 103.544 36.3381 103.932 37.3143 103.933H37.3147H72.6797Z" fill="#588EFF" stroke="black"/>
<path d="M54.998 80.263L54.9979 80.263C53.9156 80.2623 52.8365 80.1477 51.7783 79.9211L51.2582 79.8097L51.1791 80.3357L50.0329 87.9625L49.9466 88.5368H50.5273H59.4677H60.0395L59.9633 87.9702L58.934 80.3181L58.8613 79.778L58.3294 79.8968C57.2358 80.1411 56.1185 80.264 54.998 80.263Z" fill="#FF9529" stroke="black"/>
<path d="M41.3407 53.6944C41.3407 51.1223 42.8537 51.2575 42.8537 51.2575H65.6173C67.2596 51.1591 68.9061 51.3587 70.4772 51.8467C70.3415 51.2528 70.0072 50.723 69.5295 50.3449C69.0518 49.9668 68.4593 49.7631 67.8501 49.7675H42.1476C41.7984 49.7638 41.4519 49.829 41.1279 49.9593C40.8039 50.0896 40.5087 50.2825 40.2592 50.5268C40.0097 50.7712 39.8108 51.0624 39.6738 51.3836C39.5369 51.7049 39.4645 52.0499 39.4609 52.3992V65.5484C39.465 67.7866 39.9677 69.9957 40.9324 72.0153C41.8972 74.0349 43.2998 75.8141 45.0384 77.2237C40.841 73.6383 41.3407 66.9628 41.3407 66.9628V53.6944Z" fill="#F7AC5C"/>
<path d="M60.8796 77.712C58.9494 78.3424 51.9759 81.1162 45.0391 77.2237C47.8494 79.521 51.3698 80.772 54.9996 80.7632C59.0778 80.8053 63.0058 79.2259 65.9197 76.3722C68.8335 73.5186 70.4946 69.6244 70.5375 65.5461C69.3463 66.4822 68.7858 70.6356 67.1124 72.7435C65.439 74.8514 63.3075 76.5506 60.8796 77.712Z" fill="#FC774B"/>
<path d="M56.0989 57.7061L55.8421 57.1972C55.7616 57.0424 55.6401 56.9127 55.491 56.8222C55.3418 56.7317 55.1707 56.6838 54.9962 56.6838C54.8218 56.6838 54.6506 56.7317 54.5015 56.8222C54.3524 56.9127 54.2309 57.0424 54.1503 57.1972L52.47 60.528C52.4007 60.663 52.3 60.7793 52.1763 60.867C52.0526 60.9548 51.9096 61.0115 51.7593 61.0324L48.0067 61.5665C47.8346 61.5879 47.6721 61.6577 47.5381 61.7678C47.4041 61.8779 47.304 62.0237 47.2495 62.1883C47.1951 62.353 47.1884 62.5297 47.2303 62.698C47.2722 62.8663 47.361 63.0192 47.4863 63.1391L47.8989 63.5311C47.8989 63.5173 47.9127 63.5013 47.915 63.4898C47.8614 63.38 47.8309 63.2605 47.8251 63.1385C47.8193 63.0165 47.8384 62.8946 47.8813 62.7803C47.9243 62.6659 47.99 62.5615 48.0746 62.4734C48.1592 62.3853 48.2609 62.3154 48.3735 62.268C48.3735 62.268 50.5948 61.9837 51.9129 61.7957C52.2523 61.7843 52.5805 61.672 52.8557 61.4731C53.1309 61.2743 53.3406 60.9979 53.458 60.6793C53.458 60.6793 54.1664 59.3726 54.6684 58.1577C54.6995 58.0081 54.7699 57.8694 54.8723 57.7561C54.9748 57.6427 55.1056 57.5587 55.2513 57.5127C55.397 57.4667 55.5524 57.4603 55.7013 57.4943C55.8503 57.5283 55.9875 57.6014 56.0989 57.7061Z" fill="#00F6FF"/>
<path d="M59.5131 66.4424C59.5066 66.3121 59.528 66.182 59.5759 66.0606C59.6237 65.9392 59.6969 65.8295 59.7905 65.7387L62.507 63.1459C62.6127 63.0439 62.6922 62.918 62.7391 62.7788C62.7859 62.6396 62.7987 62.4912 62.7762 62.3461C62.7537 62.2009 62.6967 62.0633 62.61 61.9448C62.5232 61.8263 62.4093 61.7303 62.2778 61.665C62.2778 61.665 62.4291 62.2886 61.5901 63.0405C60.751 63.7924 59.5269 64.9707 59.5269 64.9707C59.5269 64.9707 59.1693 65.1793 59.4879 66.4424H59.5131ZM60.1596 70.218L60.0931 69.826C59.9256 70.0297 59.6931 70.1695 59.4346 70.2217C59.1761 70.2739 58.9075 70.2353 58.6741 70.1126C57.485 69.5067 56.2867 68.919 55.0796 68.3497C55.0227 68.3213 54.9599 68.3064 54.8962 68.3064C54.8326 68.3064 54.7698 68.3213 54.7128 68.3497L51.1114 70.3189C51.1114 70.3189 50.0432 70.8301 49.8781 69.9498L49.8323 70.2066C49.8043 70.3798 49.8256 70.5574 49.8935 70.7191C49.9615 70.8809 50.0735 71.0203 50.2168 71.1216C50.3601 71.2229 50.5289 71.2819 50.7041 71.2919C50.8793 71.302 51.0538 71.2627 51.2077 71.1785L54.5638 69.4501C54.6996 69.3803 54.8501 69.3439 55.0028 69.3439C55.1555 69.3439 55.306 69.3803 55.4418 69.4501L58.7979 71.1785C58.9506 71.2591 59.1227 71.2958 59.295 71.2845C59.4673 71.2733 59.6331 71.2146 59.7741 71.1149C59.9151 71.0152 60.0258 70.8784 60.0938 70.7197C60.1618 70.561 60.1846 70.3866 60.1596 70.2157V70.218Z" fill="#15D1D8"/>
<path d="M33.255 64.6567V56.8625C33.255 55.1592 34.6487 55.3083 34.6487 55.3083H39.4628V54.4899H34.2522C34.0151 54.4871 33.7799 54.5312 33.56 54.6195C33.34 54.7079 33.1397 54.8387 32.9704 55.0046C32.8011 55.1705 32.6662 55.3682 32.5734 55.5863C32.4806 55.8044 32.4318 56.0386 32.4297 56.2757V64.2578C32.4303 65.8772 33.0494 67.4352 34.1605 68.6134C33.5006 67.4028 33.1873 66.0338 33.255 64.6567ZM34.3622 68.8266C34.3115 68.7793 34.2641 68.7288 34.2201 68.6753C34.2682 68.7303 34.314 68.7785 34.3622 68.8266Z" fill="#F7AC5C"/>
<path d="M35.8857 57.1811H39.4572V56.4796H35.9407C35.9407 56.4796 34.8976 56.3696 34.8976 58.1508C34.9007 57.8913 35.0063 57.6437 35.1915 57.462C35.3766 57.2802 35.6262 57.1792 35.8857 57.1811ZM39.0079 70.7063H40.3834C40.2947 70.4641 40.213 70.2195 40.1381 69.9727C38.0516 70.1553 35.9607 69.6739 34.1641 68.5973C34.7837 69.2622 35.5335 69.7925 36.3668 70.1553C37.2001 70.5181 38.0991 70.7057 39.0079 70.7063Z" fill="#E47300"/>
<path d="M75.7447 54.492L70.5169 54.4969V55.4139L75.7768 55.409C75.7768 55.409 77.5672 55.2417 77.5672 57.3828V56.2687C77.5599 55.7918 77.3642 55.3371 77.0226 55.0042C76.6811 54.6713 76.2216 54.4871 75.7447 54.492ZM75.0891 64.5488C75.0527 65.5398 74.6312 66.4776 73.9141 67.1625C73.197 67.8475 72.2409 68.2257 71.2493 68.2167H70.2911C70.2544 68.4138 70.2131 68.6087 70.1719 68.8058H71.7307C72.2479 68.7922 72.7558 68.6649 73.2184 68.433C73.6809 68.2012 74.0868 67.8704 74.4073 67.4642C74.7278 67.058 74.955 66.5863 75.0728 66.0824C75.1906 65.5786 75.1962 65.055 75.0891 64.5488Z" fill="#F7AC5C"/>
<path d="M74.053 56.4864L70.522 56.4865V57.1742L74.1103 57.1741C74.347 57.1722 74.5764 57.2562 74.7559 57.4105C74.9355 57.5647 75.0531 57.7788 75.0869 58.0131C75.0846 56.4543 74.053 56.4864 74.053 56.4864ZM73.5945 69.5073C72.4001 69.9428 71.1239 70.108 69.8579 69.991C69.783 70.2324 69.7028 70.4708 69.6172 70.7062H70.9926C72.6194 70.7208 74.1929 70.1274 75.4049 69.0422C76.6168 67.957 77.3798 66.4584 77.5443 64.8399C77.2638 65.8581 76.765 66.803 76.0825 67.609C75.4 68.415 74.5502 69.0627 73.5922 69.5073H73.5945Z" fill="#E47300"/>
<path d="M50.5234 88.0347H52.0937L52.9649 80.6256C52.5298 80.5704 52.0969 80.4985 51.6674 80.4102L50.5234 88.0347Z" fill="#F7AC5C"/>
<path d="M57.877 88.0346H59.4702L58.4409 80.3826C57.9549 80.488 57.459 80.5728 56.9531 80.637L57.8701 88.0346H57.877Z" fill="#FC774B"/>
<path d="M63.6302 88.037H46.3615C46.0996 88.0342 45.8397 88.0831 45.5967 88.1809C45.3536 88.2786 45.1323 88.4232 44.9451 88.6065C44.758 88.7898 44.6088 89.0081 44.5061 89.2491C44.4034 89.49 44.3491 89.7488 44.3464 90.0107V96.9201H45.7219V90.3615C45.7219 89.229 46.4944 89.1855 46.4944 89.1855H62.2777C63.4629 89.0727 64.6514 89.3644 65.6498 90.013C65.6474 89.7509 65.5934 89.4919 65.4908 89.2507C65.3882 89.0095 65.239 88.7908 65.0519 88.6073C64.8648 88.4238 64.6433 88.2789 64.4001 88.1811C64.1569 88.0832 63.8969 88.0343 63.6348 88.037H63.6302ZM72.5385 96.9224H37.4646C36.5927 96.9138 35.753 97.2515 35.1299 97.8614C34.5067 98.4712 34.1509 99.3034 34.1406 100.175C34.1406 100.265 34.1406 100.352 34.1544 100.443C34.3836 97.892 37.5334 98.0067 37.5334 98.0067H72.2657C72.993 98.0632 73.697 98.2887 74.3218 98.6652C74.9466 99.0416 75.4749 99.5587 75.8648 100.175C75.8603 99.7432 75.7706 99.3162 75.601 98.9188C75.4313 98.5214 75.185 98.1613 74.8761 97.8592C74.5671 97.5571 74.2016 97.3188 73.8005 97.158C73.3994 96.9973 72.9706 96.9172 72.5385 96.9224Z" fill="#76A4FF"/>
<path d="M75.8602 100.175C75.4726 100.753 74.9506 101.229 74.3389 101.56C73.7271 101.892 73.0441 102.071 72.3482 102.08H37.091C37.091 102.08 34.622 102.25 34.1406 100.441C34.2198 101.262 34.6039 102.024 35.2171 102.576C35.8304 103.127 36.6283 103.429 37.4532 103.421H72.5385C73.409 103.43 74.2474 103.093 74.87 102.485C75.4926 101.876 75.8487 101.046 75.8602 100.175Z" fill="#4479E2"/>
<path d="M54.6292 69.606C54.7421 69.5471 54.8675 69.5164 54.9948 69.5164C55.1222 69.5164 55.2476 69.5471 55.3605 69.606L58.7166 71.3344C58.9013 71.4305 59.1094 71.4726 59.3169 71.456C59.5245 71.4394 59.7232 71.3647 59.8903 71.2404C60.0529 71.1228 60.1789 70.9616 60.2539 70.7754C60.329 70.5893 60.3499 70.3858 60.3144 70.1882L59.6748 66.5204C59.6548 66.3982 59.6652 66.273 59.7052 66.1558C59.7452 66.0386 59.8135 65.9331 59.904 65.8487L62.6205 63.2537C62.768 63.1155 62.873 62.9382 62.9234 62.7426C62.9737 62.5469 62.9673 62.3409 62.9048 62.1487C62.8426 61.9519 62.7254 61.7769 62.567 61.6445C62.4086 61.512 62.2156 61.4277 62.0108 61.4014L58.2558 60.8673C58.131 60.8502 58.0122 60.8031 57.9096 60.73C57.807 60.6569 57.7236 60.5601 57.6667 60.4478L55.9863 57.1169C55.8933 56.9349 55.7518 56.7821 55.5775 56.6754C55.4031 56.5687 55.2027 56.5122 54.9983 56.5122C54.7939 56.5122 54.5934 56.5687 54.4191 56.6754C54.2447 56.7821 54.1033 56.9349 54.0103 57.1169L52.3299 60.4478C52.2729 60.5601 52.1896 60.6569 52.087 60.73C51.9843 60.8031 51.8656 60.8502 51.7408 60.8673L47.9881 61.4014C47.7837 61.4288 47.5912 61.5135 47.433 61.6458C47.2747 61.778 47.1572 61.9524 47.0941 62.1487C47.0324 62.341 47.0264 62.5467 47.0767 62.7422C47.127 62.9377 47.2316 63.1151 47.3783 63.2537L50.0948 65.8487C50.1852 65.9332 50.2534 66.0387 50.2934 66.1559C50.3334 66.273 50.3439 66.3982 50.3241 66.5204L49.6845 70.1882C49.6503 70.3857 49.6719 70.5888 49.7468 70.7747C49.8217 70.9606 49.947 71.1219 50.1086 71.2404C50.2983 71.3858 50.5298 71.4662 50.7688 71.4697C50.9482 71.4686 51.1249 71.4254 51.2846 71.3436L54.6292 69.606ZM50.2874 70.9814C50.1723 70.9002 50.0829 70.7877 50.0297 70.6573C49.9765 70.5269 49.9617 70.3841 49.9871 70.2455L50.6267 66.5777C50.6565 66.4034 50.643 66.2244 50.5874 66.0565C50.5319 65.8887 50.4359 65.737 50.308 65.6149L47.5915 63.0199C47.4873 62.9241 47.413 62.8002 47.3776 62.6631C47.3422 62.526 47.3472 62.3816 47.3921 62.2473C47.4365 62.108 47.5199 61.9842 47.6324 61.8908C47.745 61.7974 47.8819 61.7381 48.0271 61.7201L51.7797 61.1859C51.9554 61.1614 52.1226 61.0948 52.2671 60.9918C52.4116 60.8889 52.5291 60.7526 52.6096 60.5945L54.2899 57.2636C54.3567 57.1353 54.4575 57.0278 54.5812 56.9527C54.7048 56.8777 54.8467 56.838 54.9914 56.838C55.1361 56.838 55.278 56.8777 55.4017 56.9527C55.5253 57.0278 55.6261 57.1353 55.6929 57.2636L57.3732 60.5945C57.4541 60.7523 57.5717 60.8884 57.7161 60.9914C57.8605 61.0943 58.0275 61.161 58.2031 61.1859L61.958 61.7201C62.1034 61.7376 62.2406 61.7966 62.3532 61.8901C62.4658 61.9837 62.5491 62.1077 62.593 62.2473C62.6379 62.3816 62.6429 62.526 62.6075 62.6631C62.5721 62.8002 62.4978 62.9241 62.3936 63.0199L59.6771 65.6149C59.5487 65.7366 59.4524 65.8883 59.3968 66.0562C59.3412 66.2242 59.328 66.4034 59.3584 66.5777L59.998 70.2455C60.0234 70.3841 60.0086 70.5269 59.9554 70.6573C59.9022 70.7877 59.8128 70.9002 59.6977 70.9814C59.5783 71.0694 59.4367 71.1222 59.2888 71.134C59.141 71.1457 58.9928 71.1159 58.861 71.0479L55.5049 69.3194C55.3466 69.2387 55.1714 69.1966 54.9937 69.1966C54.816 69.1966 54.6408 69.2387 54.4825 69.3194L51.1264 71.0479C50.9938 71.1148 50.8453 71.1437 50.6972 71.1316C50.5492 71.1194 50.4074 71.0667 50.2874 70.9791V70.9814ZM58.822 91.1248H51.1654C51.0597 91.1248 50.9551 91.1456 50.8575 91.1861C50.7598 91.2265 50.6711 91.2858 50.5964 91.3605C50.5217 91.4352 50.4624 91.5239 50.422 91.6215C50.3816 91.7191 50.3607 91.8238 50.3607 91.9294V93.353C50.3607 93.5664 50.4455 93.7711 50.5964 93.922C50.7473 94.0729 50.952 94.1577 51.1654 94.1577H58.822C59.0354 94.1577 59.2401 94.0729 59.391 93.922C59.5419 93.7711 59.6267 93.5664 59.6267 93.353V91.9294C59.627 91.8236 59.6064 91.7187 59.5661 91.6208C59.5258 91.5229 59.4665 91.434 59.3918 91.359C59.3171 91.284 59.2282 91.2246 59.1305 91.184C59.0327 91.1434 58.9279 91.1225 58.822 91.1225V91.1248ZM59.3057 93.3484C59.306 93.412 59.2937 93.4751 59.2695 93.5339C59.2453 93.5927 59.2097 93.6462 59.1647 93.6911C59.1198 93.7361 59.0663 93.7717 59.0075 93.7959C58.9487 93.8201 58.8856 93.8324 58.822 93.8321H51.1654C51.1018 93.8324 51.0387 93.8201 50.9799 93.7959C50.9211 93.7717 50.8676 93.7361 50.8227 93.6911C50.7777 93.6462 50.7421 93.5927 50.7179 93.5339C50.6937 93.4751 50.6814 93.412 50.6817 93.3484V91.9249C50.6814 91.8612 50.6937 91.7982 50.7179 91.7394C50.7421 91.6806 50.7777 91.6271 50.8227 91.5821C50.8676 91.5372 50.9211 91.5016 50.9799 91.4774C51.0387 91.4532 51.1018 91.4408 51.1654 91.4412H58.822C58.8856 91.4408 58.9487 91.4532 59.0075 91.4774C59.0663 91.5016 59.1198 91.5372 59.1647 91.5821C59.2097 91.6271 59.2453 91.6806 59.2695 91.7394C59.2937 91.7982 59.306 91.8612 59.3057 91.9249V93.3484Z" fill="#472F7E"/>
<path d="M70.5232 55.4104H71.4523L71.4486 56.4867H70.5195L70.5232 55.4104Z" fill="#F29727"/>
</svg>
