<svg width="343" height="365" viewBox="0 0 343 365" fill="none" xmlns="http://www.w3.org/2000/svg">
<path d="M343 348.231C343 357.068 335.837 364.231 327 364.231H248.375C243.314 364.231 238.441 362.312 234.739 358.862L223.391 348.285C217.838 343.109 210.529 340.231 202.937 340.231H16C7.16345 340.231 0 333.068 0 324.231V30.231C0 21.3944 7.16345 14.231 16 14.231H327C335.837 14.231 343 21.3944 343 30.231V348.231Z" fill="url(#paint0_linear_783_70182)"/>
<mask id="mask0_783_70182" style="mask-type:alpha" maskUnits="userSpaceOnUse" x="0" y="204" width="343" height="161">
<path d="M343 348.231C343 357.068 335.837 364.231 327 364.231H248.375C243.314 364.231 238.441 362.312 234.739 358.862L220.511 345.6C216.809 342.15 211.936 340.231 206.875 340.231H16C7.16345 340.231 0 333.068 0 324.231V204.231H343V348.231Z" fill="url(#paint1_linear_783_70182)"/>
</mask>
<g mask="url(#mask0_783_70182)">
<path d="M272.773 358.759L271.395 364.231H238.073L250.113 348.676L272.773 358.759Z" fill="#4B4294"/>
<path d="M300.299 364.23L311.292 351.068L332.457 359.161L335 364.23H300.299Z" fill="#4B4294"/>
<path d="M305.687 272.422H271.45L247.102 352.895L272.946 358.629L289.233 299.013L306.767 355.388L333.691 359.792L305.687 272.422Z" fill="#B9AFFF"/>
<path d="M293.766 239.349C289.842 239.349 286.661 236.168 286.661 232.244C286.661 228.32 289.842 225.139 293.766 225.139C297.69 225.139 300.871 228.32 300.871 232.244C300.871 236.168 297.69 239.349 293.766 239.349Z" fill="#D4A181"/>
<path d="M240.855 254.362C242.12 260.451 245.5 264.856 249.785 267.397C251.88 268.639 254.192 269.435 256.58 269.763C261.463 270.436 265.623 269.61 268.419 268.705C270.809 267.934 272.202 267.104 272.202 267.104L271.797 269.99L271.454 272.423H305.691L304.943 261.37C307.958 264.824 309.087 268.124 309.283 270.949C309.479 273.771 308.745 276.12 308.034 277.677V277.678C307.436 278.987 306.855 279.735 306.855 279.735C306.855 279.735 308.559 282.329 310.406 285.146C311.946 287.496 313.585 290.001 314.417 291.286C314.903 291.077 315.372 290.848 315.822 290.598C318.68 289.021 320.814 286.657 322.273 283.808C324.133 280.181 324.899 275.767 324.678 271.193C324.499 267.478 323.668 263.656 322.243 260.063C321.567 258.358 320.756 256.704 319.818 255.138C318.762 253.375 317.606 251.836 316.38 250.494C312.072 245.784 306.891 243.497 302.121 242.403C298.593 241.592 295.29 241.433 292.728 241.427C292.672 241.427 292.617 241.427 292.562 241.427C287.535 241.427 284.156 243.35 281.281 245.592H281.28C279.213 247.204 277.408 248.979 275.435 250.324C273.885 251.38 272.231 252.171 270.27 252.406C269.875 252.454 269.467 252.479 269.045 252.479C268.042 252.479 267.12 252.409 266.275 252.285C259.622 251.311 257.66 246.994 257.66 246.994C257.66 246.994 257.034 246.994 256.017 246.994H240.375C240.211 249.67 240.391 252.129 240.855 254.362Z" fill="#B2DB98"/>
<path d="M286.322 231.87L286.987 232.95C286.987 232.95 286.627 229.34 288.635 227.323C290.158 227.858 293.053 229.46 294.964 229.46C296.876 229.46 298.122 227.217 298.122 227.217C298.122 227.217 299.202 233.117 297.125 238.933C297.956 238.352 298.371 237.936 298.371 237.936C298.371 237.936 298.455 238.767 297.042 242.174C298.205 242.174 304.022 242.174 306.1 241.426C305.684 240.762 305.684 240.429 305.684 240.429C305.684 240.429 308.094 240.928 310.504 239.349C307.845 237.77 304.022 234.779 301.778 229.793C299.535 225.056 296.128 223.726 292.305 224.391C288.483 225.056 285.823 228.712 286.322 231.87Z" fill="black"/>
<path d="M253.496 242.09C253.496 242.09 255.158 238.6 256.987 236.19C258.815 233.78 260.144 231.287 259.313 230.539C258.482 229.791 255.989 233.78 255.325 233.447C254.66 233.115 258.815 225.968 257.485 225.137C256.156 224.306 253.081 231.37 252.333 231.287C251.585 231.204 251.502 230.539 250.671 230.705C249.84 230.871 248.594 229.708 247.098 231.702C245.602 233.697 245.436 244.25 245.436 244.25L253.496 242.09Z" fill="#D4A181"/>
<path d="M306.187 284.223C306.187 284.223 300.869 286.467 299.622 288.295C298.376 290.123 300.619 294.611 302.198 295.94C303.777 297.27 308.258 301.706 310.176 300.427C311.173 299.763 307.07 297.772 307.184 295.94C307.267 294.611 311.09 293.115 311.09 293.115L306.187 284.223Z" fill="#D4A181"/>
<path d="M285.495 285.22L289.234 299.015L282.884 322.274L285.495 285.22Z" fill="#4B4294"/>
<path d="M290.397 261.201C288.332 261.201 286.658 259.527 286.658 257.462C286.658 255.397 288.332 253.722 290.397 253.722C292.463 253.722 294.137 255.397 294.137 257.462C294.137 259.527 292.463 261.201 290.397 261.201Z" fill="white" fill-opacity="0.3"/>
<path d="M281.272 245.591C282.46 247.007 284.243 247.907 286.237 247.907C289.817 247.907 292.718 245.006 292.719 241.426C292.663 241.425 292.607 241.425 292.553 241.425C287.526 241.425 284.147 243.349 281.272 245.591Z" fill="white" fill-opacity="0.3"/>
<path d="M299.708 248.321C299.708 253.002 303.503 256.797 308.184 256.797C312.114 256.797 315.42 254.121 316.379 250.492C312.071 245.782 306.891 243.495 302.12 242.4C300.627 243.928 299.708 246.018 299.708 248.321Z" fill="white" fill-opacity="0.3"/>
<path d="M320.232 264.858C320.232 267.773 322.084 270.255 324.676 271.191C324.497 267.476 323.666 263.654 322.241 260.061C321 261.281 320.232 262.98 320.232 264.858Z" fill="white" fill-opacity="0.3"/>
<path d="M315.581 289C315.581 289.556 315.665 290.093 315.822 290.597C318.68 289.02 320.814 286.656 322.273 283.807C321.847 283.698 321.401 283.64 320.941 283.64C317.981 283.64 315.581 286.04 315.581 289Z" fill="white" fill-opacity="0.3"/>
<path d="M306.852 279.735C306.852 279.735 308.556 282.328 310.403 285.146C310.841 284.369 311.09 283.473 311.09 282.519C311.09 280.382 309.84 278.537 308.031 277.677C307.433 278.986 306.852 279.735 306.852 279.735Z" fill="white" fill-opacity="0.3"/>
<path d="M270.267 252.405C270.54 253.682 271.673 254.638 273.03 254.638C274.591 254.638 275.855 253.373 275.855 251.813C275.855 251.266 275.7 250.755 275.432 250.323C273.882 251.379 272.228 252.17 270.267 252.405Z" fill="white" fill-opacity="0.3"/>
<path d="M268.414 268.704C270.804 267.932 272.198 267.102 272.198 267.102L271.792 269.988C273.795 269.776 275.355 268.081 275.355 266.022C275.355 263.819 273.57 262.033 271.367 262.033C269.164 262.033 267.378 263.819 267.378 266.022C267.378 267.055 267.77 267.996 268.414 268.704Z" fill="white" fill-opacity="0.3"/>
<path d="M274.859 271.841C274.859 272.037 274.868 272.231 274.886 272.422H287.63C287.647 272.231 287.656 272.037 287.656 271.841C287.656 268.306 284.792 265.442 281.258 265.442C277.723 265.442 274.859 268.306 274.859 271.841Z" fill="white" fill-opacity="0.3"/>
<path d="M297.628 266.356C297.628 269.027 299.183 271.335 301.437 272.422H305.688L304.941 261.37C307.955 264.824 309.084 268.124 309.28 270.949C310.403 269.747 311.09 268.132 311.09 266.356C311.09 262.638 308.077 259.625 304.359 259.625C300.641 259.625 297.628 262.638 297.628 266.356Z" fill="white" fill-opacity="0.3"/>
<path d="M255.66 248.987C255.66 252.199 258.265 254.804 261.477 254.804C263.466 254.804 265.222 253.806 266.27 252.283C259.617 251.309 257.655 246.992 257.655 246.992C257.655 246.992 257.029 246.992 256.012 246.992C255.784 247.615 255.66 248.286 255.66 248.987Z" fill="white" fill-opacity="0.3"/>
<path d="M240.851 254.359C242.117 260.449 245.497 264.854 249.781 267.394C250.713 266.033 251.258 264.388 251.258 262.614C251.258 257.933 247.463 254.138 242.782 254.138C242.118 254.138 241.471 254.214 240.851 254.359Z" fill="white" fill-opacity="0.3"/>
<path d="M257.239 239.348L238.791 243.42L240.312 248.624H259.316L257.239 239.348Z" fill="#44685A"/>
<path d="M306.687 278.49L318.238 291.287L310.51 295.941L302.865 281.482L306.687 278.49Z" fill="#44685A"/>
</g>
<g filter="url(#filter0_d_783_70182)">
<path d="M61 4.23096H283L276 12.231L272.739 46.1452C271.753 56.4021 263.135 64.231 252.831 64.231H91.1692C80.865 64.231 72.2472 56.4021 71.261 46.1452L70.5 38.231L68 12.231L61 4.23096Z" fill="#DAC2FB"/>
</g>
<path fill-rule="evenodd" clip-rule="evenodd" d="M68 11.231L68.1094 14.231H54V11.231C54 7.36496 57.134 4.23096 61 4.23096C64.866 4.23096 68 7.36496 68 11.231Z" fill="#6536A6"/>
<path fill-rule="evenodd" clip-rule="evenodd" d="M276 11.231L275.891 14.231H290V11.231C290 7.36496 286.866 4.23096 283 4.23096C279.134 4.23096 276 7.36496 276 11.231Z" fill="#6536A6"/>
<defs>
<filter id="filter0_d_783_70182" x="53" y="0.230957" width="238" height="76" filterUnits="userSpaceOnUse" color-interpolation-filters="sRGB">
<feFlood flood-opacity="0" result="BackgroundImageFix"/>
<feColorMatrix in="SourceAlpha" type="matrix" values="0 0 0 0 0 0 0 0 0 0 0 0 0 0 0 0 0 0 127 0" result="hardAlpha"/>
<feOffset dy="4"/>
<feGaussianBlur stdDeviation="4"/>
<feComposite in2="hardAlpha" operator="out"/>
<feColorMatrix type="matrix" values="0 0 0 0 0.139192 0 0 0 0 0.0301954 0 0 0 0 0.289062 0 0 0 0.25 0"/>
<feBlend mode="normal" in2="BackgroundImageFix" result="effect1_dropShadow_783_70182"/>
<feBlend mode="normal" in="SourceGraphic" in2="effect1_dropShadow_783_70182" result="shape"/>
</filter>
<linearGradient id="paint0_linear_783_70182" x1="343" y1="384.231" x2="-89.75" y2="-47.9932" gradientUnits="userSpaceOnUse">
<stop stop-color="#FFD1C1"/>
<stop offset="1" stop-color="#B27AFF"/>
</linearGradient>
<linearGradient id="paint1_linear_783_70182" x1="343" y1="340.231" x2="-6.0393" y2="217.391" gradientUnits="userSpaceOnUse">
<stop stop-color="#FFD1C1"/>
<stop offset="1" stop-color="#B27AFF"/>
</linearGradient>
</defs>
</svg>
