<svg width="91" height="107" viewBox="0 0 91 107" fill="none" xmlns="http://www.w3.org/2000/svg">
<path d="M16.0024 77.0385L16.871 80.3044C16.894 80.3907 16.9613 80.4583 17.0476 80.4815L20.0274 81.284L17.0302 82.051C16.9421 82.0735 16.8732 82.1422 16.8502 82.2302L16.0247 85.3981L15.263 82.2347C15.2412 82.1442 15.1709 82.0733 15.0806 82.0507L11.9916 81.2777L14.8618 80.481C14.9449 80.458 15.0102 80.3937 15.0347 80.311L16.0024 77.0385Z" fill="#FC774B" stroke="black" stroke-width="0.5" stroke-miterlimit="10" stroke-linecap="round" stroke-linejoin="round"/>
<path d="M83.0279 11.4395C81.0997 9.52283 80.2003 6.79613 80.6096 4.10842C78.6929 6.03658 75.9662 6.93604 73.2785 6.52672C75.2067 8.44337 76.1061 11.1701 75.6968 13.8578C77.6135 11.9296 80.3402 11.0302 83.0279 11.4395Z" fill="#D6C3F7" stroke="black" stroke-width="0.5" stroke-linejoin="round"/>
<mask id="path-3-inside-1_783_67908" fill="white">
<path fill-rule="evenodd" clip-rule="evenodd" d="M38.6597 4.10693H25.3264V20.0826L14.0959 8.8521L4.66777 18.2802L15.8313 29.4437H0V42.7771H16.007L4.75906 54.025L14.1871 63.4531L25.3264 52.3138V68.1069H38.6597V52.2721L49.9226 63.535L59.3507 54.1069L48.0208 42.7771H64V29.4437H48.1965L59.442 18.1982L50.0139 8.77013L38.6597 20.1243V4.10693Z"/>
</mask>
<path fill-rule="evenodd" clip-rule="evenodd" d="M38.6597 4.10693H25.3264V20.0826L14.0959 8.8521L4.66777 18.2802L15.8313 29.4437H0V42.7771H16.007L4.75906 54.025L14.1871 63.4531L25.3264 52.3138V68.1069H38.6597V52.2721L49.9226 63.535L59.3507 54.1069L48.0208 42.7771H64V29.4437H48.1965L59.442 18.1982L50.0139 8.77013L38.6597 20.1243V4.10693Z" fill="#FFF172"/>
<path d="M25.3264 4.10693V3.30693H24.5264V4.10693H25.3264ZM38.6597 4.10693H39.4597V3.30693H38.6597V4.10693ZM25.3264 20.0826L24.7607 20.6483L26.1264 22.014V20.0826H25.3264ZM14.0959 8.8521L14.6615 8.28641L14.0959 7.72073L13.5302 8.28641L14.0959 8.8521ZM4.66777 18.2802L4.10209 17.7145L3.5364 18.2802L4.10209 18.8459L4.66777 18.2802ZM15.8313 29.4437V30.2437H17.7627L16.397 28.8781L15.8313 29.4437ZM0 29.4437V28.6437H-0.8V29.4437H0ZM0 42.7771H-0.8V43.5771H0V42.7771ZM16.007 42.7771L16.5726 43.3428L17.9383 41.9771H16.007V42.7771ZM4.75906 54.025L4.19337 53.4593L3.62769 54.025L4.19337 54.5906L4.75906 54.025ZM14.1871 63.4531L13.6215 64.0187L14.1871 64.5844L14.7528 64.0187L14.1871 63.4531ZM25.3264 52.3138H26.1264V50.3824L24.7607 51.7481L25.3264 52.3138ZM25.3264 68.1069H24.5264V68.9069H25.3264V68.1069ZM38.6597 68.1069V68.9069H39.4597V68.1069H38.6597ZM38.6597 52.2721L39.2254 51.7065L37.8597 50.3408V52.2721H38.6597ZM49.9226 63.535L49.3569 64.1007L49.9226 64.6664L50.4883 64.1007L49.9226 63.535ZM59.3507 54.1069L59.9164 54.6726L60.4821 54.1069L59.9164 53.5412L59.3507 54.1069ZM48.0208 42.7771V41.9771H46.0895L47.4552 43.3428L48.0208 42.7771ZM64 42.7771V43.5771H64.8V42.7771H64ZM64 29.4437H64.8V28.6437H64V29.4437ZM48.1965 29.4437L47.6308 28.8781L46.2651 30.2437H48.1965V29.4437ZM59.442 18.1982L60.0077 18.7639L60.5733 18.1982L60.0077 17.6325L59.442 18.1982ZM50.0139 8.77013L50.5796 8.20444L50.0139 7.63876L49.4482 8.20444L50.0139 8.77013ZM38.6597 20.1243H37.8597V22.0557L39.2254 20.69L38.6597 20.1243ZM25.3264 4.90693H38.6597V3.30693H25.3264V4.90693ZM26.1264 20.0826V4.10693H24.5264V20.0826H26.1264ZM13.5302 9.41778L24.7607 20.6483L25.8921 19.5169L14.6615 8.28641L13.5302 9.41778ZM5.23346 18.8459L14.6615 9.41778L13.5302 8.28641L4.10209 17.7145L5.23346 18.8459ZM16.397 28.8781L5.23346 17.7145L4.10209 18.8459L15.2656 30.0094L16.397 28.8781ZM0 30.2437H15.8313V28.6437H0V30.2437ZM0.8 42.7771V29.4437H-0.8V42.7771H0.8ZM16.007 41.9771H0V43.5771H16.007V41.9771ZM5.32474 54.5906L16.5726 43.3428L15.4413 42.2114L4.19337 53.4593L5.32474 54.5906ZM14.7528 62.8874L5.32474 53.4593L4.19337 54.5906L13.6215 64.0187L14.7528 62.8874ZM24.7607 51.7481L13.6215 62.8874L14.7528 64.0187L25.8921 52.8795L24.7607 51.7481ZM26.1264 68.1069V52.3138H24.5264V68.1069H26.1264ZM38.6597 67.3069H25.3264V68.9069H38.6597V67.3069ZM37.8597 52.2721V68.1069H39.4597V52.2721H37.8597ZM50.4883 62.9693L39.2254 51.7065L38.094 52.8378L49.3569 64.1007L50.4883 62.9693ZM58.785 53.5412L49.3569 62.9693L50.4883 64.1007L59.9164 54.6726L58.785 53.5412ZM47.4552 43.3428L58.785 54.6726L59.9164 53.5412L48.5865 42.2114L47.4552 43.3428ZM64 41.9771H48.0208V43.5771H64V41.9771ZM63.2 29.4437V42.7771H64.8V29.4437H63.2ZM48.1965 30.2437H64V28.6437H48.1965V30.2437ZM58.8763 17.6325L47.6308 28.8781L48.7621 30.0094L60.0077 18.7639L58.8763 17.6325ZM49.4482 9.33581L58.8763 18.7639L60.0077 17.6325L50.5796 8.20444L49.4482 9.33581ZM39.2254 20.69L50.5796 9.33581L49.4482 8.20444L38.094 19.5586L39.2254 20.69ZM37.8597 4.10693V20.1243H39.4597V4.10693H37.8597Z" fill="black" mask="url(#path-3-inside-1_783_67908)"/>
<path d="M84.3328 55.987L61.6662 54.907V57.0003H56.3328V54.907L33.6662 55.987C32.9823 56.0212 32.3378 56.3172 31.8662 56.8136C31.3945 57.3101 31.132 57.9689 31.1328 58.6536V94.6536C31.132 95.0189 31.2063 95.3804 31.351 95.7158C31.4958 96.0512 31.7078 96.3533 31.9741 96.6033C32.2404 96.8533 32.5552 97.046 32.899 97.1693C33.2428 97.2927 33.6083 97.3441 33.9728 97.3203L51.8928 96.2403C52.151 96.2245 52.4083 96.2842 52.6332 96.412C52.8581 96.5398 53.041 96.7304 53.1595 96.9603C53.5062 97.8403 54.4928 98.1736 55.6795 98.1736H62.3462C63.5195 98.1736 64.5195 97.8403 64.8662 96.9603C64.9847 96.7304 65.1675 96.5398 65.3924 96.412C65.6174 96.2842 65.8746 96.2245 66.1328 96.2403L84.0528 97.3203C84.4173 97.3441 84.7828 97.2927 85.1266 97.1693C85.4704 97.046 85.7852 96.8533 86.0515 96.6033C86.3178 96.3533 86.5299 96.0512 86.6746 95.7158C86.8193 95.3804 86.8936 95.0189 86.8928 94.6536V58.6536C86.8934 57.9645 86.6271 57.3019 86.1499 56.8048C85.6726 56.3076 85.0214 56.0145 84.3328 55.987Z" fill="#B27AFF"/>
<path d="M84.3328 55.987L61.6661 54.907V57.0003H56.3328V54.907L33.6661 55.987C32.9823 56.0212 32.3378 56.3172 31.8661 56.8136C31.3945 57.3101 31.132 57.9689 31.1328 58.6536V63.3203C31.132 62.6356 31.3945 61.9767 31.8661 61.4803C32.3378 60.9839 32.9823 60.6879 33.6661 60.6536L58.9995 59.4403L84.3328 60.6536C85.0167 60.6879 85.6612 60.9839 86.1328 61.4803C86.6044 61.9767 86.867 62.6356 86.8661 63.3203V58.6403C86.8636 57.9579 86.5995 57.3024 86.1282 56.8088C85.657 56.3152 85.0144 56.0211 84.3328 55.987Z" fill="#D6C3F7"/>
<path d="M84.3328 55.987L61.6662 54.907V57.0003H56.3328V54.907L33.6662 55.987C32.9823 56.0212 32.3378 56.3172 31.8662 56.8136C31.3945 57.3101 31.132 57.9689 31.1328 58.6536V94.6536C31.132 95.0189 31.2063 95.3804 31.351 95.7158C31.4958 96.0512 31.7078 96.3533 31.9741 96.6033C32.2404 96.8533 32.5552 97.046 32.899 97.1693C33.2428 97.2927 33.6083 97.3441 33.9728 97.3203L51.8928 96.2403C52.151 96.2245 52.4083 96.2842 52.6332 96.412C52.8581 96.5398 53.041 96.7304 53.1595 96.9603C53.5062 97.8403 54.4928 98.1736 55.6795 98.1736H62.3462C63.5195 98.1736 64.5195 97.8403 64.8662 96.9603C64.9847 96.7304 65.1675 96.5398 65.3924 96.412C65.6174 96.2842 65.8746 96.2245 66.1328 96.2403L84.0528 97.3203C84.4173 97.3441 84.7828 97.2927 85.1266 97.1693C85.4704 97.046 85.7852 96.8533 86.0515 96.6033C86.3178 96.3533 86.5299 96.0512 86.6746 95.7158C86.8193 95.3804 86.8936 95.0189 86.8928 94.6536V58.6536C86.8934 57.9645 86.6271 57.3019 86.1499 56.8048C85.6726 56.3076 85.0214 56.0145 84.3328 55.987Z" stroke="#45413C" stroke-linecap="round" stroke-linejoin="round"/>
<path d="M55 90.1069H63V92.7736C63 93.3182 62.7837 93.8405 62.3986 94.2255C62.0135 94.6106 61.4912 94.8269 60.9467 94.8269H57.0533C56.5088 94.8269 55.9865 94.6106 55.6014 94.2255C55.2163 93.8405 55 93.3182 55 92.7736V90.1069Z" fill="#627B8C" stroke="#45413C" stroke-linecap="round" stroke-linejoin="round"/>
<path d="M38.4544 54.7737L35.5744 58.427C35.2789 58.8739 35.1213 59.3979 35.1211 59.9337V94.107L38.4544 89.2137V54.7737ZM79.5478 54.7737L82.4278 58.427C82.7233 58.8739 82.8809 59.3979 82.8811 59.9337V94.107L79.5478 89.2137V54.7737Z" fill="#FFFEF2"/>
<path d="M35.5744 58.427C35.2789 58.8739 35.1213 59.3979 35.1211 59.9337V64.6003C35.1213 64.0645 35.2789 63.5406 35.5744 63.0937L38.4544 59.4403V54.7737L35.5744 58.427ZM82.4278 58.427L79.5478 54.7737V59.4403L82.4278 63.0937C82.7233 63.5406 82.8809 64.0645 82.8811 64.6003V59.9337C82.8809 59.3979 82.7233 58.8739 82.4278 58.427Z" fill="white"/>
<path d="M38.4544 54.7737L35.5744 58.427C35.2789 58.8739 35.1213 59.3979 35.1211 59.9337V94.107L38.4544 89.2137V54.7737ZM79.5478 54.7737L82.4278 58.427C82.7233 58.8739 82.8809 59.3979 82.8811 59.9337V94.107L79.5478 89.2137V54.7737Z" stroke="#45413C" stroke-linecap="round" stroke-linejoin="round"/>
<path d="M58.9998 91.4403V56.7737C58.9998 55.7128 58.5784 54.6954 57.8282 53.9453C57.0781 53.1951 56.0607 52.7737 54.9998 52.7737L39.6665 54.0003C39.181 54.1011 38.7494 54.3762 38.4531 54.7737V93.4403L55.2931 92.907C55.7596 92.3978 56.3356 92.0013 56.9777 91.7472C57.6198 91.4931 58.3112 91.3882 58.9998 91.4403ZM62.9998 52.7737C61.9389 52.7737 60.9215 53.1951 60.1714 53.9453C59.4212 54.6954 58.9998 55.7128 58.9998 56.7737V91.4403C59.6884 91.3882 60.3798 91.4931 61.0219 91.7472C61.664 92.0013 62.24 92.3978 62.7065 92.907L79.5465 93.4403V54.7737C79.2502 54.3762 78.8185 54.1011 78.3331 54.0003L62.9998 52.7737Z" fill="#FFFEF2"/>
<path d="M54.9998 52.7737L39.6665 54.0003C39.1811 54.1011 38.7494 54.3762 38.4531 54.7737V58.667C38.4518 58.3332 38.5757 58.0111 38.8003 57.7642C39.025 57.5173 39.334 57.3637 39.6665 57.3337L54.9998 56.107C56.0607 56.107 57.0781 56.5284 57.8282 57.2786C58.5784 58.0287 58.9998 59.0461 58.9998 60.107V56.7737C58.9998 55.7128 58.5784 54.6954 57.8282 53.9453C57.0781 53.1951 56.0607 52.7737 54.9998 52.7737ZM78.3331 54.0003L62.9998 52.7737C61.9389 52.7737 60.9215 53.1951 60.1714 53.9453C59.4212 54.6954 58.9998 55.7128 58.9998 56.7737V60.107C58.9998 59.0461 59.4212 58.0287 60.1714 57.2786C60.9215 56.5284 61.9389 56.107 62.9998 56.107L78.3331 57.3337C78.6656 57.3637 78.9746 57.5173 79.1993 57.7642C79.4239 58.0111 79.5478 58.3332 79.5465 58.667V54.7737C79.2502 54.3762 78.8186 54.1011 78.3331 54.0003Z" fill="white"/>
<path d="M58.9998 91.4403V56.7737M58.9998 91.4403C58.3112 91.3882 57.6198 91.4931 56.9777 91.7472C56.3356 92.0013 55.7596 92.3978 55.2931 92.907L38.4531 93.4403V54.7737C38.7494 54.3762 39.181 54.1011 39.6665 54.0003L54.9998 52.7737C56.0607 52.7737 57.0781 53.1951 57.8282 53.9453C58.5784 54.6954 58.9998 55.7128 58.9998 56.7737M58.9998 91.4403C59.6884 91.3882 60.3798 91.4931 61.0219 91.7472C61.664 92.0013 62.24 92.3978 62.7065 92.907L79.5465 93.4403V54.7737C79.2502 54.3762 78.8185 54.1011 78.3331 54.0003L62.9998 52.7737C61.9389 52.7737 60.9215 53.1951 60.1714 53.9453C59.4212 54.6954 58.9998 55.7128 58.9998 56.7737" stroke="#45413C" stroke-linecap="round" stroke-linejoin="round"/>
<path d="M59.0011 91.4402C58.842 90.4986 58.3513 89.6449 57.6177 89.0336C56.8841 88.4222 55.956 88.0935 55.0011 88.1068L38.4544 89.2135L35.1211 94.1068L55.2411 93.0002C55.6987 92.46 56.2785 92.0367 56.9324 91.7654C57.5863 91.4941 58.2955 91.3826 59.0011 91.4402ZM62.7611 93.0002L82.8811 94.1068L79.5478 89.2135L63.0011 88.1068C62.0577 88.1094 61.1455 88.4453 60.4257 89.0552C59.706 89.6652 59.225 90.5099 59.0678 91.4402C59.7625 91.3934 60.4585 91.5101 61.0999 91.781C61.7413 92.052 62.3103 92.4695 62.7611 93.0002Z" fill="#FFFCE5" stroke="#45413C" stroke-linecap="round" stroke-linejoin="round"/>
<path d="M54.332 57.4402L42.332 58.5869M54.332 62.5469L42.332 63.6935M54.332 67.6535L42.332 68.7869M54.332 72.7602L42.332 73.8935M54.332 77.8535L42.332 79.0002M54.332 82.9602L42.332 84.1069M63.6654 57.4402L75.6654 58.5869M63.6654 62.5469L75.6654 63.6935M63.6654 67.6535L75.6654 68.7869M63.6654 72.7602L75.6654 73.8935M63.6654 77.8535L75.6654 79.0002M63.6654 82.9602L75.6654 84.1069" stroke="#45413C" stroke-linecap="round" stroke-linejoin="round"/>
</svg>
