<svg width="24" height="28" viewBox="0 0 24 28" fill="none" xmlns="http://www.w3.org/2000/svg">
<g filter="url(#filter0_d_783_69096)">
<path d="M7.56289 10.2237L12.0554 11.3088L13.696 15.6751L15.1846 20.5717L13.5572 21.5075C11.99 22.4087 10.0131 22.1467 8.73477 20.8684L3.35914 15.4928C2.08081 14.2144 1.8188 12.2376 2.71999 10.6704L3.65584 9.04289L7.56289 10.2237Z" fill="url(#paint0_linear_783_69096)"/>
</g>
<g filter="url(#filter1_d_783_69096)">
<path d="M19.614 16.2462C19.0473 15.6797 18.1279 15.6799 17.5614 16.2466C17.4096 16.3984 17.3027 16.5737 17.2322 16.7641L14.7561 16.1444C14.2301 16.0119 13.9157 15.4753 14.0589 14.9514L15.9865 9.53747C16.4034 9.57803 16.8353 9.4454 17.156 9.12463C17.7225 8.55793 17.7224 7.63852 17.1557 7.07199C16.589 6.50547 15.6696 6.50561 15.103 7.07231C14.7824 7.39309 14.6499 7.82502 14.6906 8.24195L9.27723 10.1712C8.75341 10.3146 8.21454 9.99819 8.08403 9.47436L7.46572 7.00061C7.65173 6.93002 7.83132 6.82308 7.9831 6.67125C8.54963 6.10455 8.54948 5.18514 7.98279 4.61862C7.41609 4.0521 6.49454 4.0501 5.92802 4.6168C5.36149 5.1835 5.36164 6.10291 5.92833 6.66943C5.98394 6.72502 6.04809 6.77205 6.1101 6.81694L3.69005 11.1559C3.03661 12.3275 3.24038 13.7905 4.18909 14.7389L6.62556 17.1746L9.42387 19.972C10.3579 20.9058 11.7928 21.1189 12.9578 20.4968L17.4142 18.1175C17.4591 18.1795 17.5061 18.2436 17.5617 18.2992C18.1284 18.8657 19.0478 18.8656 19.6143 18.2989C20.1809 17.7322 20.1807 16.8128 19.614 16.2462Z" fill="url(#paint1_linear_783_69096)" shape-rendering="crispEdges"/>
<path d="M19.614 16.2462C19.0473 15.6797 18.1279 15.6799 17.5614 16.2466C17.4096 16.3984 17.3027 16.5737 17.2322 16.7641L14.7561 16.1444C14.2301 16.0119 13.9157 15.4753 14.0589 14.9514L15.9865 9.53747C16.4034 9.57803 16.8353 9.4454 17.156 9.12463C17.7225 8.55793 17.7224 7.63852 17.1557 7.07199C16.589 6.50547 15.6696 6.50561 15.103 7.07231C14.7824 7.39309 14.6499 7.82502 14.6906 8.24195L9.27723 10.1712C8.75341 10.3146 8.21454 9.99819 8.08403 9.47436L7.46572 7.00061C7.65173 6.93002 7.83132 6.82308 7.9831 6.67125C8.54963 6.10455 8.54948 5.18514 7.98279 4.61862C7.41609 4.0521 6.49454 4.0501 5.92802 4.6168C5.36149 5.1835 5.36164 6.10291 5.92833 6.66943C5.98394 6.72502 6.04809 6.77205 6.1101 6.81694L3.69005 11.1559C3.03661 12.3275 3.24038 13.7905 4.18909 14.7389L6.62556 17.1746L9.42387 19.972C10.3579 20.9058 11.7928 21.1189 12.9578 20.4968L17.4142 18.1175C17.4591 18.1795 17.5061 18.2436 17.5617 18.2992C18.1284 18.8657 19.0478 18.8656 19.6143 18.2989C20.1809 17.7322 20.1807 16.8128 19.614 16.2462Z" stroke="url(#paint2_linear_783_69096)" shape-rendering="crispEdges"/>
</g>
<path d="M18.901 17.5583C18.7293 17.7301 18.4508 17.7302 18.279 17.5584C18.1072 17.3867 18.1072 17.1082 18.2789 16.9364C18.4506 16.7646 18.7291 16.7646 18.9009 16.9363C19.0727 17.108 19.0727 17.3865 18.901 17.5583Z" fill="#D38913"/>
<path d="M7.28385 5.93547C7.11212 6.10726 6.83363 6.10731 6.66184 5.93557C6.49005 5.76383 6.49001 5.48535 6.66175 5.31356C6.83348 5.14177 7.11197 5.14173 7.28376 5.31346C7.45555 5.4852 7.45559 5.76368 7.28385 5.93547Z" fill="#D38913"/>
<path d="M9.69349 10.8049L15.9132 8.31593L7.20642 17.0254L9.69349 10.8049Z" fill="url(#paint3_linear_783_69096)"/>
<path d="M13.424 14.5369L15.911 8.31639L7.20425 17.0259L13.424 14.5369Z" fill="url(#paint4_linear_783_69096)"/>
<path d="M12.8041 15.564L16.9414 17.3371L8.66671 17.3371L12.8041 15.564Z" fill="url(#paint5_linear_783_69096)"/>
<path d="M12.8041 19.1104L16.9414 17.3372L8.66671 17.3372L12.8041 19.1104Z" fill="url(#paint6_linear_783_69096)"/>
<path d="M4.81121 11.1185L6.58565 15.2553L6.58308 6.98061L4.81121 11.1185Z" fill="url(#paint7_linear_783_69096)"/>
<path d="M8.35809 11.1175L6.58623 15.2554L6.58365 6.98074L8.35809 11.1175Z" fill="url(#paint8_linear_783_69096)"/>
<path d="M16.4128 8.40211C16.241 8.5739 15.9625 8.57394 15.7908 8.40221C15.619 8.23047 15.6189 7.95199 15.7907 7.7802C15.9624 7.60841 16.2409 7.60836 16.4127 7.7801C16.5845 7.95184 16.5845 8.23032 16.4128 8.40211Z" fill="#D38913"/>
<defs>
<filter id="filter0_d_783_69096" x="0.1875" y="9.04297" width="16.9961" height="17.9971" filterUnits="userSpaceOnUse" color-interpolation-filters="sRGB">
<feFlood flood-opacity="0" result="BackgroundImageFix"/>
<feColorMatrix in="SourceAlpha" type="matrix" values="0 0 0 0 0 0 0 0 0 0 0 0 0 0 0 0 0 0 127 0" result="hardAlpha"/>
<feOffset dy="3"/>
<feGaussianBlur stdDeviation="1"/>
<feComposite in2="hardAlpha" operator="out"/>
<feColorMatrix type="matrix" values="0 0 0 0 0.446866 0 0 0 0 0.220213 0 0 0 0 0.0109947 0 0 0 0.25 0"/>
<feBlend mode="normal" in2="BackgroundImageFix" result="effect1_dropShadow_783_69096"/>
<feBlend mode="normal" in="SourceGraphic" in2="effect1_dropShadow_783_69096" result="shape"/>
</filter>
<filter id="filter1_d_783_69096" x="0.808594" y="3.69287" width="21.7305" height="21.6577" filterUnits="userSpaceOnUse" color-interpolation-filters="sRGB">
<feFlood flood-opacity="0" result="BackgroundImageFix"/>
<feColorMatrix in="SourceAlpha" type="matrix" values="0 0 0 0 0 0 0 0 0 0 0 0 0 0 0 0 0 0 127 0" result="hardAlpha"/>
<feOffset dy="2"/>
<feGaussianBlur stdDeviation="1"/>
<feComposite in2="hardAlpha" operator="out"/>
<feColorMatrix type="matrix" values="0 0 0 0 0.2 0 0 0 0 0.0981667 0 0 0 0 0.00416666 0 0 0 0.4 0"/>
<feBlend mode="normal" in2="BackgroundImageFix" result="effect1_dropShadow_783_69096"/>
<feBlend mode="normal" in="SourceGraphic" in2="effect1_dropShadow_783_69096" result="shape"/>
</filter>
<linearGradient id="paint0_linear_783_69096" x1="14.661" y1="20.8364" x2="3.24311" y2="9.6749" gradientUnits="userSpaceOnUse">
<stop stop-color="#F9D99E"/>
<stop offset="0.512098" stop-color="#FCEDC7"/>
<stop offset="1" stop-color="#F7D79E"/>
</linearGradient>
<linearGradient id="paint1_linear_783_69096" x1="16.5338" y1="7.6941" x2="6.84095" y2="17.3899" gradientUnits="userSpaceOnUse">
<stop stop-color="#FFFCE1"/>
<stop offset="0.537566" stop-color="#FFE683"/>
<stop offset="1" stop-color="#DA9937"/>
</linearGradient>
<linearGradient id="paint2_linear_783_69096" x1="17.1557" y1="7.07199" x2="6.84095" y2="17.3899" gradientUnits="userSpaceOnUse">
<stop stop-color="#D08714"/>
<stop offset="1" stop-color="#FFFBEB" stop-opacity="0.4"/>
</linearGradient>
<linearGradient id="paint3_linear_783_69096" x1="14.98" y1="7.38306" x2="6.27326" y2="16.0925" gradientUnits="userSpaceOnUse">
<stop stop-color="white"/>
<stop offset="1" stop-color="white" stop-opacity="0"/>
</linearGradient>
<linearGradient id="paint4_linear_783_69096" x1="16.8442" y1="9.24926" x2="8.79353" y2="16.9446" gradientUnits="userSpaceOnUse">
<stop stop-color="#FCC97D" stop-opacity="0"/>
<stop offset="1" stop-color="#CC7F0C"/>
</linearGradient>
<linearGradient id="paint5_linear_783_69096" x1="16.9414" y1="16.4505" x2="8.66671" y2="16.4505" gradientUnits="userSpaceOnUse">
<stop stop-color="white"/>
<stop offset="1" stop-color="white" stop-opacity="0"/>
</linearGradient>
<linearGradient id="paint6_linear_783_69096" x1="16.9414" y1="18.2238" x2="9.67438" y2="18.2638" gradientUnits="userSpaceOnUse">
<stop offset="0.130618" stop-color="#FCBA7D" stop-opacity="0"/>
<stop offset="1" stop-color="#CC7F0C"/>
</linearGradient>
<linearGradient id="paint7_linear_783_69096" x1="5.69907" y1="15.2556" x2="5.6965" y2="6.98089" gradientUnits="userSpaceOnUse">
<stop stop-color="white"/>
<stop offset="1" stop-color="white" stop-opacity="0"/>
</linearGradient>
<linearGradient id="paint8_linear_783_69096" x1="7.4728" y1="15.2552" x2="7.47736" y2="7.70792" gradientUnits="userSpaceOnUse">
<stop offset="0.0707484" stop-color="#FFCB8D" stop-opacity="0"/>
<stop offset="1" stop-color="#CC7F0C"/>
</linearGradient>
</defs>
</svg>
