<svg width="144" height="114" viewBox="0 0 144 114" fill="none" xmlns="http://www.w3.org/2000/svg">
<path d="M40.806 20.616C42.4208 18.7436 44.8479 17.6784 47.9205 17.4021C50.9964 17.1255 54.6867 17.6442 58.7593 18.9097C66.9032 21.4402 76.4824 26.9276 85.5467 34.788C94.6109 42.6483 101.408 51.362 105.08 59.078C106.916 62.9367 107.96 66.5236 108.131 69.6157C108.302 72.7045 107.601 75.2666 105.986 77.139C104.371 79.0115 101.944 80.0766 98.8716 80.3529C95.7957 80.6295 92.1054 80.1109 88.0328 78.8454C79.889 76.3149 70.3097 70.8275 61.2454 62.9671C52.1812 55.1067 45.3842 46.393 41.7122 38.6771C39.8759 34.8184 38.8317 31.2314 38.6609 28.1393C38.4903 25.0506 39.1912 22.4885 40.806 20.616Z" stroke="#B27AFF"/>
<mask id="path-2-inside-1_1152_9865" fill="white">
<path fill-rule="evenodd" clip-rule="evenodd" d="M41.0771 19.5528C34.828 26.8476 30.9501 36.2367 30.6683 46.5665C30.0129 70.5918 49.0587 90.608 73.2083 91.2739C85.703 91.6185 97.116 86.7157 105.313 78.5756L104.723 78.0337C96.6785 86.0092 85.4852 90.8122 73.2301 90.4742C49.5183 89.8203 30.8247 70.1683 31.468 46.5885C31.7443 36.4604 35.5432 27.2524 41.6667 20.0945L41.0771 19.5528Z"/>
</mask>
<path fill-rule="evenodd" clip-rule="evenodd" d="M41.0771 19.5528C34.828 26.8476 30.9501 36.2367 30.6683 46.5665C30.0129 70.5918 49.0587 90.608 73.2083 91.2739C85.703 91.6185 97.116 86.7157 105.313 78.5756L104.723 78.0337C96.6785 86.0092 85.4852 90.8122 73.2301 90.4742C49.5183 89.8203 30.8247 70.1683 31.468 46.5885C31.7443 36.4604 35.5432 27.2524 41.6667 20.0945L41.0771 19.5528Z" fill="#B27AFF"/>
<path d="M41.0771 19.5528L41.4831 19.111L41.0256 18.6906L40.6215 19.1624L41.0771 19.5528ZM30.6683 46.5665L30.0685 46.55L30.0685 46.55L30.6683 46.5665ZM73.2083 91.2739L73.1919 91.8737L73.2083 91.2739ZM105.313 78.5756L105.735 79.0014L106.181 78.5588L105.719 78.1338L105.313 78.5756ZM104.723 78.0337L105.129 77.5919L104.707 77.2044L104.3 77.6076L104.723 78.0337ZM73.2301 90.4742L73.2466 89.8745L73.2301 90.4742ZM31.468 46.5885L30.8682 46.5721L30.8682 46.5721L31.468 46.5885ZM41.6667 20.0945L42.1227 20.4846L42.4991 20.0446L42.0727 19.6528L41.6667 20.0945ZM40.6215 19.1624C34.2863 26.5576 30.3542 36.0775 30.0685 46.55L31.2681 46.5829C31.546 36.3958 35.3698 27.1375 41.5328 19.9432L40.6215 19.1624ZM30.0685 46.55C29.404 70.9094 48.714 91.1987 73.1919 91.8737L73.2248 90.6742C49.4034 90.0172 30.6218 70.2741 31.2681 46.5829L30.0685 46.55ZM73.1919 91.8737C85.8569 92.223 97.4268 87.2527 105.735 79.0014L104.89 78.1499C96.8051 86.1787 85.5492 91.014 73.2248 90.6742L73.1919 91.8737ZM104.317 78.4755L104.907 79.0174L105.719 78.1338L105.129 77.5919L104.317 78.4755ZM73.2137 91.074C85.6388 91.4166 96.989 86.5463 105.145 78.4598L104.3 77.6076C96.368 85.4721 85.3316 90.2077 73.2466 89.8745L73.2137 91.074ZM30.8682 46.5721C30.2158 70.4859 49.1735 90.4111 73.2137 91.074L73.2466 89.8745C49.863 89.2296 31.4336 69.8506 32.0678 46.605L30.8682 46.5721ZM41.2108 19.7045C35.0014 26.9627 31.1484 36.3014 30.8682 46.5721L32.0678 46.605C32.3402 36.6194 36.085 27.5422 42.1227 20.4846L41.2108 19.7045ZM40.6712 19.9946L41.2608 20.5363L42.0727 19.6528L41.4831 19.111L40.6712 19.9946Z" fill="#B27AFF" mask="url(#path-2-inside-1_1152_9865)"/>
<mask id="path-4-inside-2_1152_9865" fill="white">
<path fill-rule="evenodd" clip-rule="evenodd" d="M98.5568 19.5381L71.7908 45.6432L71.8037 45.6566C71.6995 45.7414 71.5982 45.8316 71.5001 45.9272C69.7327 47.651 69.6934 50.4853 71.4125 52.2577C73.1315 54.03 75.9579 54.0694 77.7254 52.3456C77.8234 52.2499 77.9162 52.1509 78.0036 52.0488L78.016 52.0616L104.782 25.9564L98.5568 19.5381Z"/>
</mask>
<path fill-rule="evenodd" clip-rule="evenodd" d="M98.5568 19.5381L71.7908 45.6432L71.8037 45.6566C71.6995 45.7414 71.5982 45.8316 71.5001 45.9272C69.7327 47.651 69.6934 50.4853 71.4125 52.2577C73.1315 54.03 75.9579 54.0694 77.7254 52.3456C77.8234 52.2499 77.9162 52.1509 78.0036 52.0488L78.016 52.0616L104.782 25.9564L98.5568 19.5381Z" fill="#101116"/>
<path d="M71.7908 45.6432L71.3719 45.2137L70.9435 45.6315L71.3601 46.061L71.7908 45.6432ZM98.5568 19.5381L98.9875 19.1204L98.5686 18.6885L98.1379 19.1086L98.5568 19.5381ZM71.8037 45.6566L72.1824 46.122L72.6902 45.7088L72.2344 45.2388L71.8037 45.6566ZM71.5001 45.9272L71.9191 46.3567L71.9191 46.3567L71.5001 45.9272ZM71.4125 52.2577L70.9818 52.6754L70.9818 52.6754L71.4125 52.2577ZM77.7254 52.3456L78.1443 52.7751L78.1443 52.7751L77.7254 52.3456ZM78.0036 52.0488L78.4343 51.6311L77.976 51.1585L77.5478 51.6586L78.0036 52.0488ZM78.016 52.0616L77.5853 52.4793L78.0042 52.9112L78.435 52.4911L78.016 52.0616ZM104.782 25.9564L105.201 26.386L105.629 25.9682L105.213 25.5387L104.782 25.9564ZM72.2097 46.0728L98.9757 19.9676L98.1379 19.1086L71.3719 45.2137L72.2097 46.0728ZM72.2344 45.2388L72.2215 45.2255L71.3601 46.061L71.373 46.0743L72.2344 45.2388ZM71.9191 46.3567C72.0042 46.2737 72.0921 46.1954 72.1824 46.122L71.425 45.1912C71.3069 45.2873 71.1922 45.3895 71.0812 45.4977L71.9191 46.3567ZM71.8432 51.8399C70.3544 50.3049 70.3884 47.8496 71.9191 46.3567L71.0812 45.4977C69.077 47.4525 69.0325 50.6656 70.9818 52.6754L71.8432 51.8399ZM77.3065 51.916C75.7767 53.408 73.3311 53.374 71.8432 51.8399L70.9818 52.6754C72.932 54.6861 76.1391 54.7308 78.1443 52.7751L77.3065 51.916ZM77.5478 51.6586C77.4721 51.747 77.3916 51.833 77.3065 51.916L78.1443 52.7751C78.2553 52.6669 78.3603 52.5547 78.4594 52.439L77.5478 51.6586ZM78.4468 51.6439L78.4343 51.6311L77.5729 52.4665L77.5853 52.4793L78.4468 51.6439ZM104.363 25.5269L77.5971 51.6321L78.435 52.4911L105.201 26.386L104.363 25.5269ZM98.1261 19.9558L104.351 26.3742L105.213 25.5387L98.9875 19.1204L98.1261 19.9558Z" fill="white" mask="url(#path-4-inside-2_1152_9865)"/>
<path d="M108.852 21.3757C108.852 24.6211 106.228 27.2507 102.994 27.2507C99.7594 27.2507 97.1359 24.6211 97.1359 21.3757C97.1359 18.1302 99.7594 15.5007 102.994 15.5007C106.228 15.5007 108.852 18.1302 108.852 21.3757Z" fill="#101116" stroke="white" stroke-width="0.6"/>
<mask id="path-7-inside-3_1152_9865" fill="white">
<path fill-rule="evenodd" clip-rule="evenodd" d="M117.644 19.5245C117.678 16.9327 116.8 14.1812 114.983 11.8188C113.165 9.45628 110.734 7.9071 108.225 7.28286L107.918 8.23774C110.215 8.78695 112.474 10.1982 114.192 12.4307C115.909 14.6632 116.697 17.2133 116.645 19.5805L117.644 19.5245ZM112.267 19.8259L113.266 19.7699C113.011 18.054 112.302 16.3304 111.127 14.8027C109.951 13.2749 108.469 12.1501 106.878 11.4675L106.571 12.4219C107.965 13.0354 109.276 14.0368 110.336 15.4147C111.396 16.7925 112.029 18.3184 112.267 19.8259Z"/>
</mask>
<path fill-rule="evenodd" clip-rule="evenodd" d="M117.644 19.5245C117.678 16.9327 116.8 14.1812 114.983 11.8188C113.165 9.45628 110.734 7.9071 108.225 7.28286L107.918 8.23774C110.215 8.78695 112.474 10.1982 114.192 12.4307C115.909 14.6632 116.697 17.2133 116.645 19.5805L117.644 19.5245ZM112.267 19.8259L113.266 19.7699C113.011 18.054 112.302 16.3304 111.127 14.8027C109.951 13.2749 108.469 12.1501 106.878 11.4675L106.571 12.4219C107.965 13.0354 109.276 14.0368 110.336 15.4147C111.396 16.7925 112.029 18.3184 112.267 19.8259Z" fill="#B27AFF"/>
<path d="M114.983 11.8188L115.457 11.4516L114.983 11.8188ZM117.644 19.5245L117.677 20.1243L118.235 20.093L118.243 19.532L117.644 19.5245ZM108.225 7.28286L108.37 6.69977L107.827 6.56464L107.655 7.09866L108.225 7.28286ZM107.918 8.23774L107.348 8.05354L107.149 8.67152L107.779 8.82213L107.918 8.23774ZM114.192 12.4307L114.666 12.0636L114.192 12.4307ZM116.645 19.5805L116.046 19.5674L116.031 20.2166L116.678 20.1803L116.645 19.5805ZM112.267 19.8259L111.675 19.9203L111.76 20.456L112.3 20.4257L112.267 19.8259ZM113.266 19.7699L113.299 20.3697L113.955 20.3329L113.858 19.681L113.266 19.7699ZM111.127 14.8027L110.652 15.1698L110.652 15.1698L111.127 14.8027ZM106.878 11.4675L107.114 10.9152L106.51 10.6559L106.308 11.2833L106.878 11.4675ZM106.571 12.4219L106.001 12.2377L105.834 12.754L106.33 12.972L106.571 12.4219ZM110.336 15.4147L110.81 15.0475L110.336 15.4147ZM114.508 12.1859C116.246 14.4447 117.077 17.065 117.044 19.5169L118.243 19.532C118.279 16.8004 117.355 13.9178 115.457 11.4516L114.508 12.1859ZM108.081 7.86595C110.454 8.4565 112.77 9.9271 114.508 12.1859L115.457 11.4516C113.56 8.98546 111.014 7.35769 108.37 6.69977L108.081 7.86595ZM108.488 8.42193L108.796 7.46706L107.655 7.09866L107.348 8.05354L108.488 8.42193ZM114.666 12.0636C112.868 9.72643 110.492 8.23559 108.057 7.65335L107.779 8.82213C109.937 9.33831 112.08 10.67 113.717 12.7979L114.666 12.0636ZM117.244 19.5935C117.3 17.084 116.465 14.4007 114.666 12.0636L113.717 12.7979C115.354 14.9257 116.095 17.3426 116.046 19.5674L117.244 19.5935ZM116.678 20.1803L117.677 20.1243L117.611 18.9246L116.612 18.9806L116.678 20.1803ZM112.3 20.4257L113.299 20.3697L113.233 19.17L112.234 19.226L112.3 20.4257ZM110.652 15.1698C111.766 16.6171 112.433 18.245 112.673 19.8588L113.858 19.681C113.588 17.863 112.839 16.0438 111.601 14.4356L110.652 15.1698ZM106.642 12.0199C108.138 12.6618 109.539 13.7226 110.652 15.1698L111.601 14.4356C110.364 12.8273 108.799 11.6383 107.114 10.9152L106.642 12.0199ZM107.141 12.6061L107.448 11.6517L106.308 11.2833L106.001 12.2377L107.141 12.6061ZM110.81 15.0475C109.69 13.5911 108.299 12.5262 106.812 11.8718L106.33 12.972C107.63 13.5445 108.862 14.4825 109.861 15.7818L110.81 15.0475ZM112.859 19.7314C112.605 18.1233 111.931 16.5039 110.81 15.0475L109.861 15.7818C110.861 17.0811 111.453 18.5135 111.675 19.9203L112.859 19.7314Z" fill="#DAC2FB" mask="url(#path-7-inside-3_1152_9865)"/>
<path d="M112.839 31.3496L114.628 38.1848L120.997 39.9157L114.6 41.5785L112.839 48.4288L111.221 41.5785L104.684 39.9157L110.852 38.1848L112.839 31.3496Z" fill="#DAC2FB"/>
<path d="M33.2609 78.8499L35.0497 85.6851L41.4188 87.4159L35.0221 89.0787L33.2609 95.929L31.6429 89.0787L25.1055 87.4159L31.2735 85.6851L33.2609 78.8499Z" fill="#DAC2FB"/>
</svg>
